<svg width="968" height="194" viewBox="0 0 968 194" fill="none" xmlns="http://www.w3.org/2000/svg">
<rect x="780" width="54" height="194" fill="#3FBDF1"/>
<rect x="847" width="54" height="194" fill="#3FBDF1" fill-opacity="0.76"/>
<rect x="914" width="54" height="194" fill="#3FBDF1" fill-opacity="0.42"/>
<path d="M51.584 53.528V121.24C51.584 128.067 49.4933 133.571 45.312 137.752C41.1307 141.848 35.5413 143.896 28.544 143.896C21.2907 143.896 15.488 141.72 11.136 137.368C6.86933 132.931 4.736 126.957 4.736 119.448H13.824C13.9093 124.312 15.104 128.28 17.408 131.352C19.7973 134.424 23.5093 135.96 28.544 135.96C33.3227 135.96 36.864 134.552 39.168 131.736C41.472 128.92 42.624 125.421 42.624 121.24V53.528H51.584ZM85.635 60.824V94.232H119.555V101.656H85.635V135.576H123.395V143H76.675V53.4H123.395V60.824H85.635ZM191.226 143L169.082 105.624H152.57V143H143.61V53.528H170.49C180.474 53.528 188.026 55.9173 193.146 60.696C198.351 65.4747 200.954 71.7467 200.954 79.512C200.954 85.9973 199.077 91.544 195.322 96.152C191.653 100.675 186.191 103.619 178.938 104.984L201.978 143H191.226ZM152.57 98.328H170.618C177.615 98.328 182.863 96.6213 186.362 93.208C189.946 89.7947 191.738 85.2293 191.738 79.512C191.738 73.624 190.031 69.1013 186.618 65.944C183.205 62.7013 177.829 61.08 170.49 61.08H152.57V98.328ZM273.135 121.752H232.431L224.623 143H215.151L247.791 54.68H257.903L290.415 143H280.943L273.135 121.752ZM270.447 114.328L252.783 65.944L235.119 114.328H270.447ZM350.747 91.8V99.352H300.955V91.8H350.747ZM484.834 53.528L459.49 143H449.506L426.978 66.712L403.938 143L394.21 143.128L369.378 53.528H378.978L399.458 131.992L422.37 53.528H432.354L454.626 131.992L475.234 53.528H484.834ZM541.292 143.896C533.015 143.896 525.505 141.976 518.764 138.136C512.023 134.211 506.689 128.792 502.764 121.88C498.924 114.883 497.004 106.989 497.004 98.2C497.004 89.4107 498.924 81.56 502.764 74.648C506.689 67.6507 512.023 62.232 518.764 58.392C525.505 54.4667 533.015 52.504 541.292 52.504C549.655 52.504 557.207 54.4667 563.948 58.392C570.689 62.232 575.98 67.6507 579.82 74.648C583.66 81.56 585.58 89.4107 585.58 98.2C585.58 106.989 583.66 114.883 579.82 121.88C575.98 128.792 570.689 134.211 563.948 138.136C557.207 141.976 549.655 143.896 541.292 143.896ZM541.292 136.088C547.948 136.088 553.921 134.552 559.212 131.48C564.503 128.408 568.684 124.013 571.756 118.296C574.828 112.493 576.364 105.795 576.364 98.2C576.364 90.6053 574.828 83.9493 571.756 78.232C568.684 72.5147 564.503 68.12 559.212 65.048C553.921 61.976 547.948 60.44 541.292 60.44C534.636 60.44 528.663 61.976 523.372 65.048C518.081 68.12 513.9 72.5147 510.828 78.232C507.756 83.9493 506.22 90.6053 506.22 98.2C506.22 105.795 507.756 112.493 510.828 118.296C513.9 124.013 518.081 128.408 523.372 131.48C528.663 134.552 534.636 136.088 541.292 136.088ZM652.151 143L630.007 105.624H613.495V143H604.535V53.528H631.415C641.399 53.528 648.951 55.9173 654.071 60.696C659.276 65.4747 661.879 71.7467 661.879 79.512C661.879 85.9973 660.002 91.544 656.247 96.152C652.578 100.675 647.116 103.619 639.863 104.984L662.903 143H652.151ZM613.495 98.328H631.543C638.54 98.328 643.788 96.6213 647.287 93.208C650.871 89.7947 652.663 85.2293 652.663 79.512C652.663 73.624 650.956 69.1013 647.543 65.944C644.13 62.7013 638.754 61.08 631.415 61.08H613.495V98.328ZM729.964 143L691.18 101.656V143H682.22V53.528H691.18V95.384L729.964 53.528H741.356L699.5 98.2L741.74 143H729.964Z" fill="#3FBDF1"/>
</svg>
