<svg width="2984" height="2224" viewBox="0 0 2984 2224" fill="none" xmlns="http://www.w3.org/2000/svg">
<path d="M2984 1953.92H0V1955.42H2984V1953.92Z" fill="#EBEBEB"/>
<path d="M2685 2049.95H2555.62V2051.44H2685V2049.95Z" fill="#EBEBEB"/>
<path d="M2056.99 2019.03H1853.42V2020.53H2056.99V2019.03Z" fill="#EBEBEB"/>
<path d="M2632.6 1994.57H2366.85V1996.06H2632.6V1994.57Z" fill="#EBEBEB"/>
<path d="M1032.58 2024.64H966.1V2026.14H1032.58V2024.64Z" fill="#EBEBEB"/>
<path d="M912.925 2024.64H683.813V2026.14H912.925V2024.64Z" fill="#EBEBEB"/>
<path d="M561.052 1999.46H395.738V2000.95H561.052V1999.46Z" fill="#EBEBEB"/>
<path d="M1414.42 1687.75H262.055C253.027 1687.73 244.375 1684.14 237.997 1677.75C231.619 1671.36 228.037 1662.7 228.037 1653.67V33.779C228.116 24.8032 231.732 16.221 238.102 9.89634C244.471 3.57169 253.079 0.0154674 262.055 9.15527e-05H1414.42C1423.45 9.15527e-05 1432.12 3.59037 1438.51 9.9811C1444.9 16.3718 1448.49 25.0395 1448.49 34.0774V1653.67C1448.49 1662.71 1444.9 1671.38 1438.51 1677.77C1432.12 1684.16 1423.45 1687.75 1414.42 1687.75ZM262.055 1.1937C253.423 1.20951 245.15 4.64955 239.052 10.7588C232.954 16.868 229.529 25.1471 229.529 33.779V1653.67C229.529 1662.3 232.954 1670.58 239.052 1676.69C245.15 1682.8 253.423 1686.24 262.055 1686.26H1414.42C1423.05 1686.24 1431.33 1682.8 1437.44 1676.7C1443.55 1670.59 1446.99 1662.31 1447 1653.67V33.779C1446.99 25.1417 1443.55 16.8626 1437.44 10.7551C1431.33 4.64761 1423.05 1.20947 1414.42 1.1937H262.055Z" fill="#EBEBEB"/>
<path d="M2705.35 1687.75H1552.93C1543.9 1687.73 1535.24 1684.14 1528.85 1677.75C1522.47 1671.36 1518.87 1662.71 1518.86 1653.67V33.779C1518.95 24.7978 1522.58 16.2156 1528.96 9.89261C1535.34 3.5696 1543.95 0.0152997 1552.93 9.15527e-05H2705.35C2714.32 0.031152 2722.91 3.59431 2729.27 9.91728C2735.62 16.2403 2739.23 24.8136 2739.31 33.779V1653.67C2739.31 1662.69 2735.74 1671.34 2729.37 1677.73C2723.01 1684.11 2714.37 1687.72 2705.35 1687.75ZM1552.93 1.1937C1544.3 1.20947 1536.02 4.64761 1529.91 10.7551C1523.8 16.8626 1520.36 25.1417 1520.35 33.779V1653.67C1520.36 1662.31 1523.8 1670.59 1529.91 1676.7C1536.02 1682.8 1544.3 1686.24 1552.93 1686.26H2705.35C2713.99 1686.24 2722.27 1682.8 2728.38 1676.7C2734.48 1670.59 2737.92 1662.31 2737.94 1653.67V33.779C2737.92 25.1417 2734.48 16.8626 2728.38 10.7551C2722.27 4.64761 2713.99 1.20947 2705.35 1.1937H1552.93Z" fill="#EBEBEB"/>
<path d="M1289.51 870.612L1292.19 792.192L1244.09 776.437C1242.02 749.861 1237.71 723.508 1231.2 697.659L1272.02 667.819L1244.33 594.174L1193.84 598.232C1181.87 574.505 1167.89 551.843 1152.06 530.496L1178.2 486.87L1124.49 429.517L1079.37 452.613C1059.08 435.271 1037.41 419.622 1014.56 405.824L1021.84 355.693L950.225 323.227L917.401 361.661C892.079 353.561 866.129 347.572 839.817 343.757L827.881 294.64L749.223 291.955L733.706 340.116C707.157 342.204 680.826 346.496 654.988 352.948L624.671 312.365L551.026 339.878L555.084 390.367C531.369 402.52 508.711 416.633 487.347 432.561L443.423 405.824L385.832 459.536L408.928 504.893C391.581 525.08 376.006 546.724 362.377 569.586L312.306 562.066L279.601 633.682L318.274 666.447C310.116 691.753 304.126 717.708 300.37 744.031L250.656 756.504L247.971 834.923L296.312 850.679C298.311 877.239 302.604 903.576 309.143 929.397L268.322 959.237L296.073 1032.94L346.562 1028.88C358.502 1052.63 372.48 1075.29 388.338 1096.62L362.139 1140.25L415.851 1197.6L460.969 1174.5C481.204 1191.84 502.842 1207.47 525.662 1221.23L518.142 1271.3L589.758 1303.83L622.761 1265.4C648.083 1273.57 674.031 1279.66 700.345 1283.6L712.281 1332.71L790.939 1335.4L806.456 1287.24C833.023 1285.13 859.37 1280.83 885.234 1274.41L915.074 1314.99L988.719 1287.48L984.899 1236.99C1008.57 1224.76 1031.22 1210.65 1052.64 1194.79L1096.02 1220.93L1153.61 1167.22L1130.52 1121.86C1147.87 1101.68 1163.45 1080.04 1177.07 1057.17L1227.14 1064.69L1259.85 993.075L1221.17 960.251C1229.47 934.964 1235.56 909.005 1239.37 882.667L1289.51 870.612ZM759.607 1124.67C698.065 1122.59 638.522 1102.31 588.51 1066.38C538.497 1030.46 500.263 980.507 478.644 922.849C457.024 865.192 452.99 802.418 467.052 742.468C481.115 682.517 512.641 628.084 557.644 586.054C602.647 544.024 659.105 516.285 719.875 506.347C780.645 496.408 842.997 504.716 899.045 530.22C955.093 555.723 1002.32 597.277 1034.75 649.624C1067.17 701.971 1083.35 762.759 1081.22 824.3C1078.39 906.775 1042.92 984.749 982.607 1041.08C922.296 1097.4 842.084 1127.47 759.607 1124.67Z" fill="#EBEBEB"/>
<path d="M2631.89 611.243L2651.64 592.802L2643.82 577.225C2649.79 570.245 2655.16 562.779 2659.88 554.905L2677.19 557.471L2688.35 532.764L2675.1 521.484C2677.95 512.748 2680.05 503.783 2681.36 494.688L2698.37 490.45L2699.21 463.356L2682.62 457.984C2681.89 448.808 2680.41 439.706 2678.2 430.77L2692.22 420.326L2682.68 394.962L2665.31 396.335C2661.12 388.155 2656.27 380.33 2650.81 372.94L2659.82 358.02L2641.26 338.207L2625.74 346.144C2618.75 340.194 2611.29 334.825 2603.42 330.09L2605.93 312.783L2581.28 301.503L2569.94 314.812C2561.19 312.087 2552.23 310.091 2543.14 308.844L2538.91 291.895L2511.81 290.88L2506.38 307.591C2497.24 308.29 2488.18 309.767 2479.29 312.007L2468.9 297.982L2443.48 307.471L2444.91 324.898C2436.71 329.045 2428.88 333.898 2421.52 339.4L2406.48 330.389L2386.66 348.83L2394.36 364.048C2388.35 371.008 2382.96 378.476 2378.25 386.368L2361 383.802L2349.78 408.51L2363.09 419.849C2360.33 428.572 2358.33 437.518 2357.12 446.586L2340.05 450.823L2339.22 477.918L2355.87 483.289C2356.55 492.467 2358 501.571 2360.22 510.503L2346.14 520.887L2355.69 546.251L2373.12 544.938C2377.3 553.119 2382.15 560.943 2387.62 568.333L2378.61 583.253L2397.17 603.067L2412.68 595.129C2419.66 601.099 2427.13 606.469 2435 611.183L2432.44 628.431L2457.15 639.71L2468.48 626.461C2477.24 629.158 2486.2 631.154 2495.28 632.429L2499.52 649.378L2526.61 650.393L2532.04 633.682C2541.18 632.988 2550.25 631.51 2559.14 629.266L2569.52 643.291L2594.95 633.802L2593.57 616.375C2601.75 612.222 2609.56 607.37 2616.91 601.873L2631.89 611.243ZM2490.92 497.075C2485.71 491.49 2482.27 484.486 2481.04 476.947C2479.81 469.408 2480.85 461.674 2484.01 454.723C2487.18 447.771 2492.34 441.916 2498.83 437.896C2505.33 433.876 2512.87 431.873 2520.5 432.141C2528.14 432.408 2535.52 434.933 2541.72 439.397C2547.92 443.861 2552.65 450.064 2555.33 457.219C2558 464.375 2558.49 472.163 2556.73 479.597C2554.98 487.031 2551.06 493.778 2545.47 498.985C2541.76 502.482 2537.4 505.209 2532.63 507.008C2527.85 508.807 2522.77 509.642 2517.68 509.464C2512.58 509.286 2507.58 508.1 2502.94 505.973C2498.31 503.847 2494.14 500.822 2490.69 497.075H2490.92Z" fill="#EBEBEB"/>
<path d="M1909.76 1416.45L1848.05 1373.77C1842 1351.55 1833.68 1330.02 1823.22 1309.5L1839.04 1247.43L1749.52 1151.59L1686.5 1163.1C1666.72 1151.26 1645.79 1141.48 1624.01 1133.92L1585.7 1069.41L1454.4 1064.93L1411.79 1126.64C1389.6 1132.68 1368.08 1140.98 1347.57 1151.41L1285.51 1135.59L1189.66 1225.11L1201.18 1288.01C1189.34 1307.83 1179.59 1328.8 1172.06 1350.62L1107.54 1388.93L1103.07 1520.23L1164.83 1562.84C1170.78 1585.18 1179.08 1606.83 1189.6 1627.41L1173.61 1688.94L1263.13 1784.79L1325.73 1773.33C1345.65 1785.19 1366.73 1794.99 1388.63 1802.57L1426.89 1866.97L1558.19 1871.51L1600.74 1809.8C1623.13 1803.75 1644.85 1795.43 1665.55 1784.97L1727.26 1800.72L1823.16 1711.2L1811.65 1648.3C1823.52 1628.49 1833.28 1607.49 1840.77 1585.64L1905.28 1547.32L1909.76 1416.45ZM1501.25 1615.72C1472.1 1614.72 1443.91 1605.1 1420.22 1588.08C1396.54 1571.06 1378.44 1547.4 1368.2 1520.09C1357.96 1492.78 1356.06 1463.05 1362.72 1434.66C1369.38 1406.26 1384.3 1380.48 1405.62 1360.57C1426.93 1340.66 1453.66 1327.52 1482.44 1322.8C1511.23 1318.09 1540.76 1322.01 1567.31 1334.08C1593.86 1346.15 1616.24 1365.82 1631.61 1390.6C1646.98 1415.39 1654.66 1444.17 1653.67 1473.32C1652.3 1512.41 1635.48 1549.36 1606.89 1576.06C1578.3 1602.76 1540.29 1617.02 1501.19 1615.72H1501.25Z" fill="#EBEBEB"/>
<path d="M2050.31 1044.4H2049.89L1946.52 1040.88C1944.43 1040.84 1942.38 1040.27 1940.56 1039.23C1938.75 1038.19 1937.23 1036.7 1936.14 1034.91L1908.27 988.062C1893.25 982.567 1878.71 975.819 1864.82 967.89L1820.24 975.589C1818.16 975.969 1816.02 975.819 1814.02 975.151C1812.02 974.483 1810.21 973.32 1808.78 971.77L1738.18 896.215C1736.7 894.65 1735.65 892.729 1735.12 890.638C1734.6 888.547 1734.63 886.357 1735.2 884.279L1746.48 840.056C1739.49 825.726 1733.78 810.808 1729.41 795.475L1684.47 764.441C1682.73 763.245 1681.31 761.627 1680.36 759.738C1679.41 757.85 1678.96 755.752 1679.04 753.639L1682.56 650.273C1682.63 648.187 1683.21 646.149 1684.25 644.338C1685.29 642.528 1686.76 641 1688.53 639.889L1735.49 612.018C1740.91 597.032 1747.64 582.553 1755.61 568.75L1747.37 523.811C1746.99 521.725 1747.13 519.576 1747.8 517.562C1748.47 515.548 1749.63 513.736 1751.19 512.293L1826.75 441.751C1828.31 440.264 1830.23 439.203 1832.32 438.67C1834.41 438.138 1836.6 438.15 1838.68 438.708L1883.08 450.047C1897.38 443.055 1912.25 437.324 1927.54 432.919L1958.58 387.98C1959.73 386.195 1961.34 384.75 1963.24 383.795C1965.14 382.841 1967.26 382.41 1969.38 382.549L2072.69 386.13C2074.79 386.174 2076.84 386.744 2078.67 387.786C2080.49 388.828 2082.03 390.311 2083.13 392.098L2111 439.006C2125.92 444.482 2140.33 451.231 2154.09 459.178L2199.21 450.882C2201.29 450.497 2203.43 450.645 2205.43 451.313C2207.43 451.981 2209.24 453.147 2210.67 454.702L2281.27 530.257C2282.74 531.828 2283.79 533.749 2284.31 535.838C2284.83 537.926 2284.81 540.114 2284.25 542.193L2272.91 586.535C2279.9 600.836 2285.65 615.711 2290.1 630.997L2334.98 662.03C2336.72 663.227 2338.13 664.845 2339.08 666.733C2340.03 668.622 2340.49 670.72 2340.41 672.832L2336.89 776.139C2336.82 778.233 2336.24 780.279 2335.2 782.099C2334.16 783.919 2332.69 785.458 2330.92 786.583L2283.95 814.453C2278.5 829.406 2271.77 843.862 2263.84 857.661L2272.08 902.66C2272.46 904.737 2272.32 906.878 2271.65 908.883C2270.98 910.887 2269.81 912.688 2268.26 914.119L2192.23 984.72C2190.66 986.202 2188.74 987.255 2186.65 987.778C2184.56 988.3 2182.37 988.275 2180.29 987.704L2136.13 976.425C2121.74 983.384 2106.78 989.114 2091.43 993.553L2060.69 1038.43C2059.58 1040.2 2058.06 1041.67 2056.25 1042.72C2054.43 1043.76 2052.39 1044.34 2050.31 1044.4ZM1954.28 1015.93L2043.8 1018.98L2073.64 976.067C2075.29 973.562 2077.83 971.772 2080.74 971.053C2097.54 966.461 2113.83 960.203 2129.38 952.374C2132.09 951.067 2135.18 950.751 2138.1 951.478L2179.87 962.161L2245.52 900.989L2238 857.84C2237.42 854.825 2237.97 851.701 2239.55 849.068C2248.42 834.29 2255.72 818.629 2261.33 802.338C2262.28 799.385 2264.28 796.88 2266.94 795.296L2311.88 768.679L2314.93 679.159L2271.96 649.318C2269.69 647.773 2268 645.531 2267.12 642.933C2267.12 642.634 2267.12 642.276 2267.12 641.918C2262.53 625.422 2256.29 609.428 2248.5 594.174C2247.12 591.444 2246.78 588.304 2247.55 585.342L2258.29 543.088L2197.12 477.44L2154.21 485.318C2151.21 485.861 2148.12 485.31 2145.5 483.766C2130.69 474.884 2115.01 467.545 2098.71 461.864C2097.77 461.564 2096.87 461.164 2096.02 460.67C2094.3 459.597 2092.87 458.122 2091.84 456.373L2064.93 411.315L1975.41 408.211L1945.57 451.241C1943.79 453.763 1941.16 455.563 1938.17 456.313C1921.55 460.855 1905.43 467.074 1890.07 474.874C1887.36 476.256 1884.24 476.596 1881.29 475.829L1839.04 465.086L1773.39 526.258L1781.27 569.049C1781.74 571.748 1781.34 574.526 1780.14 576.986L1779.54 578.001C1770.66 592.835 1763.36 608.557 1757.76 624.909C1756.77 627.713 1754.82 630.08 1752.26 631.594L1707.33 658.27L1704.28 747.791L1747.31 777.631C1749.76 779.309 1751.54 781.805 1752.32 784.673C1756.8 801.431 1763.02 817.674 1770.88 833.133C1771.31 834.013 1771.65 834.933 1771.9 835.878C1772.35 837.842 1772.35 839.882 1771.9 841.846L1761.16 883.622L1822.33 949.27L1864.94 941.452C1867.92 940.907 1870.99 941.459 1873.59 943.004C1888.51 951.869 1904.29 959.207 1920.68 964.906C1923.64 965.785 1926.14 967.774 1927.66 970.457L1954.28 1015.93ZM2009.6 902.72C2007.4 902.72 2005.19 902.72 2002.98 902.72C1953.37 901.846 1906.11 881.413 1871.49 845.867C1836.87 810.32 1817.69 762.539 1818.13 712.922C1818.57 663.304 1838.58 615.868 1873.82 580.937C1909.06 546.005 1956.67 526.407 2006.29 526.407C2055.91 526.407 2103.52 546.005 2138.76 580.937C2174 615.868 2194.02 663.304 2194.46 712.922C2194.89 762.539 2175.71 810.32 2141.09 845.867C2106.47 881.413 2059.22 901.846 2009.6 902.72ZM2009.6 550.071C1966.25 550.818 1924.95 568.662 1894.68 599.716C1864.42 630.771 1847.65 672.523 1848.03 715.882C1848.4 759.241 1865.89 800.698 1896.68 831.226C1927.47 861.754 1969.08 878.883 2012.44 878.883C2055.8 878.883 2097.41 861.754 2128.2 831.226C2158.99 800.698 2176.48 759.241 2176.85 715.882C2177.23 672.523 2160.46 630.771 2130.19 599.716C2099.93 568.662 2058.63 550.818 2015.27 550.071H2009.6Z" fill="#EBEBEB"/>
<path d="M2288.37 300.31L2245.52 288.851L2234.06 246.001L2250.83 229.291L2268.5 265.874L2305.14 283.599L2288.37 300.31Z" fill="#E0E0E0"/>
<path d="M2291 271.663C2292.85 269.81 2294.32 267.609 2295.32 265.188C2296.33 262.766 2296.84 260.17 2296.84 257.549C2296.84 254.928 2296.33 252.332 2295.32 249.911C2294.32 247.489 2292.85 245.288 2291 243.435C2289.14 241.581 2286.94 240.111 2284.52 239.108C2282.1 238.105 2279.5 237.588 2276.88 237.588C2274.26 237.588 2271.66 238.105 2269.24 239.108C2266.82 240.111 2264.62 241.581 2262.77 243.435L2284.07 211.446L2312.6 225.889L2318.87 255.729L2291 271.663Z" fill="#E0E0E0"/>
<path d="M2247.43 232.752L2278.82 201.36L2321.55 212.759L2333.07 255.55L2301.68 286.942L2258.89 275.423L2247.43 232.752ZM2304.42 258.415C2307.22 255.618 2309.12 252.055 2309.89 248.178C2310.66 244.3 2310.26 240.281 2308.75 236.629C2307.24 232.977 2304.67 229.856 2301.39 227.66C2298.1 225.464 2294.23 224.292 2290.28 224.292C2286.33 224.292 2282.46 225.464 2279.17 227.66C2275.89 229.856 2273.32 232.977 2271.81 236.629C2270.3 240.281 2269.9 244.3 2270.67 248.178C2271.44 252.055 2273.34 255.618 2276.14 258.415C2279.92 262.123 2285.01 264.191 2290.3 264.169C2295.6 264.146 2300.67 262.036 2304.42 258.295V258.415Z" fill="#F0F0F0"/>
<path d="M538.433 1442.53L561.409 1436.32L567.556 1413.34L558.604 1404.39L549.115 1424.02L529.421 1433.51L538.433 1442.53Z" fill="#E0E0E0"/>
<path d="M537.12 1427.13C535.324 1425.08 534.375 1422.42 534.466 1419.7C534.556 1416.97 535.679 1414.38 537.606 1412.46C539.534 1410.53 542.122 1409.41 544.846 1409.32C547.571 1409.22 550.228 1410.17 552.279 1411.97L540.88 1394.84L525.184 1402.48L521.842 1418.59L537.12 1427.13Z" fill="#E0E0E0"/>
<path d="M560.396 1406.18L543.566 1389.35L520.589 1395.32L514.621 1418.3L531.152 1435.3L554.129 1429.34L560.396 1406.18ZM529.839 1419.97C528.733 1419 527.837 1417.81 527.208 1416.48C526.578 1415.15 526.228 1413.71 526.179 1412.24C526.131 1410.77 526.384 1409.31 526.925 1407.94C527.465 1406.57 528.28 1405.33 529.32 1404.29C530.36 1403.25 531.602 1402.43 532.97 1401.89C534.338 1401.35 535.802 1401.1 537.272 1401.15C538.742 1401.2 540.186 1401.55 541.515 1402.18C542.844 1402.81 544.029 1403.7 544.998 1404.81C546.794 1406.86 547.743 1409.52 547.652 1412.24C547.562 1414.96 546.44 1417.55 544.512 1419.48C542.584 1421.41 539.996 1422.53 537.272 1422.62C534.547 1422.71 531.89 1421.76 529.839 1419.97Z" fill="#F0F0F0"/>
<path d="M455.716 182.979L474.813 202.077C477.202 204.424 480.417 205.739 483.765 205.739C487.114 205.739 490.329 204.424 492.717 202.077C495.051 199.681 496.356 196.469 496.356 193.125C496.356 189.78 495.051 186.568 492.717 184.173L473.68 165.135C471.284 162.802 468.072 161.496 464.728 161.496C461.383 161.496 458.171 162.802 455.776 165.135C453.438 167.513 452.124 170.71 452.112 174.045C452.101 177.379 453.395 180.585 455.716 182.979Z" fill="#F0F0F0"/>
<path d="M442.289 135.533C447.272 134.148 452.552 134.247 457.479 135.82C462.407 137.393 466.768 140.371 470.027 144.387C473.286 148.404 475.301 153.285 475.825 158.431C476.349 163.577 475.358 168.764 472.975 173.355C470.593 177.946 466.921 181.741 462.411 184.274C457.902 186.808 452.75 187.969 447.59 187.616C442.43 187.263 437.485 185.41 433.362 182.286C429.24 179.161 426.12 174.901 424.385 170.028C423.283 166.588 422.873 162.964 423.178 159.365C423.482 155.766 424.496 152.262 426.16 149.056C427.824 145.85 430.106 143.004 432.874 140.684C435.642 138.363 438.842 136.613 442.289 135.533Z" fill="#E0E0E0"/>
<path d="M421.519 166.833L424.283 174.528L481.011 154.15L478.247 146.455L421.519 166.833Z" fill="#F0F0F0"/>
<path d="M1492 2223.44C2131.07 2223.44 2649.14 2193.19 2649.14 2155.88C2649.14 2118.57 2131.07 2088.32 1492 2088.32C852.931 2088.32 334.864 2118.57 334.864 2155.88C334.864 2193.19 852.931 2223.44 1492 2223.44Z" fill="#F5F5F5"/>
<path d="M517.545 391.799C511.577 365.481 514.203 343.399 525.542 325.376C536.881 307.352 555.382 295.536 581.701 289.568C608.02 283.6 630.758 285.987 648.542 297.087C666.327 308.188 678.382 326.927 684.35 352.59C688.564 368.429 688.912 385.048 685.365 401.05C681.895 414.339 674.564 426.301 664.298 435.425C652.104 445.691 637.469 452.639 621.806 455.597C606.452 459.674 590.375 460.225 574.778 457.209C561.22 453.914 548.958 446.639 539.567 436.321C528.347 423.737 520.738 408.354 517.545 391.799ZM567.318 380.699C571.018 396.932 576.688 407.913 584.327 413.642C588.27 416.272 592.704 418.076 597.363 418.948C602.022 419.82 606.808 419.74 611.435 418.714C616.063 417.689 620.435 415.738 624.288 412.979C628.142 410.22 631.398 406.711 633.861 402.661C638.158 394.366 638.218 381.176 634.16 363.213C630.698 348.054 625.108 337.67 617.389 332.06C613.503 329.27 609.041 327.388 604.331 326.552C599.622 325.715 594.784 325.945 590.175 327.226C585.562 328.09 581.205 329.988 577.432 332.78C573.659 335.571 570.568 339.181 568.392 343.339C563.976 352.112 563.558 364.048 567.318 380.699Z" fill="#263238"/>
<path d="M707.745 372.105C705.625 363.972 705.247 355.483 706.635 347.193C708.024 338.904 711.147 331.001 715.802 324.003C721.02 316.568 727.654 310.236 735.325 305.371C742.996 300.507 751.552 297.205 760.502 295.655C783.857 290.363 803.034 293.128 818.034 303.95C830.657 313.736 839.239 327.824 842.144 343.529C845.05 359.234 842.076 375.46 833.789 389.114C824.479 403.318 809.32 412.787 788.313 417.521C772.129 422.046 754.861 420.65 739.614 413.583C731.461 409.598 724.341 403.78 718.812 396.584C713.283 389.388 709.495 381.009 707.745 372.105ZM752.565 361.78C753.772 370.12 757.844 377.779 764.083 383.444C766.556 385.316 769.407 386.627 772.437 387.286C775.468 387.945 778.606 387.936 781.632 387.26C784.659 386.584 787.503 385.258 789.965 383.372C792.428 381.487 794.45 379.088 795.892 376.342C799.017 368.326 799.312 359.483 796.728 351.277C795.472 343.133 791.446 335.671 785.329 330.15C782.955 328.225 780.169 326.874 777.188 326.201C774.207 325.529 771.112 325.552 768.141 326.271C765.045 326.912 762.135 328.251 759.632 330.185C757.13 332.118 755.101 334.596 753.699 337.431C750.485 345.165 750.083 353.781 752.565 361.78Z" fill="#263238"/>
<path d="M886.725 439.066L850.142 277.93L891.918 268.381L895.857 285.629C898.804 278.75 903.083 272.523 908.449 267.307C914.337 262.309 921.369 258.844 928.919 257.221C935.896 255.323 943.239 255.214 950.27 256.904C957.3 258.594 963.791 262.028 969.144 266.889C980.939 277.916 988.941 292.393 992.001 308.247C996.417 327.643 995.104 343.518 988.181 355.991C984.889 361.955 980.338 367.131 974.846 371.161C969.353 375.19 963.049 377.976 956.372 379.326C949.939 380.852 943.271 381.115 936.737 380.102C930.471 379.004 924.498 376.627 919.191 373.12L931.844 428.801L886.725 439.066ZM908.27 326.51C909.366 333.963 913.092 340.779 918.774 345.726C921.052 347.471 923.696 348.678 926.507 349.257C929.318 349.835 932.224 349.771 935.007 349.069C937.591 348.55 940.017 347.433 942.09 345.805C944.164 344.178 945.826 342.086 946.943 339.699C949.48 332.23 949.48 324.132 946.943 316.662C945.852 309.171 942.254 302.271 936.737 297.087C934.691 295.388 932.281 294.181 929.694 293.56C927.107 292.939 924.412 292.921 921.817 293.506C919.075 294.098 916.502 295.302 914.291 297.028C912.079 298.754 910.286 300.957 909.046 303.473C906.124 310.83 905.85 318.973 908.27 326.51Z" fill="#263238"/>
<path d="M1011.16 330.031L1054.6 315.767C1056.92 319.967 1060.51 323.314 1064.87 325.316C1069.56 326.673 1074.52 326.782 1079.26 325.63C1084 324.479 1088.36 322.107 1091.9 318.751C1092.9 317.698 1093.61 316.419 1094 315.026C1094.38 313.632 1094.42 312.166 1094.11 310.754C1093.75 309.138 1092.92 307.667 1091.72 306.529C1090.52 305.391 1089 304.638 1087.37 304.368C1080.63 303.628 1073.82 303.628 1067.08 304.368C1055.76 305.331 1044.38 305.331 1033.06 304.368C1026.43 303.407 1020.22 300.57 1015.16 296.192C1009.75 291.515 1006.02 285.204 1004.52 278.215C1003.03 271.226 1003.85 263.94 1006.86 257.46C1010.34 250.525 1015.75 244.743 1022.44 240.809C1031.96 235.401 1042.3 231.59 1053.05 229.529C1063.32 226.744 1073.93 225.457 1084.56 225.71C1091.24 226.14 1097.71 228.188 1103.42 231.678C1109.51 235.782 1114.67 241.107 1118.58 247.314L1076.81 261.1C1075.24 257.991 1072.65 255.522 1069.46 254.118C1065.11 252.56 1060.39 252.352 1055.92 253.521C1051.96 254.072 1048.3 255.894 1045.47 258.713C1044.58 259.674 1043.93 260.84 1043.58 262.109C1043.24 263.378 1043.21 264.712 1043.5 265.994C1043.83 267.405 1044.57 268.685 1045.64 269.665C1046.7 270.646 1048.04 271.28 1049.47 271.485C1056.14 272.259 1062.89 272.118 1069.52 271.067C1081.03 269.399 1092.71 269.238 1104.26 270.589C1111.52 271.615 1118.33 274.749 1123.83 279.601C1128.81 284.114 1132.27 290.054 1133.74 296.61C1135.27 303.639 1134.71 310.962 1132.13 317.677C1128.97 325.627 1123.48 332.432 1116.37 337.192C1105.91 344.035 1094.18 348.722 1081.88 350.978C1060.59 355.832 1044.68 356.25 1034.13 352.232C1023.86 348.129 1015.61 340.157 1011.16 330.031Z" fill="#263238"/>
<path d="M1156.9 182.442H1205.89V220.04L1196.88 295.655H1166.56L1156.9 220.16V182.442ZM1159.28 307.054H1205V347.517H1159.28V307.054Z" fill="#263238"/>
<path d="M767.962 695.75H766.888C740.032 685.306 723.978 675.16 715.623 662.926C709.082 664.165 702.317 663.243 696.346 660.3C689.352 656.877 683.551 651.428 679.695 644.663C677.669 646.219 675.283 647.236 672.758 647.622C670.233 648.008 667.651 647.75 665.253 646.872C657.898 644.12 651.621 639.078 647.349 632.489C644.676 634.48 641.354 635.395 638.039 635.055C620.135 633.623 596.263 598.292 594.532 560.694C594.514 559.9 594.802 559.13 595.334 558.542C595.867 557.953 596.605 557.592 597.397 557.531C597.789 557.515 598.18 557.576 598.548 557.711C598.916 557.847 599.254 558.053 599.542 558.32C599.831 558.586 600.063 558.906 600.228 559.262C600.392 559.618 600.485 560.003 600.5 560.395C602.171 596.203 625.028 628.013 638.576 629.087C639.562 629.198 640.559 629.112 641.512 628.836C642.464 628.559 643.353 628.097 644.126 627.476C639.459 618.967 636.527 609.616 635.503 599.965C634.478 590.314 635.381 580.556 638.158 571.257C643.291 553.353 647.826 546.311 653.317 547.385C663.582 549.951 662.209 589.161 656.778 614.764C655.955 619.381 654.253 623.798 651.765 627.774C655.283 633.674 660.594 638.295 666.924 640.963C668.611 641.606 670.447 641.75 672.213 641.38C673.98 641.01 675.603 640.14 676.89 638.875C672.235 627.356 670.922 611.601 677.607 591.548C685.962 565.11 689.543 564.394 691.393 563.916C692.089 563.77 692.811 563.815 693.483 564.046C694.156 564.277 694.753 564.686 695.212 565.229C700.762 571.496 694.138 612.556 687.215 632.847C686.404 635.289 685.281 637.616 683.873 639.77C687.075 646.225 692.291 651.462 698.733 654.69C702.959 656.744 707.657 657.63 712.34 657.256C711.803 656.122 711.326 654.988 710.848 653.795C706.134 640.963 708.461 626.222 717.95 608.557C724.217 596.919 729.349 591.429 734.124 591.429C735.391 591.446 736.627 591.826 737.685 592.524C738.742 593.222 739.578 594.209 740.092 595.368C745.284 604.976 741.524 636.666 731.259 652.422C728.855 656.034 725.513 658.922 721.591 660.777C729.588 671.281 744.806 680.531 769.335 689.961C769.703 690.093 770.04 690.298 770.327 690.563C770.614 690.829 770.846 691.149 771.007 691.505C771.168 691.861 771.257 692.246 771.267 692.637C771.277 693.027 771.208 693.416 771.065 693.78C770.834 694.402 770.405 694.931 769.845 695.286C769.284 695.642 768.623 695.804 767.962 695.75ZM734.064 597.457C734.064 597.457 730.662 597.457 723.142 611.481C714.489 627.476 712.281 640.665 716.399 651.765C716.898 653.14 717.496 654.476 718.189 655.764C721.422 654.428 724.17 652.138 726.067 649.199C734.422 636.428 738.42 610.168 735.317 599.903C734.899 597.815 734.064 597.457 734.064 597.457ZM691.214 572.331C687.983 579.126 685.309 586.171 683.216 593.398C678.639 605.923 677.851 619.518 680.949 632.489L681.486 630.937C687.753 612.02 691.094 592.257 691.393 572.331H691.214ZM651.944 553.532C650.93 554.427 648.005 558.187 643.887 572.749C639.017 589.091 640.553 606.675 648.184 621.925C649.409 619.257 650.31 616.452 650.87 613.57C657.256 584.267 655.465 557.769 652.123 553.532H651.944Z" fill="#263238"/>
<path d="M994.866 1008.59C985.325 1008.68 975.931 1006.23 967.652 1001.49C966.97 1001.08 966.476 1000.42 966.275 999.65C966.075 998.881 966.183 998.063 966.578 997.372C966.774 997.036 967.036 996.742 967.348 996.508C967.66 996.274 968.015 996.105 968.393 996.011C968.771 995.916 969.164 995.898 969.549 995.958C969.935 996.017 970.304 996.153 970.636 996.358C991.942 1008.83 1019.45 1000.12 1025.12 990.987C1025.53 990.414 1025.82 989.765 1025.98 989.078C1026.13 988.391 1026.15 987.68 1026.02 986.988C1015.12 987.614 1004.34 984.544 995.403 978.275C980.185 968.786 978.991 965.921 979.11 963.653C979.139 963.001 979.343 962.37 979.7 961.824C980.057 961.278 980.554 960.838 981.139 960.55C987.107 957.566 1014.02 969.919 1025.24 977.32C1026.59 978.213 1027.83 979.254 1028.94 980.423C1033.35 979.423 1037.33 977.039 1040.28 973.62C1041.95 971.664 1043.15 969.359 1043.8 966.876H1042.61C1033.06 967.831 1023.51 963.713 1013.31 954.283C1006.26 947.838 1003.58 943.362 1004.47 939.841C1004.75 938.851 1005.29 937.96 1006.06 937.273C1006.82 936.585 1007.76 936.13 1008.77 935.962C1017.01 933.873 1037.42 942.586 1045.71 951.717C1047.56 953.702 1048.88 956.126 1049.53 958.759C1057.35 955.119 1065.59 946.823 1075.31 933.276C1075.54 932.953 1075.83 932.678 1076.16 932.468C1076.49 932.257 1076.87 932.114 1077.25 932.047C1077.64 931.981 1078.04 931.992 1078.42 932.08C1078.81 932.168 1079.17 932.331 1079.49 932.56C1080.13 933.026 1080.56 933.724 1080.7 934.503C1080.83 935.283 1080.66 936.085 1080.21 936.737C1068.93 952.493 1059.5 961.445 1050.07 965.085C1049.58 969.496 1047.77 973.657 1044.88 977.021C1041.44 981.017 1036.92 983.939 1031.87 985.436C1032.15 986.861 1032.15 988.327 1031.86 989.751C1031.58 991.175 1031.01 992.528 1030.2 993.732C1025.18 1002.27 1010.74 1008.59 994.866 1008.59ZM989.554 967.174C991.583 968.666 994.448 970.636 998.566 973.142C1004.98 977.471 1012.36 980.175 1020.05 981.02C1010.45 975.26 1000.21 970.614 989.554 967.174ZM1010.38 941.81C1012.1 945.038 1014.48 947.865 1017.37 950.106C1026.2 958.282 1034.25 962.042 1042.01 961.087H1043.92C1043.5 959.233 1042.59 957.525 1041.3 956.133C1032.94 946.704 1014.56 940.855 1010.38 941.81Z" fill="#263238"/>
<path d="M1073.88 1000.42L980.9 1017.31L896.453 556.456L717.055 589.042L424.623 1108.26L456.015 1279.6L831.104 1211.5L856.766 1351.63L1036.16 1318.93L1010.5 1178.8L1103.48 1161.91L1073.88 1000.42ZM603.305 1086.18L758.473 814.214L801.741 1050.19L603.305 1086.18Z" fill="#3FBDF1"/>
<path d="M1822.81 525.184C1819.98 496.214 1813.57 467.707 1803.71 440.319C1793.57 414.085 1779.48 389.552 1761.93 367.569C1741.16 341.994 1715.37 320.951 1686.14 305.741C1654.31 288.274 1612.1 276.12 1559.5 269.276C1450.28 255.033 1365.18 274.409 1304.19 327.405C1243.19 380.4 1203.01 481.856 1183.63 631.773C1175.9 687.801 1173.9 744.472 1177.67 800.906C1181.64 852.628 1191.15 894.265 1206.19 925.816C1225.33 968.364 1255.52 1005.01 1293.62 1031.93C1331.3 1058.39 1383.02 1075.87 1448.79 1084.39C1565.69 1099.62 1652.36 1077.16 1708.82 1017.01C1765.27 956.85 1802.67 855.195 1821.02 712.042C1829.17 650.058 1829.77 587.313 1822.81 525.184Z" fill="#3FBDF1"/>
<path d="M1502.56 1023.09C1488.18 1022.62 1472.72 1021.3 1457.15 1019.27C1402.48 1012.17 1360.23 998.327 1331.46 978.155C1302.77 957.899 1280.09 930.268 1265.81 898.184L1265.51 897.528C1254.06 873.656 1246.54 839.34 1243.25 796.072C1239.78 744.098 1241.62 691.906 1248.74 640.307C1270.05 474.874 1314.03 405.824 1347.16 377.058C1385.83 343.518 1438.05 328.359 1506.68 330.747C1520.77 331.224 1535.69 332.477 1551.02 334.447C1595.07 340.415 1629.98 349.964 1654.69 363.451C1676.04 374.446 1694.94 389.652 1710.25 408.152C1723.65 424.86 1734.41 443.516 1742.18 463.475C1750.11 485.73 1755.24 508.884 1757.46 532.405C1763.82 589.398 1763.24 646.953 1755.73 703.806C1739.19 832.357 1707.21 922.713 1660.72 972.366C1626.22 1009.13 1574.48 1026.08 1502.5 1023.33L1502.56 1023.09Z" fill="#263238"/>
<path d="M1619.36 526.915L1620.13 504.296L1606.23 499.76C1605.64 492.11 1604.4 484.524 1602.53 477.082L1614.46 468.369L1606.47 447.123L1591.9 448.316C1588.48 441.488 1584.49 434.96 1579.97 428.801L1587.49 416.208L1571.97 399.677L1558.96 406.361C1553.14 401.356 1546.91 396.845 1540.34 392.874L1542.43 378.431L1521.78 369.061L1512.35 380.162C1505.05 377.795 1497.56 376.039 1489.97 374.91L1486.45 360.766L1463.77 359.99L1459.3 373.836C1451.65 374.448 1444.06 375.685 1436.62 377.536L1427.84 365.6L1406.6 373.537L1407.79 388.099C1400.96 391.526 1394.44 395.519 1388.28 400.035L1375.74 392.456L1359.15 407.913L1365.84 420.983C1360.82 426.8 1356.32 433.051 1352.41 439.663L1337.97 437.455L1328.54 458.104L1339.7 467.533C1337.27 474.84 1335.52 482.35 1334.44 489.973L1320.24 493.554L1319.46 516.113L1333.37 520.648C1333.95 528.319 1335.19 535.927 1337.07 543.387L1325.13 552.04L1333.13 573.286L1347.69 572.093C1351.08 578.94 1355.08 585.471 1359.63 591.608L1352.05 604.2L1367.57 620.732L1380.58 614.107C1386.4 619.093 1392.63 623.585 1399.2 627.535L1397.05 641.978L1417.7 651.348L1427.19 640.307C1434.51 642.66 1442.02 644.397 1449.63 645.499L1453.15 659.703L1475.77 660.479L1480.24 646.573C1487.91 645.991 1495.52 644.753 1502.98 642.873L1511.63 654.809L1532.88 646.872L1531.75 632.369C1538.55 628.898 1545.07 624.908 1551.26 620.433L1563.79 627.953L1580.39 612.496L1573.76 599.426C1578.76 593.628 1583.23 587.397 1587.13 580.806L1601.57 582.954L1611 562.305L1599.9 552.876C1602.28 545.58 1604.01 538.092 1605.09 530.496L1619.36 526.915ZM1466.58 600.142C1448.9 599.496 1431.81 593.628 1417.47 583.279C1403.12 572.93 1392.16 558.563 1385.98 541.992C1379.79 525.421 1378.65 507.388 1382.71 490.171C1386.76 472.953 1395.82 457.322 1408.75 445.25C1421.68 433.179 1437.89 425.208 1455.35 422.343C1472.8 419.479 1490.71 421.85 1506.82 429.156C1522.93 436.463 1536.51 448.378 1545.86 463.397C1555.2 478.417 1559.88 495.867 1559.32 513.547C1558.94 525.33 1556.24 536.924 1551.37 547.661C1546.5 558.398 1539.56 568.067 1530.94 576.113C1522.32 584.16 1512.2 590.424 1501.15 594.548C1490.11 598.672 1478.36 600.573 1466.58 600.142Z" fill="#3FBDF1"/>
<path opacity="0.3" d="M1713.53 942.168L1715.2 926.89L1706.01 923.19C1706 917.991 1705.56 912.801 1704.7 907.673L1712.99 902.362L1708.76 887.621H1698.85C1696.89 882.826 1694.51 878.213 1691.75 873.835L1697.36 865.718L1687.81 853.782L1678.68 857.602C1674.98 853.941 1670.99 850.588 1666.74 847.576L1668.95 837.907L1655.52 830.507L1648.48 837.609C1643.68 835.635 1638.73 834.058 1633.68 832.894L1632.01 823.166L1616.79 821.436L1613.03 830.626C1607.85 830.651 1602.67 831.13 1597.57 832.059L1592.26 823.584L1577.52 827.941V837.848C1572.73 839.828 1568.11 842.224 1563.73 845.009L1555.62 839.041L1543.68 848.59L1547.5 857.721C1543.86 861.425 1540.53 865.416 1537.54 869.657L1527.87 867.509L1520.53 880.937L1527.57 887.919C1525.57 892.726 1523.99 897.698 1522.85 902.78L1513.07 904.391L1511.46 919.609L1520.59 923.429C1520.59 928.592 1521.05 933.744 1521.96 938.826L1513.54 944.138L1517.84 958.879H1527.81C1529.8 963.65 1532.2 968.242 1534.97 972.605L1529 980.722L1538.55 992.658L1547.8 988.778C1551.47 992.451 1555.47 995.786 1559.74 998.745L1557.65 1008.59L1571.08 1015.93L1578.06 1008.95C1582.86 1010.88 1587.81 1012.41 1592.86 1013.55L1594.59 1023.33L1609.81 1025L1613.51 1015.87C1618.79 1015.87 1624.06 1015.43 1629.26 1014.56L1634.58 1022.98L1649.26 1018.68V1008.77C1654.05 1006.75 1658.68 1004.36 1663.1 1001.61L1671.1 1007.58L1683.04 997.969L1679.16 988.838C1682.83 985.137 1686.21 981.145 1689.24 976.902L1698.85 979.051L1706.25 965.623L1699.21 958.7C1701.13 953.895 1702.66 948.946 1703.8 943.899L1713.53 942.168ZM1636.72 936.2C1634.2 940.821 1630.36 944.589 1625.69 947.027C1621.02 949.465 1615.74 950.464 1610.5 949.898C1605.27 949.332 1600.32 947.225 1596.28 943.845C1592.24 940.465 1589.3 935.963 1587.82 930.909C1586.34 925.855 1586.4 920.476 1587.97 915.453C1589.55 910.429 1592.59 905.987 1596.69 902.688C1600.8 899.39 1605.79 897.382 1611.03 896.92C1616.28 896.459 1621.54 897.563 1626.16 900.094C1632.33 903.496 1636.91 909.203 1638.89 915.968C1640.87 922.734 1640.09 930.007 1636.72 936.2Z" fill="#3FBDF1"/>
<path d="M1798.1 684.231L1780.19 671.937C1778.43 665.546 1776.03 659.348 1773.03 653.436L1777.57 635.532L1751.79 607.901L1733.88 611.243C1728.2 607.861 1722.21 605.043 1715.98 602.828L1704.94 584.208L1667.16 582.954L1654.87 600.858C1648.47 602.593 1642.27 604.994 1636.37 608.02L1618.46 603.425L1590.83 629.266L1594.17 647.17C1590.74 652.824 1587.92 658.825 1585.76 665.074L1567.2 676.115L1565.88 713.892L1583.79 726.186C1585.52 732.625 1587.92 738.865 1590.95 744.807L1586.41 762.711L1612.2 790.342L1630.1 787.06C1635.78 790.436 1641.78 793.254 1648 795.475L1658.98 814.035L1696.82 815.348L1709.06 797.444C1715.51 795.693 1721.77 793.294 1727.74 790.283L1745.64 794.818L1773.27 769.037L1769.99 751.133C1773.38 745.458 1776.2 739.461 1778.4 733.229L1796.96 722.188L1798.1 684.231ZM1680.35 741.644C1671.95 741.355 1663.82 738.582 1657 733.676C1650.18 728.77 1644.96 721.95 1642.01 714.079C1639.07 706.208 1638.52 697.64 1640.44 689.458C1642.36 681.277 1646.67 673.848 1652.81 668.114C1658.96 662.379 1666.66 658.595 1674.96 657.24C1683.25 655.885 1691.76 657.021 1699.41 660.503C1707.06 663.985 1713.51 669.657 1717.93 676.802C1722.36 683.947 1724.56 692.244 1724.27 700.643C1723.87 711.899 1719.02 722.536 1710.79 730.221C1702.55 737.906 1691.61 742.014 1680.35 741.644Z" fill="white"/>
<path d="M1927.66 382.668L1930.77 375.208C1932.88 374.019 1934.88 372.641 1936.74 371.09H1943.66L1951.77 359.154L1949.15 352.769C1950.15 350.642 1950.95 348.423 1951.54 346.144L1957.5 340.654L1955 326.629L1947.48 323.525C1946.3 321.409 1944.92 319.41 1943.36 317.557V310.634L1931.72 302.518L1925.28 305.204C1922.92 304.374 1920.48 303.813 1918 303.533L1912.51 297.565L1898.54 300.071L1895.38 307.591C1893.16 308.739 1891.06 310.098 1889.11 311.649H1882.25L1874.13 323.585L1876.76 329.971C1875.96 332.335 1875.4 334.774 1875.09 337.252L1869.12 342.802L1871.62 356.767L1879.14 359.87C1880.28 361.997 1881.64 363.998 1883.2 365.838V372.702L1895.14 380.818L1901.52 378.192C1903.91 378.968 1906.37 379.508 1908.87 379.804L1914.36 385.772L1927.66 382.668ZM1897.82 343.996C1897.26 340.882 1897.63 337.67 1898.89 334.768C1900.15 331.866 1902.25 329.403 1904.91 327.691C1907.57 325.979 1910.68 325.095 1913.85 325.152C1917.01 325.208 1920.09 326.201 1922.69 328.007C1925.29 329.812 1927.29 332.348 1928.45 335.293C1929.61 338.238 1929.86 341.461 1929.19 344.553C1928.51 347.645 1926.94 350.467 1924.66 352.662C1922.38 354.858 1919.5 356.328 1916.38 356.886C1912.22 357.618 1907.93 356.674 1904.45 354.26C1900.98 351.846 1898.59 348.157 1897.82 343.996Z" fill="#3FBDF1"/>
<path d="M1764.2 343.1L1759.61 339.221C1769.45 327.007 1781.62 316.865 1795.41 309.381L1798.22 314.633C1785.1 321.773 1773.54 331.45 1764.2 343.1Z" fill="#3FBDF1"/>
<path d="M1811.82 309.143L1809.5 303.652C1831.54 294.075 1855.63 290.216 1879.56 292.432L1878.96 298.4C1856.04 296.239 1832.93 299.935 1811.82 309.143Z" fill="#3FBDF1"/>
<path d="M1800.55 350.441L1795.65 347.099C1810.03 327.683 1830.96 314.135 1854.56 308.963L1855.69 314.931C1833.63 319.748 1814.06 332.355 1800.55 350.441Z" fill="#3FBDF1"/>
<path d="M1404.51 925.04C1403.7 925.016 1402.92 924.673 1402.36 924.085L1389.89 911.194C1383.53 910.618 1377.24 909.459 1371.09 907.733L1351.57 916.327C1351.14 916.562 1350.66 916.685 1350.17 916.685C1349.68 916.685 1349.2 916.562 1348.77 916.327L1316.06 894.663C1315.64 894.385 1315.3 894.003 1315.07 893.553C1314.84 893.103 1314.73 892.601 1314.75 892.097V870.851C1310.76 865.858 1307.24 860.503 1304.25 854.856L1287.48 848.411C1287.01 848.229 1286.59 847.931 1286.27 847.545C1285.94 847.159 1285.72 846.697 1285.63 846.203L1277.87 807.769C1277.77 807.278 1277.79 806.769 1277.93 806.289C1278.08 805.809 1278.34 805.374 1278.7 805.024L1291.59 792.551C1292.21 786.197 1293.37 779.908 1295.06 773.751L1286.46 754.236C1286.23 753.806 1286.1 753.324 1286.1 752.833C1286.1 752.343 1286.23 751.861 1286.46 751.431L1308.13 718.726C1308.39 718.296 1308.78 717.946 1309.23 717.715C1309.68 717.484 1310.19 717.38 1310.69 717.413L1331.94 717.712C1336.92 713.7 1342.27 710.182 1347.93 707.208L1354.44 690.438C1354.61 689.973 1354.9 689.559 1355.27 689.235C1355.65 688.912 1356.1 688.689 1356.59 688.588L1395.02 680.83C1395.51 680.721 1396.02 680.741 1396.5 680.887C1396.98 681.034 1397.42 681.302 1397.77 681.665L1410.24 694.556C1416.62 695.138 1422.93 696.296 1429.1 698.017L1448.55 689.423C1448.99 689.188 1449.49 689.065 1449.99 689.065C1450.48 689.065 1450.98 689.188 1451.42 689.423L1484.06 711.087C1484.48 711.377 1484.82 711.761 1485.05 712.207C1485.29 712.652 1485.42 713.148 1485.43 713.654L1485.08 734.9C1489.09 739.891 1492.62 745.246 1495.64 750.894L1512.35 757.399C1512.82 757.571 1513.23 757.858 1513.55 758.234C1513.88 758.61 1514.1 759.062 1514.2 759.547L1522.02 797.981C1522.11 798.472 1522.08 798.978 1521.94 799.456C1521.79 799.934 1521.53 800.37 1521.18 800.727L1508.23 813.259C1507.64 819.596 1506.48 825.867 1504.77 831.999L1513.37 851.514C1513.6 851.955 1513.72 852.447 1513.72 852.947C1513.72 853.446 1513.6 853.938 1513.37 854.379L1492 886.785C1491.72 887.191 1491.34 887.522 1490.91 887.751C1490.47 887.979 1489.99 888.099 1489.49 888.098L1468.19 887.8C1463.19 891.757 1457.86 895.272 1452.25 898.303L1445.75 915.074C1445.57 915.546 1445.27 915.965 1444.89 916.289C1444.5 916.614 1444.04 916.832 1443.54 916.924L1405.11 925.04H1404.51ZM1370.91 901.168C1371.18 901.113 1371.47 901.113 1371.74 901.168C1378.19 903.045 1384.81 904.265 1391.5 904.809C1392.22 904.893 1392.89 905.207 1393.41 905.704L1405.34 918.237L1440.56 911.135L1446.88 894.782C1447.18 894.121 1447.68 893.576 1448.31 893.231C1454.28 890.148 1459.9 886.448 1465.08 882.19C1465.63 881.727 1466.34 881.492 1467.05 881.533L1487.76 881.832L1507.58 851.992L1499.22 833.014C1498.98 832.358 1498.98 831.64 1499.22 830.984C1501.07 824.532 1502.29 817.917 1502.86 811.23C1502.92 810.507 1503.24 809.83 1503.76 809.321L1516.29 797.385L1509.19 762.173L1492.89 755.847C1492.19 755.592 1491.62 755.08 1491.28 754.415C1488.19 748.462 1484.49 742.842 1480.24 737.645C1479.82 737.099 1479.59 736.427 1479.59 735.735V714.967L1449.75 695.153L1430.83 703.508C1430.15 703.749 1429.41 703.749 1428.74 703.508C1422.27 701.64 1415.63 700.421 1408.93 699.867C1408.21 699.783 1407.54 699.469 1407.02 698.972L1395.08 686.439L1359.87 693.601L1353.6 710.192C1353.35 710.876 1352.86 711.448 1352.23 711.803C1346.24 714.878 1340.6 718.579 1335.4 722.844C1335.14 723.077 1334.84 723.255 1334.51 723.368C1334.18 723.481 1333.84 723.526 1333.49 723.501L1312.78 723.202L1292.91 753.042L1301.26 772.021C1301.45 772.421 1301.55 772.86 1301.55 773.304C1301.55 773.748 1301.45 774.186 1301.26 774.587C1299.49 780.887 1298.34 787.342 1297.8 793.863C1297.75 794.588 1297.43 795.267 1296.91 795.773L1284.37 807.709L1291.53 842.92L1307.77 849.247C1308.49 849.547 1309.08 850.098 1309.44 850.798C1312.52 856.712 1316.2 862.292 1320.42 867.449C1320.86 867.985 1321.1 868.663 1321.08 869.359V890.127L1350.92 909.941L1369.89 901.586C1370.21 901.388 1370.55 901.246 1370.91 901.168ZM1400.21 881.832C1385.85 881.819 1371.75 877.914 1359.43 870.532C1347.11 863.15 1337.02 852.566 1330.23 839.907C1323.44 827.247 1320.21 812.985 1320.88 798.636C1321.54 784.286 1326.09 770.386 1334.03 758.414C1341.62 746.927 1352.06 737.608 1364.33 731.367C1376.61 725.126 1390.29 722.177 1404.04 722.809C1417.8 723.441 1431.15 727.631 1442.8 734.971C1454.45 742.31 1464 752.548 1470.5 764.682C1477.01 776.816 1480.26 790.43 1479.92 804.195C1479.59 817.96 1475.69 831.402 1468.61 843.209C1461.53 855.015 1451.5 864.781 1439.51 871.551C1427.52 878.321 1413.98 881.863 1400.21 881.832ZM1339.04 761.696C1331.01 773.816 1326.75 788.046 1326.8 802.587C1326.86 817.127 1331.22 831.325 1339.34 843.386C1347.46 855.447 1358.98 864.828 1372.43 870.345C1385.89 875.861 1400.67 877.265 1414.92 874.378C1429.18 871.491 1442.25 864.443 1452.5 854.126C1462.74 843.808 1469.7 830.685 1472.49 816.414C1475.28 802.143 1473.77 787.366 1468.16 773.951C1462.55 760.536 1453.09 749.085 1440.97 741.047C1432.94 735.668 1423.92 731.935 1414.43 730.061C1404.94 728.188 1395.18 728.212 1385.7 730.132C1376.23 732.051 1367.22 735.829 1359.22 741.247C1351.21 746.664 1344.35 753.614 1339.04 761.696Z" fill="white"/>
<path d="M2541.35 1054.25L2447.66 1041.6L2509.6 577.225L2328.89 552.876L1890.54 956.432L1867.51 1129.09L2245.22 1180.05L2226.36 1321.32L2407.07 1345.66L2425.93 1204.46L2519.63 1217.11L2541.35 1054.25ZM2067.38 990.27L2298.69 779.421L2266.95 1017.19L2067.38 990.27Z" fill="#3FBDF1"/>
<path d="M2352.17 1341.25H2351.39C2350.62 1341.1 2349.93 1340.66 2349.48 1340.01C2349.04 1339.36 2348.87 1338.56 2349 1337.79L2488.66 574.241C2488.81 573.474 2489.26 572.798 2489.91 572.354C2490.55 571.909 2491.34 571.73 2492.12 571.854C2492.89 571.999 2493.58 572.444 2494.02 573.093C2494.47 573.741 2494.64 574.54 2494.5 575.315L2355.15 1338.8C2355.01 1339.49 2354.64 1340.11 2354.1 1340.56C2353.55 1341 2352.87 1341.25 2352.17 1341.25Z" fill="#263238"/>
<path d="M2475.71 587.072C2475.66 588.37 2475.1 589.596 2474.15 590.48C2473.19 591.364 2471.93 591.834 2470.63 591.787C2469.33 591.74 2468.11 591.178 2467.22 590.227C2466.34 589.276 2465.87 588.012 2465.92 586.714C2465.97 585.416 2466.53 584.19 2467.48 583.306C2468.43 582.422 2469.69 581.952 2470.99 581.999C2472.29 582.047 2473.51 582.608 2474.4 583.559C2475.28 584.511 2475.75 585.774 2475.71 587.072Z" fill="#263238"/>
<path d="M2455.83 690.319C2455.8 691.286 2455.47 692.22 2454.91 693.004C2454.34 693.788 2453.55 694.387 2452.65 694.724C2451.74 695.061 2450.75 695.121 2449.81 694.898C2448.87 694.674 2448.02 694.177 2447.36 693.468C2446.7 692.759 2446.26 691.871 2446.11 690.916C2445.96 689.961 2446.09 688.981 2446.49 688.101C2446.89 687.221 2447.55 686.48 2448.37 685.972C2449.19 685.464 2450.15 685.211 2451.12 685.246C2451.76 685.269 2452.39 685.418 2452.98 685.686C2453.56 685.953 2454.09 686.334 2454.53 686.805C2454.96 687.276 2455.3 687.829 2455.53 688.432C2455.75 689.035 2455.86 689.676 2455.83 690.319Z" fill="#263238"/>
<path d="M2435.96 793.744C2435.94 794.387 2435.79 795.019 2435.52 795.604C2435.25 796.189 2434.87 796.715 2434.4 797.153C2433.93 797.591 2433.38 797.932 2432.77 798.156C2432.17 798.38 2431.53 798.483 2430.89 798.459C2430.25 798.443 2429.62 798.301 2429.03 798.04C2428.45 797.779 2427.92 797.404 2427.48 796.938C2427.04 796.471 2426.7 795.923 2426.48 795.323C2426.25 794.724 2426.15 794.085 2426.17 793.446C2426.19 792.798 2426.33 792.159 2426.59 791.568C2426.86 790.976 2427.24 790.442 2427.71 789.998C2428.18 789.554 2428.74 789.208 2429.34 788.98C2429.95 788.752 2430.6 788.647 2431.24 788.671C2432.54 788.733 2433.75 789.299 2434.64 790.247C2435.52 791.195 2435.99 792.45 2435.96 793.744Z" fill="#263238"/>
<path d="M2396.81 901.168C2396.68 902.365 2396.11 903.471 2395.21 904.275C2394.31 905.078 2393.15 905.522 2391.94 905.522C2390.74 905.522 2389.58 905.078 2388.68 904.275C2387.78 903.471 2387.21 902.365 2387.08 901.168C2387 900.484 2387.07 899.792 2387.28 899.136C2387.49 898.481 2387.84 897.877 2388.3 897.364C2388.76 896.852 2389.32 896.442 2389.95 896.161C2390.58 895.88 2391.26 895.735 2391.94 895.735C2392.63 895.735 2393.31 895.88 2393.94 896.161C2394.57 896.442 2395.13 896.852 2395.59 897.364C2396.05 897.877 2396.4 898.481 2396.61 899.136C2396.82 899.792 2396.88 900.484 2396.81 901.168Z" fill="#263238"/>
<path d="M2396.15 1000.06C2396.14 1000.7 2395.99 1001.34 2395.73 1001.93C2395.46 1002.52 2395.08 1003.05 2394.61 1003.49C2394.14 1003.92 2393.58 1004.27 2392.98 1004.49C2392.37 1004.71 2391.72 1004.8 2391.08 1004.77C2390.11 1004.74 2389.18 1004.41 2388.39 1003.85C2387.61 1003.28 2387.01 1002.49 2386.67 1001.59C2386.34 1000.68 2386.28 999.693 2386.5 998.752C2386.72 997.811 2387.22 996.956 2387.93 996.298C2388.64 995.639 2389.53 995.205 2390.48 995.051C2391.44 994.897 2392.42 995.029 2393.3 995.432C2394.18 995.834 2394.92 996.489 2395.43 997.312C2395.93 998.135 2396.19 999.091 2396.15 1000.06Z" fill="#263238"/>
<path d="M2376.28 1103.3C2376.25 1104.27 2375.94 1105.22 2375.38 1106.01C2374.82 1106.8 2374.04 1107.41 2373.13 1107.75C2372.23 1108.1 2371.24 1108.17 2370.29 1107.95C2369.35 1107.73 2368.49 1107.24 2367.82 1106.53C2367.16 1105.83 2366.72 1104.94 2366.56 1103.98C2366.4 1103.02 2366.53 1102.04 2366.93 1101.16C2367.33 1100.28 2367.99 1099.53 2368.81 1099.02C2369.64 1098.51 2370.59 1098.26 2371.56 1098.29C2372.85 1098.34 2374.07 1098.89 2374.95 1099.83C2375.83 1100.77 2376.31 1102.02 2376.28 1103.3Z" fill="#263238"/>
<path d="M2356.41 1206.55C2356.36 1207.85 2355.8 1209.09 2354.85 1209.98C2353.9 1210.87 2352.64 1211.36 2351.33 1211.33C2350.69 1211.3 2350.06 1211.15 2349.47 1210.88C2348.89 1210.62 2348.36 1210.24 2347.92 1209.77C2347.49 1209.29 2347.14 1208.74 2346.92 1208.14C2346.7 1207.54 2346.59 1206.89 2346.62 1206.25C2346.64 1205.61 2346.78 1204.98 2347.05 1204.39C2347.31 1203.8 2347.69 1203.28 2348.16 1202.84C2348.62 1202.39 2349.18 1202.05 2349.78 1201.82C2350.38 1201.6 2351.02 1201.49 2351.66 1201.51C2352.3 1201.53 2352.94 1201.67 2353.52 1201.94C2354.11 1202.2 2354.64 1202.58 2355.08 1203.05C2355.52 1203.51 2355.86 1204.07 2356.09 1204.67C2356.32 1205.27 2356.42 1205.91 2356.41 1206.55Z" fill="#263238"/>
<path d="M2336.47 1309.86C2336.44 1310.82 2336.11 1311.76 2335.55 1312.54C2334.98 1313.33 2334.19 1313.92 2333.29 1314.26C2332.38 1314.6 2331.39 1314.66 2330.45 1314.44C2329.51 1314.21 2328.66 1313.72 2328 1313.01C2327.34 1312.3 2326.9 1311.41 2326.75 1310.45C2326.6 1309.5 2326.73 1308.52 2327.13 1307.64C2327.53 1306.76 2328.19 1306.02 2329.01 1305.51C2329.83 1305 2330.79 1304.75 2331.76 1304.78C2332.4 1304.8 2333.04 1304.94 2333.63 1305.21C2334.22 1305.47 2334.74 1305.85 2335.18 1306.33C2335.62 1306.8 2335.96 1307.35 2336.19 1307.96C2336.41 1308.57 2336.5 1309.21 2336.47 1309.86Z" fill="#263238"/>
<path d="M2391.91 903.854C2391.24 903.854 2390.59 903.623 2390.07 903.199C2389.55 902.775 2389.19 902.184 2389.05 901.526C2388.96 901.142 2388.95 900.744 2389.02 900.356C2389.08 899.967 2389.23 899.596 2389.44 899.263C2389.65 898.93 2389.92 898.642 2390.25 898.416C2390.57 898.19 2390.93 898.03 2391.32 897.945L2406.12 894.782C2406.51 894.695 2406.91 894.686 2407.3 894.757C2407.69 894.827 2408.07 894.975 2408.4 895.192C2408.73 895.409 2409.02 895.69 2409.24 896.019C2409.47 896.349 2409.62 896.72 2409.7 897.11C2409.78 897.494 2409.78 897.89 2409.71 898.274C2409.63 898.659 2409.48 899.026 2409.26 899.353C2409.05 899.68 2408.77 899.961 2408.45 900.18C2408.12 900.399 2407.76 900.553 2407.37 900.631L2392.57 903.794L2391.91 903.854Z" fill="#263238"/>
<path d="M2441.39 848.888C2434.35 867.148 2428.37 885.799 2423.49 904.749C2419.01 925.816 2418.77 972.963 2418.77 972.963" fill="#263238"/>
<path d="M2418.77 975.947C2417.98 975.917 2417.23 975.585 2416.67 975.019C2416.12 974.453 2415.8 973.696 2415.79 972.903C2415.79 970.994 2416.14 925.159 2420.62 904.152C2425.48 885.038 2431.46 866.226 2438.52 847.814C2438.64 847.421 2438.84 847.058 2439.11 846.745C2439.38 846.433 2439.7 846.179 2440.07 845.999C2440.44 845.819 2440.84 845.718 2441.25 845.701C2441.66 845.683 2442.07 845.751 2442.46 845.899C2442.84 846.047 2443.19 846.273 2443.48 846.562C2443.77 846.851 2444 847.197 2444.15 847.578C2444.3 847.959 2444.38 848.368 2444.36 848.778C2444.35 849.189 2444.25 849.592 2444.07 849.963C2437.04 868.082 2431.06 886.594 2426.17 905.405C2421.81 925.935 2421.52 972.486 2421.46 972.963C2421.46 973.705 2421.19 974.422 2420.69 974.974C2420.19 975.526 2419.51 975.873 2418.77 975.947Z" fill="#263238"/>
<path d="M1327.58 1491.05C1335.88 1357.36 1320.66 1114.29 1571.97 1146.51C1841.31 1180.95 1764.26 1495.94 1764.26 1495.94L1327.58 1491.05Z" fill="#263238"/>
<path d="M1501.01 1410.72C1561.59 1410.72 1610.7 1361.61 1610.7 1301.02C1610.7 1240.44 1561.59 1191.33 1501.01 1191.33C1440.43 1191.33 1391.32 1240.44 1391.32 1301.02C1391.32 1361.61 1440.43 1410.72 1501.01 1410.72Z" fill="white"/>
<path d="M1515.45 1191.51C1463.47 1182.68 1408.03 1220.93 1402.48 1259.73L1608.44 1278.7C1601.15 1234.48 1556.63 1198.55 1515.45 1191.51Z" fill="#263238"/>
<path d="M1584.98 1298.28C1583.49 1326.99 1567.85 1349.48 1550.07 1348.53C1532.28 1347.57 1519.03 1323.64 1520.23 1294.82C1521.42 1265.99 1537.36 1243.61 1555.14 1244.57C1572.93 1245.52 1586.41 1269.63 1584.98 1298.28Z" fill="#263238"/>
<path d="M1501.01 1416.68C1478.14 1416.68 1455.77 1409.9 1436.75 1397.19C1417.73 1384.48 1402.91 1366.42 1394.16 1345.29C1385.4 1324.15 1383.11 1300.9 1387.57 1278.46C1392.04 1256.02 1403.05 1235.42 1419.23 1219.24C1435.4 1203.07 1456.01 1192.05 1478.45 1187.59C1500.88 1183.12 1524.14 1185.41 1545.27 1194.17C1566.41 1202.92 1584.47 1217.75 1597.18 1236.77C1609.89 1255.79 1616.67 1278.15 1616.67 1301.02C1616.64 1331.69 1604.44 1361.09 1582.76 1382.77C1561.08 1404.46 1531.68 1416.65 1501.01 1416.68ZM1501.01 1197.36C1480.49 1197.36 1460.44 1203.44 1443.38 1214.84C1426.32 1226.24 1413.03 1242.45 1405.18 1261.4C1397.33 1280.36 1395.28 1301.22 1399.29 1321.34C1403.29 1341.46 1413.18 1359.95 1427.69 1374.45C1442.2 1388.95 1460.69 1398.83 1480.81 1402.82C1500.94 1406.82 1521.79 1404.75 1540.75 1396.9C1559.7 1389.04 1575.89 1375.73 1587.28 1358.67C1598.67 1341.6 1604.75 1321.54 1604.74 1301.02C1604.7 1273.53 1593.76 1247.17 1574.32 1227.74C1554.87 1208.3 1528.51 1197.38 1501.01 1197.36Z" fill="#3FBDF1"/>
<path opacity="0.3" d="M1733.64 1487.7H1732.93C1732.54 1487.62 1732.18 1487.46 1731.86 1487.23C1731.54 1487 1731.27 1486.72 1731.06 1486.38C1730.86 1486.05 1730.72 1485.68 1730.66 1485.29C1730.6 1484.9 1730.62 1484.5 1730.72 1484.12C1730.72 1483.35 1749.94 1402.42 1730.18 1320.6C1729.99 1319.81 1730.12 1318.97 1730.55 1318.28C1730.98 1317.59 1731.66 1317.09 1732.45 1316.9C1733.24 1316.71 1734.08 1316.84 1734.77 1317.27C1735.46 1317.69 1735.96 1318.38 1736.15 1319.17C1756.26 1402.72 1736.87 1484.72 1736.69 1485.5C1736.51 1486.16 1736.11 1486.74 1735.56 1487.14C1735 1487.54 1734.33 1487.74 1733.64 1487.7Z" fill="white"/>
<path opacity="0.3" d="M1716.99 1275.72C1716.42 1275.71 1715.86 1275.55 1715.38 1275.24C1714.89 1274.94 1714.5 1274.5 1714.25 1273.99C1706.83 1257.59 1697.32 1242.23 1685.96 1228.27C1685.47 1227.66 1685.23 1226.88 1685.31 1226.1C1685.39 1225.32 1685.77 1224.6 1686.38 1224.1C1686.68 1223.84 1687.03 1223.65 1687.41 1223.53C1687.79 1223.42 1688.19 1223.38 1688.58 1223.42C1688.98 1223.46 1689.36 1223.57 1689.71 1223.76C1690.06 1223.95 1690.37 1224.21 1690.61 1224.51C1702.26 1238.87 1712.02 1254.66 1719.68 1271.48C1719.85 1271.83 1719.95 1272.22 1719.97 1272.61C1719.99 1273 1719.93 1273.39 1719.79 1273.75C1719.66 1274.12 1719.45 1274.46 1719.19 1274.74C1718.92 1275.03 1718.6 1275.26 1718.25 1275.42C1717.85 1275.6 1717.43 1275.71 1716.99 1275.72Z" fill="white"/>
<path d="M768.26 2118.16H766.052C758.138 2117.94 750.636 2114.58 745.197 2108.83C739.758 2103.08 736.826 2095.4 737.048 2087.49C737.269 2079.57 740.626 2072.07 746.379 2066.63C752.131 2061.19 759.809 2058.26 767.723 2058.48H768.26C785.508 2058.48 826.986 2037.53 913.76 1900.75C916.064 1897.12 919.125 1894.02 922.735 1891.68C926.345 1889.35 930.418 1887.81 934.675 1887.2C938.932 1886.58 943.273 1886.89 947.399 1888.11C951.525 1889.32 955.339 1891.42 958.58 1894.24C1026.73 1952.83 1101.05 2003.81 1180.23 2046.31C1183.9 2047.97 1187.19 2050.37 1189.9 2053.34C1192.62 2056.31 1194.7 2059.8 1196.04 2063.6C1197.37 2067.4 1197.92 2071.42 1197.65 2075.44C1197.39 2079.46 1196.31 2083.38 1194.49 2086.97C1192.67 2090.56 1190.14 2093.75 1187.05 2096.33C1183.97 2098.92 1180.39 2100.86 1176.54 2102.02C1172.69 2103.19 1168.64 2103.57 1164.64 2103.13C1160.64 2102.7 1156.77 2101.46 1153.26 2099.48C1079.66 2060.38 1010.1 2014.12 945.57 1961.38C872.82 2070.9 818.869 2118.16 768.26 2118.16Z" fill="#263238"/>
<path d="M952.91 1888.87H950.344C945.654 1888.19 941.425 1885.68 938.584 1881.89C935.742 1878.1 934.52 1873.33 935.185 1868.64C939.422 1838.8 934.17 1727.62 896.512 1641.08C894.842 1637.26 894.56 1632.97 895.715 1628.96C896.87 1624.95 899.39 1621.47 902.838 1619.12C984.6 1563.44 1158.75 1556.75 1166.15 1556.51C1168.5 1556.44 1170.84 1556.82 1173.04 1557.65C1175.25 1558.48 1177.26 1559.73 1178.98 1561.34C1180.7 1562.94 1182.08 1564.87 1183.06 1567.02C1184.03 1569.16 1184.57 1571.47 1184.65 1573.82C1184.73 1576.17 1184.34 1578.52 1183.51 1580.72C1182.69 1582.92 1181.43 1584.94 1179.83 1586.66C1178.22 1588.37 1176.29 1589.76 1174.15 1590.73C1172 1591.7 1169.69 1592.24 1167.34 1592.32C1165.73 1592.32 1013.49 1598.29 935.304 1641.26C968.606 1727.44 976.185 1834.8 970.635 1873.65C969.992 1877.89 967.849 1881.76 964.597 1884.55C961.344 1887.34 957.197 1888.88 952.91 1888.87Z" fill="#263238"/>
<path d="M982.989 1865.72C971.053 1837.61 917.341 1840.77 885.89 1864.88C869.06 1877.71 846.262 1916.44 844.114 1930.53C843.397 1933.88 843.504 1937.35 844.426 1940.64C845.348 1943.94 847.056 1946.96 849.405 1949.45C851.753 1951.94 854.671 1953.82 857.908 1954.93C861.145 1956.04 864.603 1956.35 867.986 1955.83C888.575 1954.04 916.804 1924.14 916.804 1924.14C898.005 1942.58 922.295 1955.59 958.58 1928.92C978.394 1914.06 996.298 1897.17 982.989 1865.72Z" fill="#3FBDF1"/>
<path d="M2009.48 1498.92C2009.21 1498.98 2008.92 1498.98 2008.65 1498.92C2008.27 1498.82 2007.91 1498.64 2007.6 1498.4C2007.29 1498.15 2007.04 1497.85 2006.85 1497.51C2006.66 1497.16 2006.54 1496.78 2006.5 1496.39C2006.46 1496 2006.5 1495.6 2006.62 1495.22C2014.56 1467.53 2023.21 1450.64 2034.61 1441.51C2032.82 1435.09 2033.16 1428.27 2035.57 1422.06C2038.35 1414.8 2043.26 1408.56 2049.65 1404.15C2047.91 1402.27 2046.68 1399.99 2046.06 1397.5C2045.45 1395.02 2045.47 1392.42 2046.13 1389.95C2048.29 1382.47 2052.76 1375.87 2058.9 1371.09C2056.69 1368.61 2055.47 1365.4 2055.5 1362.08C2055.5 1344.17 2088.38 1317.2 2125.68 1312.06C2126.47 1311.95 2127.28 1312.16 2127.91 1312.64C2128.55 1313.12 2128.97 1313.84 2129.08 1314.63C2129.19 1315.42 2128.99 1316.23 2128.51 1316.86C2128.02 1317.5 2127.31 1317.92 2126.52 1318.03C2091.07 1322.87 2061.35 1348.53 2061.47 1362.08C2061.45 1364.1 2062.22 1366.04 2063.61 1367.51C2071.64 1362.06 2080.67 1358.27 2090.18 1356.36C2099.69 1354.44 2109.49 1354.44 2119 1356.35C2137.32 1359.87 2144.78 1363.75 2143.94 1369.3C2142.27 1379.74 2103.3 1381.95 2077.16 1378.85C2072.48 1378.42 2067.92 1377.1 2063.73 1374.97C2058.11 1378.97 2053.92 1384.69 2051.8 1391.26C2051.29 1393 2051.29 1394.85 2051.81 1396.59C2052.33 1398.32 2053.34 1399.87 2054.72 1401.05C2065.82 1395.08 2081.4 1392.93 2101.99 1397.47C2129.02 1403.44 2130.04 1406.72 2130.7 1408.69C2130.91 1409.38 2130.92 1410.12 2130.74 1410.83C2130.56 1411.53 2130.2 1412.17 2129.68 1412.69C2124.01 1418.65 2082.53 1415.85 2061.7 1410.72C2059.19 1410.14 2056.76 1409.24 2054.48 1408.03C2048.32 1411.78 2043.57 1417.47 2041 1424.2C2039.27 1428.56 2038.8 1433.32 2039.62 1437.93C2040.69 1437.29 2041.78 1436.72 2042.91 1436.2C2055.26 1430.23 2070.18 1431.31 2088.62 1439.18C2100.56 1444.38 2106.52 1449.03 2107.12 1453.75C2107.15 1454.95 2106.84 1456.15 2106.25 1457.2C2105.65 1458.25 2104.77 1459.12 2103.72 1459.71C2094.59 1465.68 2062.72 1464.85 2046.13 1456.01C2042.31 1453.94 2039.14 1450.87 2036.94 1447.12C2027.21 1456.07 2019.33 1472.01 2012.17 1497.01C2011.95 1497.56 2011.58 1498.02 2011.11 1498.36C2010.63 1498.7 2010.07 1498.9 2009.48 1498.92ZM2041.83 1443.24C2043.49 1446.33 2046.02 1448.86 2049.11 1450.52C2062.6 1457.68 2089.1 1459.3 2099 1455.3C2101.03 1454.46 2101.33 1453.81 2101.33 1453.81C2101.33 1453.81 2101.03 1450.46 2086.41 1444.2C2069.7 1437.03 2056.57 1436.02 2045.65 1441.09C2044.33 1441.73 2043.06 1442.45 2041.83 1443.24ZM2061.76 1404.03L2063.26 1404.45C2082.69 1408.93 2102.69 1410.44 2122.58 1408.93C2115.52 1406.31 2108.26 1404.31 2100.86 1402.96C2088 1399.48 2074.41 1399.85 2061.76 1404.03ZM2069.28 1370.49C2072.04 1371.48 2074.91 1372.12 2077.82 1372.4C2107.66 1375.92 2133.86 1371.8 2137.5 1368.04C2136.48 1367.15 2132.49 1364.58 2117.68 1361.78C2101.03 1358.46 2083.74 1361.57 2069.28 1370.49Z" fill="#263238"/>
<path d="M1232.57 2108.2C1236.51 2106.94 1235.2 2103.12 1230.78 2103.12H1149.97C996.119 2086.83 888.635 2108.67 956.372 2113.81C1024.11 2118.94 951.597 2117.86 902.123 2136.6C852.648 2155.34 1270.05 2160.06 1307.95 2136.6C1342.8 2115 1178.02 2125.68 1232.57 2108.2Z" fill="#263238"/>
<path d="M1811.11 2132.01L1108.08 2108.67L1078.89 1427.01L1909.1 1445.57L1811.11 2132.01Z" fill="#3FBDF1"/>
<path d="M1327.58 2118.94C1326.83 2118.94 1326.1 2118.66 1325.55 2118.15C1325 2117.64 1324.66 2116.94 1324.6 2116.19L1268.26 1431.54C1268.21 1430.76 1268.47 1429.98 1268.98 1429.38C1269.49 1428.78 1270.22 1428.4 1271 1428.32C1271.79 1428.29 1272.56 1428.55 1273.16 1429.06C1273.75 1429.57 1274.14 1430.29 1274.23 1431.07L1330.86 2115.72C1330.9 2116.11 1330.85 2116.5 1330.73 2116.88C1330.61 2117.25 1330.42 2117.6 1330.16 2117.9C1329.91 2118.2 1329.59 2118.44 1329.24 2118.62C1328.89 2118.8 1328.51 2118.91 1328.12 2118.94H1327.58Z" fill="#263238"/>
<path d="M1811.11 2132.01L2000.06 2103.24L2059.56 1469.38L1909.1 1445.57L1811.11 2132.01Z" fill="#3FBDF1"/>
<path opacity="0.2" d="M1811.11 2132.01L2000.06 2103.24L2059.56 1469.38L1909.1 1445.57L1811.11 2132.01Z" fill="black"/>
<path d="M1168.12 1977.32L1150.81 1572.27C1150.38 1562.26 1152.01 1552.28 1155.6 1542.93C1159.19 1533.57 1164.65 1525.06 1171.66 1517.9C1178.67 1510.75 1187.07 1505.11 1196.35 1501.33C1205.62 1497.55 1215.57 1495.72 1225.59 1495.94L1751.13 1507.88C1761.48 1508.11 1771.66 1510.53 1781 1514.99C1790.34 1519.45 1798.64 1525.83 1805.33 1533.73C1812.02 1541.62 1816.97 1550.85 1819.84 1560.79C1822.71 1570.74 1823.43 1581.18 1821.97 1591.43L1763.72 1999.28C1761.2 2017.14 1752.18 2033.45 1738.38 2045.07C1724.58 2056.69 1706.97 2062.8 1688.94 2062.24L1239.02 2047.32C1220.55 2046.75 1202.97 2039.22 1189.82 2026.24C1176.67 2013.25 1168.92 1995.78 1168.12 1977.32Z" fill="#263238"/>
<path d="M1224.93 1620.25L1306.22 1622.82L1305.56 1643.77L1254.65 1642.15L1254.17 1657.79L1301.38 1659.28L1300.73 1679.34L1253.52 1677.78L1252.92 1697.18L1305.26 1698.85L1304.54 1721.05L1221.77 1718.43L1224.93 1620.25Z" fill="white"/>
<path d="M1321.31 1721.59L1324.42 1623.42L1375.03 1625.03C1382.28 1624.99 1389.5 1626.04 1396.45 1628.13C1401.38 1629.78 1405.59 1633.06 1408.39 1637.44C1410.46 1640.63 1411.86 1644.21 1412.49 1647.96C1413.12 1651.71 1412.97 1655.54 1412.05 1659.23C1411.13 1662.92 1409.47 1666.39 1407.15 1669.4C1404.84 1672.42 1401.93 1674.93 1398.6 1676.77C1395.21 1678.52 1391.56 1679.72 1387.8 1680.35C1390.57 1681.24 1393.21 1682.53 1395.62 1684.17C1397.36 1685.79 1398.92 1687.59 1400.27 1689.54C1401.81 1691.4 1403.17 1693.4 1404.33 1695.51L1418.12 1724.45L1383.86 1723.32L1368.58 1692.82C1367.37 1689.91 1365.58 1687.27 1363.33 1685.07C1361.19 1683.52 1358.63 1682.64 1355.99 1682.56H1353.3L1352.05 1722.37L1321.31 1721.59ZM1353.66 1664.18L1366.43 1664.59C1369.14 1664.43 1371.84 1664.05 1374.49 1663.46C1376.49 1663.16 1378.3 1662.11 1379.56 1660.54C1380.85 1658.95 1381.59 1656.97 1381.65 1654.93C1381.76 1653.56 1381.57 1652.19 1381.09 1650.91C1380.6 1649.63 1379.84 1648.47 1378.85 1647.53C1375.52 1645.37 1371.58 1644.35 1367.63 1644.6L1354.26 1644.18L1353.66 1664.18Z" fill="white"/>
<path d="M1428.02 1724.75L1431.13 1626.58L1481.67 1628.19C1488.93 1628.15 1496.15 1629.19 1503.1 1631.29C1508.03 1632.93 1512.25 1636.21 1515.04 1640.6C1518.07 1645.39 1519.49 1651.01 1519.09 1656.66C1519.11 1661.42 1517.84 1666.1 1515.41 1670.2C1512.98 1674.29 1509.49 1677.66 1505.31 1679.93C1501.91 1681.67 1498.27 1682.88 1494.51 1683.51C1497.26 1684.4 1499.88 1685.69 1502.26 1687.33C1504.05 1688.9 1505.63 1690.69 1506.98 1692.64C1508.5 1694.51 1509.86 1696.51 1511.04 1698.61L1524.82 1727.5L1490.57 1726.42L1475.29 1695.93C1474.07 1693.02 1472.28 1690.38 1470.04 1688.17C1467.9 1686.56 1465.31 1685.68 1462.64 1685.66H1460.01L1458.7 1725.53L1428.02 1724.75ZM1460.31 1667.34L1473.14 1667.7C1475.85 1667.6 1478.55 1667.24 1481.2 1666.62C1483.18 1666.33 1484.98 1665.28 1486.21 1663.7C1487.55 1662.13 1488.29 1660.15 1488.3 1658.09C1488.43 1656.73 1488.25 1655.36 1487.77 1654.08C1487.3 1652.79 1486.54 1651.64 1485.55 1650.69C1482.23 1648.48 1478.26 1647.45 1474.27 1647.77L1460.97 1647.35L1460.31 1667.34Z" fill="white"/>
<path d="M1529.72 1679.16C1529.26 1672.31 1530.32 1665.44 1532.83 1659.05C1535.34 1652.66 1539.23 1646.9 1544.23 1642.19C1549.23 1637.48 1555.21 1633.94 1561.74 1631.82C1568.27 1629.7 1575.19 1629.05 1582 1629.92C1588.87 1629.69 1595.72 1630.85 1602.14 1633.32C1608.55 1635.79 1614.41 1639.53 1619.36 1644.3C1623.77 1649.39 1627.11 1655.31 1629.16 1661.73C1631.21 1668.14 1631.94 1674.9 1631.29 1681.6C1631.34 1691.35 1629.05 1700.97 1624.61 1709.65C1620.58 1716.76 1614.57 1722.52 1607.3 1726.24C1598.74 1730.34 1589.26 1732.15 1579.79 1731.5C1570.35 1731.58 1561.01 1729.54 1552.46 1725.53C1545.18 1721.58 1539.23 1715.55 1535.39 1708.22C1530.87 1699.23 1528.91 1689.18 1529.72 1679.16ZM1560.03 1680.23C1559.14 1687.75 1560.85 1695.36 1564.87 1701.78C1566.75 1703.88 1569.04 1705.58 1571.59 1706.77C1574.14 1707.97 1576.91 1708.64 1579.73 1708.75C1582.55 1708.86 1585.36 1708.39 1587.99 1707.39C1590.63 1706.39 1593.03 1704.86 1595.07 1702.91C1599.49 1696.21 1601.59 1688.24 1601.03 1680.23C1601.84 1673.04 1600.08 1665.79 1596.08 1659.76C1594.27 1657.68 1592.04 1656 1589.52 1654.86C1587.01 1653.72 1584.28 1653.13 1581.52 1653.14C1578.73 1652.94 1575.94 1653.37 1573.35 1654.4C1570.75 1655.44 1568.42 1657.04 1566.54 1659.1C1562.02 1665.2 1559.72 1672.65 1560.03 1680.23Z" fill="white"/>
<path d="M1646.63 1731.97L1649.73 1633.74L1700.28 1635.35C1707.54 1635.34 1714.76 1636.39 1721.71 1638.45C1726.62 1640.13 1730.82 1643.41 1733.64 1647.76C1736.66 1652.55 1738.08 1658.17 1737.7 1663.82C1737.73 1668.59 1736.46 1673.28 1734.04 1677.39C1731.61 1681.5 1728.11 1684.88 1723.92 1687.15C1720.5 1688.84 1716.87 1690.03 1713.11 1690.67C1715.88 1691.58 1718.49 1692.89 1720.87 1694.55C1722.66 1696.12 1724.24 1697.91 1725.59 1699.87C1727.12 1701.72 1728.48 1703.72 1729.65 1705.83L1743.43 1734.78L1709.18 1733.7L1693.9 1703.15C1692.68 1700.25 1690.9 1697.64 1688.65 1695.45C1686.5 1693.85 1683.92 1692.95 1681.25 1692.88H1678.62L1677.31 1732.75L1646.63 1731.97ZM1678.92 1674.5L1691.75 1674.92C1694.46 1674.82 1697.16 1674.46 1699.81 1673.85C1701.78 1673.53 1703.57 1672.48 1704.82 1670.92C1706.23 1669.26 1706.97 1667.13 1706.91 1664.95C1707.04 1663.6 1706.86 1662.24 1706.38 1660.97C1705.91 1659.69 1705.15 1658.55 1704.16 1657.61C1700.83 1655.41 1696.86 1654.38 1692.88 1654.69L1679.57 1654.27L1678.92 1674.5Z" fill="white"/>
<path d="M1694.91 1898.78C1693.79 1898.8 1692.68 1898.58 1691.65 1898.14C1690.62 1897.7 1689.7 1897.04 1688.94 1896.21L1637.86 1840.29L1582.71 1890.66C1581.19 1892.06 1579.16 1892.8 1577.09 1892.71C1575.02 1892.62 1573.07 1891.71 1571.67 1890.19L1520.59 1834.27L1465.44 1884.64C1463.91 1886.03 1461.89 1886.77 1459.82 1886.68C1457.75 1886.59 1455.8 1885.68 1454.4 1884.16L1403.26 1828.24L1348.17 1878.61C1347.37 1879.34 1346.42 1879.89 1345.4 1880.24C1344.37 1880.59 1343.28 1880.72 1342.2 1880.64C1340.13 1880.51 1338.18 1879.59 1336.77 1878.07L1285.69 1822.21L1230.6 1872.52C1229.06 1873.92 1227.03 1874.66 1224.95 1874.57C1222.87 1874.48 1220.91 1873.57 1219.5 1872.04C1218.8 1871.29 1218.26 1870.4 1217.91 1869.43C1217.56 1868.46 1217.41 1867.44 1217.46 1866.41C1217.51 1865.38 1217.76 1864.38 1218.21 1863.45C1218.65 1862.52 1219.27 1861.69 1220.04 1861L1280.91 1805.32C1282.45 1803.92 1284.48 1803.18 1286.56 1803.27C1288.64 1803.36 1290.6 1804.27 1292.01 1805.8L1343.1 1861.72L1398.18 1811.35C1399.75 1809.97 1401.77 1809.25 1403.85 1809.32C1405.93 1809.43 1407.88 1810.35 1409.28 1811.89L1460.37 1867.81L1515.51 1817.44C1516.27 1816.73 1517.15 1816.19 1518.12 1815.84C1519.08 1815.48 1520.11 1815.32 1521.13 1815.36C1522.16 1815.41 1523.17 1815.66 1524.1 1816.09C1525.03 1816.53 1525.86 1817.15 1526.55 1817.91L1577.64 1873.83L1632.78 1823.46C1634.31 1822.06 1636.33 1821.33 1638.4 1821.42C1640.47 1821.51 1642.42 1822.41 1643.83 1823.94L1700.88 1885.89C1701.9 1887.03 1702.56 1888.44 1702.8 1889.95C1703.03 1891.46 1702.81 1893.01 1702.18 1894.4C1701.55 1895.79 1700.52 1896.97 1699.23 1897.79C1697.94 1898.61 1696.44 1899.04 1694.91 1899.02V1898.78Z" fill="white"/>
<path d="M750.476 2146.51L713.116 2128.67L679.814 1966.52L697.897 1946.64L750.476 2146.51Z" fill="#3FBDF1"/>
<path d="M750.476 2146.51L800.07 2117.51L757.577 1983.94L697.897 1946.64L750.476 2146.51Z" fill="#3FBDF1"/>
<path opacity="0.2" d="M750.476 2146.51L800.07 2117.51L757.577 1983.94L697.897 1946.64L750.476 2146.51Z" fill="black"/>
<path d="M1563.62 2175.99H1559.5C1551.58 2175.78 1544.08 2172.43 1538.63 2166.68C1533.19 2160.94 1530.25 2153.26 1530.46 2145.35C1530.68 2137.43 1534.03 2129.93 1539.77 2124.48C1545.52 2119.04 1553.19 2116.1 1561.11 2116.31C1607.06 2117.8 1704.34 2089.58 1759.96 2035.63C1763.32 2032.33 1767.41 2029.88 1771.9 2028.46C1866.13 2000.18 1901.17 2057.29 1902.6 2059.74L1851.27 2090.11C1851.45 2090.49 1851.67 2090.85 1851.93 2091.19C1851.39 2090.41 1838.02 2073.28 1795.53 2083.79C1725.77 2147.41 1618.7 2175.99 1563.62 2175.99Z" fill="#263238"/>
<path d="M1559.98 2215.62L1451.3 2208.82L1442.76 2008.41L1588.8 2013.84L1559.98 2215.62Z" fill="#3FBDF1"/>
<path d="M1559.98 2215.62L1585.4 2190.32L1601.15 2065.41L1588.8 2013.84L1559.98 2215.62Z" fill="#3FBDF1"/>
<path opacity="0.2" d="M1559.98 2215.62L1585.4 2190.32L1601.15 2065.41L1588.8 2013.84L1559.98 2215.62Z" fill="black"/>
<path d="M2189.72 2139.77C2185.82 2139.76 2182.02 2138.48 2178.92 2136.13C2116.85 2088.98 2033 2005.25 2000.83 1924.5C2000.35 1923.33 2000.01 1922.11 1999.82 1920.86C1984.12 1827.52 1969.14 1631.11 1968.48 1622.82C1968.31 1620.47 1968.6 1618.1 1969.33 1615.87C1970.07 1613.63 1971.24 1611.55 1972.78 1609.77C1975.89 1606.16 1980.3 1603.93 1985.05 1603.57C1989.79 1603.22 1994.49 1604.76 1998.1 1607.87C2001.71 1610.97 2003.94 1615.38 2004.29 1620.13C2004.29 1622.1 2019.63 1820.42 2034.91 1912.98C2067.02 1991.52 2154.27 2072.15 2200.7 2107.6C2203.69 2109.87 2205.89 2113.02 2206.99 2116.61C2208.09 2120.19 2208.04 2124.04 2206.84 2127.59C2205.64 2131.15 2203.35 2134.23 2200.3 2136.42C2197.25 2138.6 2193.59 2139.78 2189.84 2139.77H2189.72Z" fill="#263238"/>
<path d="M2272.49 2148.78C2258.65 2148.78 2242.95 2142.51 2225.82 2130.16C2221.98 2127.37 2219.4 2123.17 2218.65 2118.48C2217.9 2113.79 2219.04 2109 2221.83 2105.15C2224.61 2101.31 2228.81 2098.72 2233.5 2097.97C2238.19 2097.22 2242.99 2098.37 2246.83 2101.15C2261.63 2111.84 2269.69 2113.09 2272.49 2113.09C2277.24 2113.09 2281.8 2114.98 2285.15 2118.33C2288.51 2121.69 2290.4 2126.25 2290.4 2130.99C2290.4 2135.74 2288.51 2140.3 2285.15 2143.65C2281.8 2147.01 2277.24 2148.9 2272.49 2148.9V2148.78Z" fill="#263238"/>
<path d="M2230.84 2129.62C2249.99 2072.75 2328.53 2083.97 2355.63 2092.44C2378.77 2099.16 2400.97 2108.78 2421.69 2121.09C2436.32 2130.64 2436.55 2146.69 2417.04 2155.82C2393.17 2167.04 2332.53 2157.07 2332.53 2157.07C2363.8 2170.74 2332.53 2192.88 2277.57 2171.16C2259.72 2164.12 2224.09 2150.51 2230.84 2129.62Z" fill="#3FBDF1"/>
<path d="M2040.22 1647.17C2033.12 1695.51 1993.07 1731.14 1960.49 1726.36C1927.9 1721.59 1926.59 1678.62 1933.69 1630.04C1940.79 1581.46 1953.68 1546.49 1986.27 1551.26C2018.85 1556.04 2047.32 1599.01 2040.22 1647.17Z" fill="#263238"/>
<path d="M1252.56 1454.4C1255.27 1454.4 1257.46 1452.21 1257.46 1449.51C1257.46 1446.81 1255.27 1444.61 1252.56 1444.61C1249.86 1444.61 1247.67 1446.81 1247.67 1449.51C1247.67 1452.21 1249.86 1454.4 1252.56 1454.4Z" fill="#263238"/>
<path d="M1302.28 1484.72C1302.28 1485.69 1301.99 1486.63 1301.45 1487.44C1300.91 1488.24 1300.15 1488.87 1299.26 1489.24C1298.36 1489.61 1297.38 1489.71 1296.43 1489.52C1295.48 1489.33 1294.61 1488.86 1293.92 1488.18C1293.24 1487.5 1292.77 1486.62 1292.58 1485.67C1292.39 1484.72 1292.49 1483.74 1292.86 1482.85C1293.23 1481.95 1293.86 1481.19 1294.66 1480.65C1295.47 1480.11 1296.42 1479.83 1297.38 1479.83C1298.68 1479.83 1299.93 1480.34 1300.84 1481.26C1301.76 1482.18 1302.28 1483.42 1302.28 1484.72Z" fill="#263238"/>
<path d="M1307.77 2063.02C1307.77 2063.99 1307.48 2064.93 1306.94 2065.74C1306.4 2066.54 1305.64 2067.17 1304.75 2067.54C1303.85 2067.91 1302.87 2068.01 1301.92 2067.82C1300.97 2067.63 1300.1 2067.16 1299.41 2066.48C1298.73 2065.79 1298.26 2064.92 1298.07 2063.97C1297.88 2063.02 1297.98 2062.04 1298.35 2061.15C1298.72 2060.25 1299.35 2059.49 1300.15 2058.95C1300.96 2058.41 1301.91 2058.12 1302.87 2058.12C1304.17 2058.12 1305.42 2058.64 1306.33 2059.56C1307.25 2060.48 1307.77 2061.72 1307.77 2063.02Z" fill="#263238"/>
<path d="M1352.59 2098.29C1352.59 2099.26 1352.3 2100.2 1351.76 2101.01C1351.22 2101.81 1350.46 2102.44 1349.57 2102.81C1348.67 2103.18 1347.69 2103.28 1346.74 2103.09C1345.79 2102.9 1344.92 2102.43 1344.23 2101.75C1343.55 2101.07 1343.08 2100.19 1342.89 2099.24C1342.71 2098.29 1342.8 2097.31 1343.17 2096.42C1343.54 2095.52 1344.17 2094.76 1344.97 2094.22C1345.78 2093.68 1346.73 2093.4 1347.69 2093.4C1348.99 2093.4 1350.24 2093.91 1351.15 2094.83C1352.07 2095.75 1352.59 2096.99 1352.59 2098.29Z" fill="#263238"/>
<path d="M492.42 2156.95C483.828 2156.55 475.436 2154.23 467.865 2150.15C460.293 2146.07 453.735 2140.34 448.674 2133.38C448.426 2133.06 448.246 2132.69 448.144 2132.3C448.043 2131.91 448.022 2131.5 448.083 2131.1C448.145 2130.7 448.287 2130.32 448.501 2129.97C448.715 2129.63 448.997 2129.33 449.33 2129.1C449.662 2128.87 450.038 2128.71 450.435 2128.63C450.832 2128.55 451.241 2128.55 451.637 2128.63C452.034 2128.71 452.409 2128.87 452.741 2129.11C453.073 2129.34 453.355 2129.64 453.568 2129.98C464.728 2146.09 489.376 2154.63 500.119 2149.55C501.195 2149.1 502.153 2148.4 502.924 2147.53C497.496 2145.14 492.739 2141.45 489.076 2136.78C485.412 2132.12 482.953 2126.63 481.916 2120.79C480.544 2113.21 479.469 2102.88 485.676 2101.57C494.27 2099.66 505.49 2120.37 509.548 2136.07C510.283 2138.66 510.546 2141.37 510.324 2144.06C513.766 2145.09 517.387 2145.37 520.947 2144.9C522.551 2144.78 524.112 2144.32 525.53 2143.56C526.948 2142.8 528.192 2141.75 529.183 2140.48C525.255 2137.52 521.997 2133.76 519.621 2129.45C517.246 2125.14 515.806 2120.38 515.397 2115.48C513.129 2099.12 514.86 2096.32 516.65 2094.89C517.23 2094.44 517.922 2094.17 518.65 2094.09C519.377 2094.02 520.11 2094.15 520.768 2094.47C527.154 2097.16 534.852 2120.31 536.344 2133.44C536.523 2134.81 536.523 2136.19 536.344 2137.56C538.917 2138.55 541.645 2139.07 544.401 2139.11C549.462 2139.31 554.467 2138 558.784 2135.35C557.949 2134.81 557.173 2134.22 556.397 2133.62C550.429 2128.31 547.684 2119.83 548.758 2107.78C549.593 2098.41 551.682 2093.28 555.442 2091.66C556.655 2091.18 557.983 2091.05 559.265 2091.31C560.547 2091.56 561.728 2092.18 562.663 2093.1C566.692 2097.55 569.703 2102.82 571.486 2108.55C573.269 2114.28 573.781 2120.33 572.988 2126.28C572.47 2128.76 571.432 2131.1 569.944 2133.14C580.925 2135.05 596.323 2131.95 609.631 2128.67C610.023 2128.57 610.43 2128.56 610.828 2128.62C611.226 2128.68 611.608 2128.82 611.951 2129.03C612.295 2129.24 612.594 2129.52 612.83 2129.85C613.067 2130.17 613.238 2130.54 613.332 2130.93C613.426 2131.33 613.442 2131.73 613.378 2132.13C613.315 2132.53 613.175 2132.91 612.964 2133.25C612.753 2133.6 612.477 2133.9 612.151 2134.13C611.825 2134.37 611.456 2134.54 611.064 2134.63C594.89 2138.63 577.464 2141.92 565.17 2138.33C559.169 2142.9 551.82 2145.33 544.282 2145.26C540.937 2145.21 537.625 2144.59 534.494 2143.41C533.106 2145.55 531.243 2147.35 529.05 2148.67C526.856 2149.98 524.39 2150.78 521.842 2150.99C517.356 2151.56 512.799 2151.18 508.474 2149.85C507.081 2152.2 504.996 2154.05 502.506 2155.16C499.305 2156.46 495.87 2157.07 492.42 2156.95ZM487.287 2107.54C486.462 2111.6 486.626 2115.79 487.765 2119.77C488.607 2124.55 490.587 2129.04 493.537 2132.89C496.488 2136.73 500.322 2139.81 504.714 2141.86C504.631 2140.44 504.39 2139.04 503.998 2137.68C499.343 2120.61 490.391 2108.85 487.287 2107.54ZM520.529 2102.35C520.568 2106.46 520.907 2110.57 521.544 2114.64C522.202 2121.92 525.416 2128.73 530.615 2133.86C529.146 2122.84 525.731 2112.17 520.529 2102.35ZM558.068 2097.16C558.068 2097.16 555.8 2098.29 554.965 2108.26C554.129 2118.22 555.86 2125.09 560.515 2129.08C561.616 2129.98 562.818 2130.74 564.096 2131.35C565.665 2129.67 566.775 2127.62 567.318 2125.38C568.381 2115.99 565.844 2106.54 560.216 2098.95C558.963 2097.39 558.247 2097.16 558.068 2097.16Z" fill="#263238"/>
<path d="M1365.9 2202.07L1382.07 2174.02L1365.9 2145.97H1348.59L1358.38 2174.02L1348.59 2202.07H1365.9Z" fill="#263238"/>
<path d="M1349.72 2188.64C1347.73 2188.77 1345.73 2188.49 1343.85 2187.81C1341.97 2187.14 1340.24 2186.08 1338.79 2184.72C1337.33 2183.35 1336.17 2181.7 1335.37 2179.86C1334.58 2178.03 1334.17 2176.05 1334.17 2174.05C1334.17 2172.05 1334.58 2170.08 1335.37 2168.24C1336.17 2166.41 1337.33 2164.76 1338.79 2163.39C1340.24 2162.02 1341.97 2160.97 1343.85 2160.29C1345.73 2159.62 1347.73 2159.33 1349.72 2159.46L1322.27 2153.97L1314.93 2176.17L1327.22 2194.91L1349.72 2188.64Z" fill="#263238"/>
<path d="M1352.11 2145.97H1319.7L1303.53 2174.02L1319.7 2202.07H1352.11L1368.28 2174.02L1352.11 2145.97ZM1335.94 2188.64C1333.04 2188.66 1330.21 2187.81 1327.8 2186.21C1325.38 2184.61 1323.5 2182.33 1322.39 2179.66C1321.27 2176.99 1320.97 2174.05 1321.53 2171.21C1322.09 2168.37 1323.47 2165.76 1325.52 2163.71C1327.56 2161.65 1330.16 2160.26 1333 2159.69C1335.84 2159.12 1338.78 2159.4 1341.46 2160.51C1344.13 2161.61 1346.42 2163.49 1348.03 2165.89C1349.64 2168.3 1350.5 2171.13 1350.5 2174.02C1350.5 2177.89 1348.97 2181.6 1346.24 2184.34C1343.51 2187.08 1339.8 2188.63 1335.94 2188.64Z" fill="#3FBDF1"/>
<path d="M2493.97 2144.06L2481.97 2123.24L2493.97 2102.41H2506.8L2499.58 2123.24L2506.8 2144.06H2493.97Z" fill="#3FBDF1"/>
<path d="M2505.96 2134.1C2507.45 2134.21 2508.95 2134.01 2510.36 2133.52C2511.77 2133.02 2513.06 2132.24 2514.16 2131.23C2515.25 2130.21 2516.13 2128.98 2516.72 2127.61C2517.32 2126.24 2517.63 2124.76 2517.63 2123.27C2517.63 2121.77 2517.32 2120.29 2516.72 2118.92C2516.13 2117.55 2515.25 2116.32 2514.16 2115.31C2513.06 2114.29 2511.77 2113.51 2510.36 2113.01C2508.95 2112.52 2507.45 2112.32 2505.96 2112.43L2526.37 2108.38L2531.8 2124.85L2522.73 2138.75L2505.96 2134.1Z" fill="#3FBDF1"/>
<path d="M2504.23 2102.41H2528.1L2540.04 2123.24L2528.1 2144.06H2504.23L2492.3 2123.24L2504.23 2102.41ZM2516.17 2134.1C2518.32 2134.11 2520.43 2133.48 2522.22 2132.3C2524.01 2131.11 2525.41 2129.42 2526.25 2127.43C2527.08 2125.45 2527.3 2123.26 2526.89 2121.15C2526.48 2119.04 2525.45 2117.1 2523.93 2115.58C2522.41 2114.05 2520.48 2113.01 2518.37 2112.59C2516.26 2112.16 2514.07 2112.37 2512.09 2113.19C2510.1 2114.02 2508.4 2115.41 2507.2 2117.19C2506 2118.98 2505.37 2121.08 2505.37 2123.24C2505.36 2124.66 2505.63 2126.08 2506.18 2127.4C2506.72 2128.72 2507.52 2129.92 2508.53 2130.93C2509.54 2131.94 2510.74 2132.74 2512.06 2133.29C2513.38 2133.83 2514.8 2134.11 2516.23 2134.1H2516.17Z" fill="#263238"/>
<path d="M2047.02 2171.76H2074C2077.38 2171.74 2080.61 2170.39 2082.99 2167.99C2085.37 2165.6 2086.71 2162.36 2086.71 2158.98C2086.71 2155.61 2085.37 2152.37 2082.99 2149.97C2080.61 2147.58 2077.38 2146.23 2074 2146.21H2047.02C2043.64 2146.21 2040.39 2147.56 2037.99 2149.95C2035.6 2152.35 2034.25 2155.6 2034.25 2158.98C2034.25 2162.37 2035.6 2165.62 2037.99 2168.01C2040.39 2170.41 2043.64 2171.76 2047.02 2171.76Z" fill="#263238"/>
<path d="M2003.64 2147.64C2006.14 2143.09 2009.92 2139.37 2014.51 2136.94C2019.11 2134.51 2024.31 2133.48 2029.48 2133.97C2034.65 2134.46 2039.57 2136.46 2043.62 2139.71C2047.67 2142.96 2050.69 2147.33 2052.28 2152.27C2053.88 2157.22 2054 2162.52 2052.62 2167.53C2051.25 2172.54 2048.43 2177.04 2044.53 2180.47C2040.63 2183.89 2035.8 2186.11 2030.66 2186.83C2025.51 2187.55 2020.27 2186.75 2015.57 2184.53C2009.12 2181.2 2004.24 2175.45 2002.01 2168.54C1999.77 2161.64 2000.36 2154.12 2003.64 2147.64Z" fill="#3FBDF1"/>
<path d="M2010.91 2184.52L2018.31 2188.01L2044.01 2133.48L2036.62 2130L2010.91 2184.52Z" fill="#263238"/>
</svg>
