<svg width="485" height="485" viewBox="0 0 485 485" fill="none" xmlns="http://www.w3.org/2000/svg">
<path d="M111.55 205.727C111.55 205.727 85.4425 128.476 176.506 137.904C267.57 147.333 224.06 113.14 258.471 91.9215C292.882 70.7028 394.271 136.716 351.853 200.387C309.435 264.058 419.641 205.814 442.63 301.563C456.817 360.65 421.62 404.14 392.583 428.793" stroke="#CCDDE2" stroke-width="5.47" stroke-miterlimit="10"/>
<path d="M401.464 354.972C394.62 315.343 370.39 279.88 331.022 267.187C320.952 263.959 310.654 261.486 300.215 259.791V259.845C299.671 263.134 298.382 266.257 296.447 268.972C292.343 274.593 286.688 279.211 280.141 281.616C273.458 284.09 265.179 284.41 258.975 280.52C255.241 278.182 251.618 274.065 250.963 269.622C250.216 264.617 252.767 259.879 256.356 256.571C225.937 256.818 197.322 261.823 174.391 267.522C175.186 270.85 176.287 274.097 177.68 277.222C179.629 281.579 182.383 285.528 185.799 288.862C190.058 284.642 193.788 279.919 196.905 274.797C199.887 275.773 202.517 277.604 204.466 280.063C206.416 282.521 207.6 285.498 207.871 288.624V288.784C209.074 300.138 198.142 308.669 188.956 313.917C178.344 320.018 166.515 324.587 154.894 328.385C150.103 329.956 143.875 331.295 138.817 329.655C138.272 329.482 137.74 329.269 137.226 329.02C132.182 326.547 128.806 321.362 126.173 316.623C118.67 303.165 113.791 288.493 110.483 273.434C87.528 276.368 84.8993 260.824 83.5364 257.012L63.8988 311.909C62.8686 315.855 62.7575 319.985 63.5728 323.981C64.3886 327.977 66.1099 331.733 68.6042 334.959C71.0981 338.186 74.2991 340.798 77.9604 342.594C81.6221 344.391 85.6466 345.323 89.725 345.321H171.021L207.949 440.041L218.415 466.925H278.196C273.346 466.925 270.693 465.742 268.768 463.811C266.779 461.822 265.66 459.126 265.654 456.313C265.654 450.493 270.431 445.721 278.196 445.721H278.744C278.157 445.721 277.595 445.667 277.008 445.614C277.372 445.575 277.732 445.515 278.089 445.435C277.705 445.425 277.321 445.396 276.94 445.347C280.442 444.934 283.688 443.303 286.109 440.738C288.53 438.175 289.973 434.841 290.185 431.321C290.195 431.138 290.195 430.955 290.185 430.773V430.492C290.102 426.883 288.722 423.424 286.299 420.749C283.876 418.072 280.571 416.358 276.988 415.918C277.396 415.884 277.784 415.85 278.177 415.85C277.823 415.762 277.43 415.709 277.061 415.656C277.643 415.602 278.23 415.563 278.793 415.563L322.53 415.796L330.576 415.83H340.126C340.567 415.83 341.013 415.83 341.435 415.884L355.621 415.956L365.098 416.01C369.059 416.043 372.845 417.643 375.629 420.461C378.413 423.278 379.968 427.084 379.954 431.045C379.949 433.284 379.43 435.493 378.436 437.5C382.502 436.98 386.272 435.099 389.135 432.165C395.959 425.196 398.898 414.763 400.93 405.49C404.524 388.971 404.311 371.564 401.464 354.972ZM290.961 356.088C282.721 368.771 268.69 367.631 268.69 367.631C268.69 367.631 267.526 368.766 264.81 363.935C262.094 359.105 254.358 355.802 254.358 355.802C253.742 360.652 252.467 368.024 239.808 358.469C227.15 348.915 230.967 334.986 232.048 327.628C233.13 320.271 237.441 317.831 237.441 317.831L242.534 315.144C242.534 315.144 227.805 311.356 227.096 311.216C226.388 311.075 213.269 300.09 226.582 297.19C239.896 294.289 260.649 305.823 264.66 308.102C268.671 310.382 292.111 330.208 292.111 330.208C292.111 330.208 299.245 343.425 290.961 356.088Z" fill="#353642"/>
<path d="M110.464 273.443C110.464 273.443 121.565 272.095 125.722 264.17L122.099 284.496C122.099 284.496 166.263 269.461 174.362 267.521C174.362 267.521 176.972 284.346 187.36 288.861L198.079 275.233C198.079 275.233 211.518 278.628 207.842 296.941C204.166 315.255 153.318 330.562 144.695 330.208C136.072 329.853 126.789 324.548 117.283 296.034L110.464 273.443Z" fill="#353642"/>
<path d="M128.549 228.164C131.362 232.742 134.19 237.311 137.11 241.822C138.909 244.601 142.187 248.563 138.7 251.468C137.565 252.338 136.195 252.846 134.767 252.923C132.526 253.122 130.174 252.584 128.811 250.658L122.021 239.406C120.668 237.162 118.519 235.51 116.003 234.778C113.486 234.047 110.787 234.29 108.441 235.458" stroke="black" stroke-width="5.47" stroke-miterlimit="10"/>
<path d="M154.23 242.984C156.005 247.203 154.802 249.924 152.726 251.292C149.331 253.518 144.787 252.451 142.381 249.202L128.573 228.187" stroke="black" stroke-width="5.47" stroke-miterlimit="10"/>
<path d="M140.238 222.053C145.262 228.164 151.601 239.513 155.108 244.252C158.614 248.99 164.037 246.133 164.037 246.133C168.44 243.762 167.694 239.828 165.768 235.051C161.025 223.324 154.254 215.525 146.703 210.413C123.302 194.583 99.294 206.261 92.15 233.586L63.8988 311.909C62.8686 315.855 62.7575 319.985 63.5728 323.981C64.3886 327.977 66.1099 331.733 68.6042 334.96C71.0981 338.186 74.2991 340.798 77.9604 342.595C81.6221 344.39 85.6466 345.323 89.725 345.321H171.021L218.429 466.93" stroke="black" stroke-width="5.47" stroke-miterlimit="10"/>
<path d="M169.265 229.672C175.085 227.654 174.818 218.371 166.559 215.238C157.436 211.775 141.237 206.877 137.168 205.655C137.142 205.635 137.112 205.624 137.08 205.621C136.794 205.533 136.595 205.461 136.44 205.427L136.212 205.354" stroke="black" stroke-width="5.47" stroke-miterlimit="10"/>
<path d="M255.255 322.486C250.163 316.365 236.224 312.897 227.125 311.219C225.596 310.932 224.202 310.156 223.152 309.007C222.102 307.859 221.454 306.4 221.305 304.851C221.2 303.806 221.321 302.751 221.66 301.757C222.202 300.23 223.241 298.931 224.61 298.065C225.979 297.2 227.6 296.819 229.211 296.984C244.731 298.556 260.736 303.44 272.575 313.959C272.575 313.959 329.965 357.755 336.818 362.018C339.645 363.735 342.284 361.708 340.368 359.011L339.767 357.983C336.394 352.194 332.401 346.789 327.86 341.861" stroke="black" stroke-width="5.47" stroke-miterlimit="10"/>
<path d="M256.318 256.565C184.14 257.166 122.099 284.491 122.099 284.491L128.292 249.775" stroke="black" stroke-width="5.47" stroke-miterlimit="10"/>
<path d="M368.421 445.506C368.421 445.506 360.559 443.726 358.468 450.021C356.378 456.316 354.196 466.332 369.226 466.923C384.256 467.515 375.429 464.561 374.561 459.697C373.693 454.832 368.421 445.506 368.421 445.506Z" fill="#353642"/>
<path d="M248.32 330.475C248.32 330.475 239.837 324.044 232.199 330.562C231.877 330.845 231.596 331.172 231.364 331.532" stroke="black" stroke-width="5.47" stroke-miterlimit="10"/>
<g opacity="0.77">
<path opacity="0.77" d="M142.352 249.179C144.777 252.433 149.317 253.495 152.697 251.264C154.749 249.906 155.952 247.2 154.22 243.019C154.536 243.48 154.822 243.888 155.103 244.261C158.605 249.019 164.032 246.153 164.032 246.153C168.436 243.781 167.694 239.848 165.768 235.065C163.884 230.329 161.412 225.848 158.411 221.728C160.375 219.89 162.708 218.032 165.167 218.847C167.82 219.73 168.562 223.057 168.862 225.831C169.003 227.121 169.144 228.397 169.284 229.687L171.409 248.679C172.117 254.984 172.825 261.382 174.362 267.536C175.157 270.864 176.258 274.111 177.651 277.236C179.6 281.593 182.354 285.542 185.77 288.876C190.029 284.656 193.759 279.933 196.876 274.811C199.858 275.787 202.488 277.618 204.437 280.077C206.386 282.535 207.571 285.512 207.842 288.639V288.799C209.045 300.152 198.113 308.684 188.927 313.931C178.315 320.033 166.486 324.601 154.865 328.399C150.074 329.97 143.846 331.309 138.788 329.67C138.243 329.496 137.711 329.284 137.197 329.034C132.153 326.561 128.777 321.376 126.144 316.638C113.534 293.964 108.296 267.929 105.536 242.146C111.055 241.385 116.555 240.536 121.987 239.367C121.987 239.367 121.987 239.406 122.021 239.421L128.283 249.805L128.797 250.668C130.155 252.608 132.507 253.127 134.752 252.933C136.18 252.862 137.552 252.354 138.681 251.478C142.163 248.568 138.894 244.62 137.09 241.841" fill="white"/>
<path opacity="0.77" d="M142.352 249.179C144.777 252.433 149.317 253.495 152.697 251.264C154.749 249.906 155.952 247.2 154.22 243.019C154.536 243.48 154.822 243.888 155.103 244.261C158.605 249.019 164.032 246.153 164.032 246.153C168.436 243.781 167.694 239.848 165.768 235.065C163.884 230.329 161.412 225.848 158.411 221.728C160.375 219.89 162.708 218.032 165.167 218.847C167.82 219.73 168.562 223.057 168.862 225.831C169.003 227.121 169.144 228.397 169.284 229.687L171.409 248.679C172.117 254.984 172.825 261.382 174.362 267.536C175.157 270.864 176.258 274.111 177.651 277.236C179.6 281.593 182.354 285.542 185.77 288.876C190.029 284.656 193.759 279.933 196.876 274.811C199.858 275.787 202.488 277.618 204.437 280.077C206.386 282.535 207.571 285.512 207.842 288.639V288.799C209.045 300.152 198.113 308.684 188.927 313.931C178.315 320.033 166.486 324.601 154.865 328.399C150.074 329.97 143.846 331.309 138.788 329.67C138.243 329.496 137.711 329.284 137.197 329.034C132.153 326.561 128.777 321.376 126.144 316.638C113.534 293.964 108.296 267.929 105.536 242.146C111.055 241.385 116.555 240.536 121.987 239.367C121.987 239.367 121.987 239.406 122.021 239.421L128.283 249.805L128.797 250.668C130.155 252.608 132.507 253.127 134.752 252.933C136.18 252.862 137.552 252.354 138.681 251.478C142.163 248.568 138.894 244.62 137.09 241.841" fill="#3FBDF1"/>
<path opacity="0.77" d="M143.841 250.716C145.99 253.626 149.661 253.258 152.697 251.264C154.531 250.052 156.034 250.406 154.487 246.667C154.773 247.074 154.812 245.697 155.064 246.002C158.192 250.251 155.103 244.246 155.103 244.246C159.468 249.761 168.969 244.567 167.228 240.303C165.385 235.71 163.445 228.92 160.986 225.525C162.926 223.692 162.553 223.964 165.021 225.424C165.684 225.849 166.24 226.424 166.643 227.102C167.046 227.779 167.286 228.541 167.344 229.328C167.543 231.176 167.742 232.946 167.941 234.75L169.832 251.725C170.468 257.366 171.098 263.064 172.471 268.555C173.18 271.523 174.164 274.42 175.41 277.207C177.146 281.043 182.724 287.431 185.77 290.355C189.557 286.597 194.097 279.685 196.876 275.092C202.211 276.732 201.978 281.834 202.357 287.407V287.552C203.433 297.684 193.675 305.293 185.498 309.983C176.021 315.43 165.463 319.504 155.088 322.899C150.811 324.305 145.253 325.518 140.737 324.034C140.25 323.88 139.775 323.69 139.316 323.466C134.815 321.255 131.799 316.633 129.447 312.399C119.15 293.906 114.373 272.91 111.744 251.861C111.551 250.286 111.977 248.698 112.933 247.431C113.888 246.164 115.298 245.318 116.866 245.071C119.819 244.586 122.763 244.101 125.688 243.451L125.77 243.49L131.357 252.758C132.575 254.48 132.774 253.132 134.777 252.957C136.043 252.845 138.497 252.598 139.476 251.778C142.585 249.189 140.829 248.117 139.219 245.638" fill="#3FBDF1"/>
</g>
<path d="M247.297 339.836C247.297 339.836 231.19 334.539 230.947 343.444" stroke="black" stroke-width="5.47" stroke-miterlimit="10"/>
<path opacity="0.54" d="M103.121 430.543L71.5327 349.616C71.1413 348.05 71.1122 346.416 71.4468 344.837C71.7819 343.258 72.4726 341.776 73.4659 340.504C74.4596 339.231 75.7298 338.202 77.181 337.495C78.6316 336.787 80.2248 336.419 81.8389 336.419H207.308C210.126 336.419 212.861 337.367 215.074 339.111C217.287 340.855 218.848 343.293 219.506 346.032L254.087 426.94C254.461 428.501 254.476 430.126 254.131 431.693C253.786 433.261 253.091 434.73 252.098 435.99C251.104 437.25 249.838 438.269 248.394 438.97C246.95 439.67 245.366 440.034 243.761 440.035H115.289C112.493 440.037 109.776 439.103 107.572 437.383C105.367 435.664 103.8 433.256 103.121 430.543Z" fill="white"/>
<path d="M252.539 353.486C252.539 353.486 255.154 355.882 254.159 359.306C253.422 361.843 250.9 363.443 248.402 362.575C240.448 359.825 233.285 355.155 231.539 347.215C230.714 343.196 230.536 339.07 231.01 334.993C231.393 331.215 231.951 327.136 233.222 323.543C235.162 318.023 241.103 314.177 246.87 316.835" stroke="black" stroke-width="5.47" stroke-miterlimit="10"/>
<path d="M103.121 430.543L71.5327 349.616C71.1413 348.05 71.1122 346.416 71.4468 344.837C71.7819 343.258 72.4726 341.776 73.4659 340.504C74.4596 339.231 75.7298 338.202 77.181 337.495C78.6316 336.787 80.2248 336.419 81.8389 336.419H207.308C210.126 336.419 212.861 337.367 215.074 339.111C217.287 340.855 218.848 343.293 219.506 346.032L254.087 426.94C254.461 428.501 254.476 430.126 254.131 431.693C253.786 433.261 253.091 434.73 252.098 435.99C251.104 437.25 249.838 438.269 248.394 438.97C246.95 439.67 245.366 440.034 243.761 440.035H115.289C112.493 440.037 109.776 439.103 107.572 437.383C105.367 435.664 103.8 433.256 103.121 430.543Z" fill="#3FBDF1"/>
<path d="M103.121 430.543L71.5327 349.616C71.1413 348.05 71.1122 346.416 71.4468 344.837C71.7819 343.258 72.4726 341.776 73.4659 340.504C74.4596 339.231 75.7298 338.202 77.181 337.495C78.6316 336.787 80.2248 336.419 81.8389 336.419H207.308C210.126 336.419 212.861 337.367 215.074 339.111C217.287 340.855 218.848 343.293 219.506 346.032L254.087 426.94C254.461 428.501 254.476 430.126 254.131 431.693C253.786 433.261 253.091 434.73 252.098 435.99C251.104 437.25 249.838 438.269 248.394 438.97C246.95 439.67 245.366 440.034 243.761 440.035H115.289C112.493 440.037 109.776 439.103 107.572 437.383C105.367 435.664 103.8 433.256 103.121 430.543Z" stroke="black" stroke-width="5.47" stroke-linecap="square" stroke-linejoin="round"/>
<path d="M107.743 427.284L78.5991 352.594C78.2388 351.149 78.2126 349.641 78.522 348.185C78.8314 346.728 79.4687 345.361 80.3859 344.188C81.3025 343.015 82.4747 342.066 83.8129 341.413C85.1515 340.76 86.621 340.42 88.11 340.42H203.86C206.459 340.419 208.982 341.294 211.024 342.902C213.065 344.51 214.505 346.759 215.112 349.286L247.02 423.933C247.365 425.373 247.378 426.873 247.06 428.319C246.742 429.765 246.1 431.12 245.183 432.283C244.266 433.445 243.097 434.385 241.765 435.031C240.432 435.678 238.971 436.014 237.49 436.014H118.966C116.39 436.016 113.887 435.158 111.855 433.577C109.821 431.996 108.375 429.781 107.743 427.284Z" fill="#3FBDF1"/>
<path d="M355.466 415.567L377.66 466.924" stroke="black" stroke-width="5.47" stroke-miterlimit="10"/>
<path d="M460.75 466.924H24.25" stroke="black" stroke-width="5.47" stroke-miterlimit="10"/>
<path d="M254.319 235.132C250.721 238.687 245.347 238.683 242.287 235.394" stroke="black" stroke-width="5.47" stroke-miterlimit="10"/>
<path d="M158.411 221.712C160.375 219.874 162.708 218.017 165.167 218.831C167.82 219.714 168.562 223.041 168.862 225.815C169.713 233.44 170.561 241.056 171.409 248.664C172.485 258.364 173.62 268.297 177.651 277.211C179.6 281.568 182.354 285.517 185.77 288.851" stroke="black" stroke-width="5.47" stroke-miterlimit="10"/>
<path d="M207.842 288.793V288.633C207.571 285.507 206.386 282.529 204.437 280.071C202.487 277.613 199.858 275.781 196.876 274.805C193.759 279.927 190.029 284.651 185.77 288.87C174.601 299.975 160.255 307.33 144.719 309.914C145.466 312.887 147.004 315.594 148.066 318.455C149.128 321.317 149.656 324.629 148.366 327.389C146.737 330.91 142.061 330.449 138.812 329.668C138.778 329.668 138.758 329.668 138.725 329.668" stroke="black" stroke-width="5.47" stroke-miterlimit="10"/>
<path d="M121.997 239.362C116.565 240.531 111.065 241.38 105.546 242.141C108.305 267.924 113.524 293.959 126.153 316.633C128.787 321.371 132.163 326.556 137.207 329.029C137.721 329.279 138.253 329.491 138.797 329.664C143.856 331.328 150.083 329.965 154.875 328.394C166.515 324.591 178.325 320.028 188.937 313.926C198.098 308.674 209.03 300.147 207.852 288.793C207.738 287.543 207.482 286.31 207.09 285.117" stroke="black" stroke-width="5.47" stroke-miterlimit="10"/>
<path d="M212.828 187.932C213.642 191.326 215.5 194.379 218.14 196.66C220.781 198.942 224.071 200.337 227.547 200.649C227.836 199.249 228.462 197.94 229.371 196.837C233.251 192.263 234.905 200.843 247.316 194.684C264.514 186.128 271.042 191.036 271.042 191.036C271.615 191.463 271.527 195.401 271.624 196.119C272.109 200.207 272.546 204.276 273.026 208.36C273.317 210.853 273.603 213.327 273.875 215.8C274.109 215.38 274.368 214.973 274.651 214.583C276.217 209.039 279.016 202.492 285.049 205.31C286.271 205.906 287.334 206.781 288.153 207.865C292.154 213.123 289.123 218.201 284.938 221.959C283.888 223.126 282.716 224.174 281.441 225.088C282.129 226.514 284.942 232.174 284.942 232.193C285.233 232.766 295.064 221.639 295.797 220.427C296.891 217.457 297.478 214.324 297.533 211.159C297.693 198.146 292.397 182.999 281.858 175.535C279.244 173.687 280.078 171.907 279.918 169.395C279.907 169.259 279.855 169.13 279.768 169.025C279.683 168.919 279.566 168.842 279.436 168.803C279.305 168.765 279.165 168.768 279.036 168.81C278.907 168.852 278.793 168.933 278.71 169.042C275.407 172.844 267.23 172.466 267.23 172.466C238.848 165.356 229.308 177.975 223.58 180.226C221.243 181.111 218.67 181.154 216.305 180.347C216.166 181.13 215.815 181.86 215.291 182.458C214.767 183.057 214.09 183.5 213.332 183.742L213.478 185.056C213.601 186.061 213.371 187.078 212.828 187.932Z" fill="#3FBDF1"/>
<path d="M227.567 200.67C224.091 200.357 220.801 198.962 218.16 196.681C215.519 194.399 213.66 191.346 212.847 187.953C212.528 186.651 212.327 185.323 212.246 183.986L212.469 183.961C212.774 183.938 213.074 183.873 213.361 183.767C214.119 183.526 214.796 183.082 215.321 182.483C215.844 181.885 216.195 181.155 216.334 180.372C216.423 179.938 216.441 179.492 216.388 179.053L215.66 172.632C215.66 172.632 220.791 176.449 226.485 174.218C232.179 171.987 241.739 159.367 270.135 166.458C270.135 166.458 276.547 166.836 279.835 163.034C279.918 162.925 280.032 162.844 280.161 162.802C280.291 162.759 280.43 162.758 280.561 162.796C280.691 162.834 280.808 162.911 280.894 163.017C280.98 163.122 281.032 163.252 281.043 163.388C281.213 165.905 282.144 167.685 284.763 169.528C295.302 176.997 300.598 192.138 300.433 205.151C300.385 210.549 298.59 215.879 295.821 220.453C295.089 221.665 285.258 232.791 284.967 232.219C284.967 232.219 282.154 226.539 281.465 225.114L281.3 224.798L281.615 224.59C282.786 223.795 283.904 222.925 284.962 221.985C289.142 218.227 292.179 213.149 288.177 207.891C287.358 206.807 286.295 205.931 285.073 205.335C279.021 202.517 276.241 209.065 274.675 214.608C274.371 215.668 274.184 216.757 274.117 217.858C274.044 217.179 273.972 216.524 273.899 215.845C273.627 213.372 273.341 210.898 273.05 208.405C272.565 204.322 272.109 200.252 271.648 196.164C271.576 195.465 271.649 191.508 271.067 191.081C271.067 191.081 264.534 186.173 247.34 194.728C234.929 200.888 233.275 192.303 229.395 196.882C228.486 197.985 227.86 199.294 227.572 200.694C227.483 201.143 227.426 201.599 227.402 202.057C227.393 202.116 227.393 202.176 227.402 202.236C227.344 203.24 227.324 204.239 227.3 205.219C227.208 214.671 228.246 224.546 231.956 233.325C236.467 243.965 248.402 254.461 260.814 249.499C264.694 247.942 268.171 245.435 271.353 242.772" stroke="black" stroke-width="5.47" stroke-miterlimit="10"/>
<path d="M236.06 223.724C237.294 223.311 237.89 221.765 237.391 220.272C236.891 218.778 235.485 217.902 234.25 218.315C233.016 218.728 232.42 220.274 232.92 221.767C233.42 223.261 234.826 224.137 236.06 223.724Z" fill="black"/>
<path d="M254.527 223.133C255.761 222.72 256.357 221.174 255.857 219.68C255.357 218.187 253.952 217.311 252.717 217.724C251.483 218.137 250.887 219.683 251.387 221.176C251.886 222.67 253.292 223.546 254.527 223.133Z" fill="black"/>
<path d="M247.466 226.331C247.466 226.331 241.321 229.818 240.948 226.2C240.832 225.084 239.328 214.157 239.328 214.157C239.328 214.157 234.362 208.895 226.752 212.785" stroke="black" stroke-width="5.47" stroke-miterlimit="10"/>
<path d="M246.084 211.096C246.084 211.096 256.007 206.139 262.574 213.283" stroke="black" stroke-width="5.47" stroke-miterlimit="10"/>
<path d="M255.183 250.716L256.323 256.565C252.729 259.878 250.187 264.626 250.929 269.626C251.589 274.059 255.217 278.187 258.937 280.51C265.154 284.39 273.424 284.084 280.117 281.616C286.659 279.191 292.319 274.588 296.422 268.972C298.355 266.257 299.642 263.137 300.186 259.849V259.791" stroke="black" stroke-width="5.47" stroke-miterlimit="10"/>
<path d="M256.322 256.565L258.544 267.128" stroke="black" stroke-width="5.47" stroke-miterlimit="10"/>
<path d="M287.736 229.672L291.092 251.958C291.423 254.14 292.526 256.13 294.2 257.567C295.874 259.005 298.008 259.794 300.215 259.791C310.66 261.484 320.964 263.954 331.042 267.182C370.409 279.88 394.64 315.343 401.483 354.967C404.33 371.559 404.543 388.961 400.969 405.461C398.937 414.748 395.998 425.181 389.174 432.136C380.313 441.205 366.713 437.471 356.242 433.372C323.733 420.728 296.694 398.234 273.346 372.481C260.862 358.707 244.731 347.668 244.731 347.668" stroke="black" stroke-width="5.47" stroke-miterlimit="10"/>
<path d="M118.485 410.568C114.838 410.534 111.662 407.59 110.842 403.492C109.222 395.431 108.795 382.967 120.615 380.246C135.383 376.851 146.742 392.934 152.309 403.099C154.181 406.494 152.062 410.859 148.575 410.859L118.485 410.568Z" fill="#D7E8F0"/>
<path d="M123.361 373.402C126.496 371.315 126.545 365.876 123.468 361.254C120.393 356.631 115.357 354.575 112.222 356.661C109.086 358.747 109.038 364.186 112.114 368.809C115.19 373.432 120.226 375.488 123.361 373.402Z" fill="#D7E8F0"/>
<path d="M366.063 445.772C365.836 445.806 365.578 445.84 365.355 445.893H365.268L330.77 445.714L279.006 445.447C278.807 445.447 278.613 445.447 278.419 445.447C278.034 445.438 277.651 445.409 277.27 445.36C280.777 444.953 284.028 443.321 286.451 440.753C288.873 438.185 290.313 434.844 290.515 431.319C290.525 431.137 290.525 430.954 290.515 430.771V430.49C290.501 427.041 289.299 423.702 287.112 421.035C284.925 418.369 281.886 416.536 278.506 415.848C278.152 415.76 277.764 415.707 277.391 415.654C277.978 415.6 278.56 415.562 279.127 415.562L322.86 415.794L330.911 415.828L341.77 415.882C345.488 416.221 348.946 417.935 351.467 420.689C353.988 423.442 355.392 427.038 355.403 430.771C355.404 431.476 355.35 432.18 355.243 432.876C354.726 436.431 352.951 439.682 350.239 442.037C347.528 444.393 344.062 445.698 340.47 445.714H366.747C365.234 445.714 365.656 445.714 366.063 445.772Z" fill="white"/>
<path d="M296.088 463.811C297.073 464.802 298.245 465.588 299.536 466.122C300.828 466.657 302.213 466.929 303.61 466.925H278.206C273.356 466.925 270.708 465.742 268.777 463.811C266.794 461.819 265.677 459.124 265.668 456.313C265.668 450.493 270.441 445.721 278.206 445.721H303.61C301.513 445.717 299.462 446.337 297.717 447.501C295.972 448.664 294.611 450.319 293.809 452.257C293.005 454.195 292.795 456.327 293.206 458.384C293.616 460.441 294.627 462.33 296.112 463.811H296.088Z" fill="#D7E8F0"/>
<path d="M379.988 431.038C379.981 433.278 379.46 435.487 378.465 437.493C377.754 439.011 376.779 440.388 375.584 441.563C373.614 443.514 371.141 444.88 368.44 445.506C367.326 445.763 366.188 445.893 365.045 445.894C365.278 445.84 365.53 445.806 365.753 445.772C365.346 445.734 364.924 445.719 366.442 445.719H340.16C343.754 445.705 347.224 444.401 349.937 442.044C352.65 439.687 354.426 436.433 354.942 432.876C355.05 432.18 355.103 431.476 355.102 430.771C355.091 427.037 353.687 423.442 351.165 420.688C348.642 417.934 345.183 416.22 341.464 415.882L355.651 415.955L365.127 416.008C369.088 416.041 372.874 417.641 375.658 420.457C378.443 423.274 379.999 427.078 379.988 431.038Z" fill="#3FBDF1"/>
<path d="M379.988 431.034C379.958 434.997 378.36 438.786 375.541 441.573C372.723 444.359 368.916 445.915 364.953 445.899L278.662 445.453C278.084 445.453 277.507 445.41 276.925 445.351C280.563 444.939 283.922 443.207 286.368 440.483C288.814 437.759 290.175 434.233 290.194 430.572C290.213 426.912 288.889 423.371 286.472 420.622C284.055 417.872 280.714 416.105 277.08 415.655C277.657 415.594 278.237 415.565 278.817 415.568L365.108 416.014C369.07 416.041 372.861 417.637 375.649 420.451C378.438 423.266 379.998 427.072 379.988 431.034Z" stroke="black" stroke-width="5.47" stroke-linecap="square" stroke-linejoin="round"/>
<path d="M355.093 430.767C355.085 434.729 353.508 438.526 350.706 441.327C347.905 444.129 344.107 445.707 340.145 445.714H278.749C278.169 445.711 277.589 445.678 277.013 445.617C280.647 445.186 283.998 443.436 286.429 440.699C288.86 437.963 290.202 434.429 290.202 430.769C290.202 427.109 288.86 423.575 286.429 420.839C283.998 418.102 280.647 416.352 277.013 415.921C277.59 415.867 278.172 415.829 278.749 415.829H340.145C344.105 415.837 347.9 417.414 350.702 420.213C353.502 423.012 355.081 426.807 355.093 430.767Z" stroke="black" stroke-width="5.47" stroke-linecap="square" stroke-linejoin="round"/>
<path d="M265.668 456.316C265.668 457.707 265.942 459.084 266.475 460.37C267.008 461.654 267.788 462.822 268.772 463.804C270.712 465.744 273.346 466.923 278.201 466.923H366.437C364.919 466.923 365.331 466.894 365.743 466.855C363.162 466.551 360.781 465.31 359.054 463.367C357.326 461.425 356.372 458.916 356.372 456.316C356.372 453.716 357.326 451.207 359.054 449.265C360.781 447.322 363.162 446.081 365.743 445.777C365.331 445.738 364.919 445.709 366.437 445.709H278.201C270.431 445.714 265.668 450.486 265.668 456.316Z" stroke="black" stroke-width="5.47" stroke-linecap="square" stroke-linejoin="round"/>
<path d="M292.974 456.316C292.98 459.127 294.1 461.822 296.088 463.809C298.076 465.797 300.77 466.917 303.581 466.923H364.511C364.919 466.923 365.331 466.894 365.743 466.855C363.162 466.551 360.781 465.31 359.054 463.367C357.326 461.425 356.372 458.916 356.372 456.316C356.372 453.716 357.326 451.207 359.054 449.265C360.781 447.322 363.162 446.081 365.743 445.777C365.331 445.738 364.919 445.709 364.511 445.709H303.581C300.77 445.717 298.077 446.837 296.089 448.824C294.102 450.812 292.982 453.505 292.974 456.316Z" stroke="black" stroke-width="5.47" stroke-linecap="square" stroke-linejoin="round"/>
<path d="M194.204 375.39H166.986C165.74 375.388 164.522 375.023 163.48 374.341C162.439 373.659 161.618 372.689 161.117 371.549C160.924 371.124 160.841 370.658 160.877 370.193C160.912 369.727 161.065 369.279 161.321 368.889C161.576 368.499 161.926 368.18 162.339 367.961C162.751 367.743 163.211 367.632 163.678 367.639H192.613C191.25 369.934 191.944 373.12 194.204 375.39Z" fill="#D7E8F0"/>
<path d="M211.804 372.586C211.803 373.328 211.508 374.039 210.983 374.563C210.459 375.088 209.748 375.383 209.006 375.384H194.204C191.944 373.119 191.25 369.933 192.613 367.624H205.684C206.928 367.625 208.145 367.986 209.187 368.664C210.23 369.342 211.053 370.309 211.557 371.446C211.714 371.806 211.798 372.193 211.804 372.586Z" fill="#3FBDF1"/>
<path d="M204.995 375.39C204.918 375.538 204.829 375.679 204.728 375.812C202.788 378.465 198.574 378.722 195.3 376.326C194.913 376.04 194.547 375.727 194.204 375.39C191.944 373.125 191.25 369.938 192.613 367.63C192.69 367.482 192.779 367.341 192.88 367.208C194.82 364.535 199.015 364.298 202.289 366.674C202.683 366.969 203.054 367.294 203.399 367.644C205.64 369.899 206.338 373.067 204.995 375.39Z" fill="white"/>
<path d="M218.648 389.673C218.642 390.416 218.344 391.126 217.817 391.65C217.29 392.173 216.577 392.467 215.835 392.467H187.273C188.65 390.149 187.962 386.987 185.697 384.707H212.527C213.773 384.708 214.991 385.07 216.035 385.751C217.077 386.433 217.899 387.403 218.4 388.543C218.56 388.899 218.644 389.283 218.648 389.673Z" fill="#3FBDF1"/>
<path d="M187.273 392.466H173.834C172.59 392.467 171.372 392.106 170.329 391.427C169.286 390.749 168.463 389.782 167.96 388.644C167.802 388.288 167.718 387.904 167.713 387.514C167.713 387.147 167.784 386.783 167.924 386.444C168.065 386.105 168.27 385.797 168.53 385.537C168.789 385.277 169.098 385.072 169.437 384.932C169.776 384.792 170.139 384.72 170.507 384.72H185.697C187.962 386.985 188.665 390.147 187.273 392.466Z" fill="#D7E8F0"/>
<path d="M187.273 392.466C187.21 392.619 187.127 392.762 187.026 392.893C185.086 395.561 180.886 395.803 177.617 393.422C177.221 393.127 176.848 392.803 176.501 392.452C174.256 390.187 173.567 387.025 174.91 384.692C174.988 384.543 175.077 384.4 175.177 384.265C177.117 381.612 181.332 381.355 184.601 383.756C184.99 384.039 185.356 384.351 185.697 384.692C187.962 386.986 188.665 390.148 187.273 392.466Z" fill="white"/>
<path d="M196.789 409.428H179.688C178.444 409.426 177.228 409.064 176.185 408.386C175.143 407.708 174.319 406.742 173.814 405.606C173.622 405.18 173.54 404.713 173.576 404.247C173.612 403.781 173.765 403.332 174.02 402.94C174.276 402.549 174.627 402.229 175.039 402.009C175.452 401.789 175.912 401.677 176.38 401.682H195.198C193.85 404.005 194.543 407.163 196.789 409.428Z" fill="#3FBDF1"/>
<path d="M224.502 406.653C224.498 407.39 224.201 408.097 223.678 408.617C223.154 409.137 222.446 409.428 221.708 409.427H196.789C194.543 407.162 193.85 404 195.198 401.667H218.381C219.626 401.667 220.845 402.03 221.888 402.711C222.931 403.393 223.753 404.363 224.254 405.503C224.414 405.866 224.498 406.257 224.502 406.653Z" fill="#D7E8F0"/>
<path d="M207.58 409.428C207.502 409.577 207.413 409.719 207.313 409.855C205.373 412.522 201.178 412.765 197.904 410.383C197.511 410.087 197.14 409.763 196.794 409.413C194.548 407.148 193.855 403.986 195.203 401.653C195.277 401.504 195.364 401.36 195.465 401.227C197.405 398.574 201.619 398.346 204.893 400.717C205.282 401 205.649 401.313 205.989 401.653C208.249 403.947 208.938 407.129 207.58 409.428Z" fill="white"/>
<path d="M78.3809 254.805L78.8077 254.926L78.6476 255.547C78.5462 255.304 78.457 255.056 78.3809 254.805Z" fill="#353642"/>
<path d="M154.281 293.607C160.666 291.733 164.02 284.01 161.774 276.359C159.528 268.708 152.532 264.025 146.148 265.899C139.763 267.773 136.409 275.495 138.655 283.146C140.901 290.798 147.897 295.481 154.281 293.607Z" fill="#D7E8F0"/>
</svg>
