<svg width="487" height="487" viewBox="0 0 487 487" fill="none" xmlns="http://www.w3.org/2000/svg">
<path d="M42.8561 270.533C42.5152 266.198 42.2522 261.859 42.0428 257.53" stroke="black" stroke-width="4.05" stroke-miterlimit="10"/>
<path d="M289.346 426.437H165.638" stroke="#CCDDE2" stroke-width="4.05" stroke-miterlimit="10"/>
<path d="M325.462 116.533C325.462 116.533 361.919 99.3178 392.848 132.906C402.954 143.883 409.85 158.449 410.337 173.478C410.558 180.811 409.376 188.119 406.854 195.008C404.288 202.041 399.681 206.696 396.14 212.959C390.71 222.616 402.062 224.326 408.155 229.006C412.204 232.143 416.045 235.539 419.653 239.174C427.785 247.296 434.94 256.339 440.974 266.12C452.921 285.604 460.115 307.625 461.973 330.404C463.809 352.865 462.402 377.254 450.884 397.206C445.342 406.814 436.995 416.238 426.729 420.718C413.093 426.665 397.777 426.441 383.206 426.441H352.198" stroke="#CCDDE2" stroke-width="4.05" stroke-miterlimit="10"/>
<path d="M173.494 340.968C172.271 349.666 170.45 359.644 168.439 369.633L166.067 370.309C158.477 372.442 150.416 372.205 142.964 369.633L146.071 359.074L127.156 304.043C127.156 304.043 141.615 299.368 153.488 295.896L154.851 295.837C161.338 297.206 174.706 302.344 175.125 321.585C175.154 322.51 175.125 323.484 175.125 324.546C177.01 330.755 176.26 336.229 173.494 340.968Z" fill="#3FBDF1"/>
<path d="M128.972 131.49C128.786 131.016 128.421 130.633 127.956 130.425C127.49 130.216 126.962 130.198 126.484 130.375C126.216 130.456 125.968 130.594 125.758 130.779C125.008 131.388 124.838 132.455 124.813 133.468C124.745 135.781 124.614 138.099 124.443 140.403C124.443 140.558 124.419 140.734 124.419 140.89C124.312 142.745 124.39 144.995 123.601 146.612C123.55 146.735 123.464 146.84 123.352 146.914C123.089 147.035 122.812 146.772 122.641 146.534C122.154 145.823 121.667 145.126 121.18 144.401C120.796 143.821 120.362 143.193 119.69 143.008C118.692 142.73 117.742 143.612 117.192 144.508C115.414 147.43 115.244 152.217 117.995 154.667C120.747 157.116 114.586 161.933 110.174 163.959C109.435 164.374 108.661 164.723 107.861 165.001C107.822 165.001 109.453 165.366 109.414 165.381C105.981 166.576 102.404 167.311 98.7782 167.567C94.4732 167.855 90.2752 167.314 87.2217 165.444C87.3532 164.957 88.3954 161.548 88.4587 161.061C88.6827 159.361 88.8434 157.676 88.9457 155.967C89.1308 152.758 89.1162 149.544 88.9944 146.344C88.5513 134.831 90.6015 125.159 95.3546 123.684C95.7301 123.571 96.09 123.413 96.426 123.211C98.5688 122.028 99.7133 119.53 98.7295 117.173C98.6614 117.012 98.5834 116.856 98.5153 116.686C98.4383 116.518 98.3507 116.355 98.2523 116.199C107.535 113.316 113.836 115.317 120.206 118.804C121.418 119.773 122.558 120.829 123.615 121.965C126.109 124.671 127.942 127.918 128.972 131.451V131.49Z" fill="#3FBDF1"/>
<path d="M352.101 242.179H320.446V166.519C320.446 166.519 314.602 232.259 298.589 269.505H200.552C212.108 262.161 221.376 251.067 227.546 239.126C229.981 234.402 233.877 227.389 240.354 229.23C241.893 229.664 244.158 229.941 245.302 228.534C245.697 227.994 245.921 227.347 245.945 226.678C246.5 219.782 239.351 213.977 233.458 212.146C227.565 210.315 220.679 211.172 215.989 215.453C212.61 218.545 210.491 222.651 208.017 226.454C206.532 228.708 204.772 230.768 202.777 232.586C205.319 217.148 207.584 202.392 207.91 196.961C214.11 192.067 218.663 184.085 220.28 177.024C222.057 169.31 223.626 161.766 226.387 154.544L248.989 154.622C249.84 154.622 250.656 154.284 251.258 153.682C251.86 153.08 252.198 152.264 252.198 151.412V113.874C252.199 113.031 251.866 112.222 251.272 111.623C250.678 111.024 249.871 110.685 249.027 110.68L233.638 110.548C239.231 109.379 244.902 108.623 250.605 108.284C250.722 108.284 250.829 108.284 250.932 108.284C254.686 108.035 261.266 107.928 265.055 107.889C260.54 110.324 257.75 115.496 258.237 120.064C258.322 121.037 258.571 121.989 258.972 122.879C262.829 131.353 272.988 133.856 281.374 131.392C290.705 128.669 297.562 120.089 297.153 110.217C302.997 111.074 308.782 112.162 314.51 113.48C323.212 115.481 331.701 118.179 338.582 124.062C344.582 129.171 349.666 135.75 352.018 143.187C362.119 174.983 359.012 210.466 352.101 242.179Z" fill="#2E2E2E"/>
<path d="M208.163 196.962C207.452 208.582 205.621 220.192 203.634 231.773" stroke="black" stroke-width="4.05" stroke-miterlimit="10"/>
<path d="M226.64 154.545C223.874 161.767 222.311 169.31 220.533 177.025C218.902 184.062 214.358 192.068 208.163 196.962C202.962 201.068 196.592 203.001 189.774 200.41C180.628 196.923 177.419 186.842 176.299 177.955C174.843 166.888 174.755 155.684 176.036 144.595C177.326 147.464 182.601 156.191 198.959 153.897C199.398 154.225 199.926 154.414 200.474 154.437L226.64 154.545Z" fill="#2E2E2E"/>
<path d="M217.455 129.577C221.264 128.603 223.582 132.265 223.017 135.051C222.096 139.595 215.561 141.382 211.67 141.465C208.553 141.528 200.956 140.705 197.858 140.345" stroke="black" stroke-width="4.05" stroke-miterlimit="10"/>
<path d="M196.578 131.827C201.289 133.188 206.278 133.271 211.032 132.065C215.03 131.038 219.754 129.143 221.848 125.34C223.07 123.129 222.096 119.603 219.544 118.824C216.598 117.932 213.871 120.864 211.202 121.604C209.481 122.073 207.723 122.399 205.947 122.578C205.46 122.632 205.003 122.671 204.53 122.71C202.045 122.909 199.547 122.891 197.065 122.656C196.801 122.656 196.543 122.573 196.329 122.419C196.115 122.264 195.955 122.046 195.872 121.795C195.789 121.545 195.787 121.274 195.867 121.022C195.946 120.77 196.103 120.55 196.315 120.392L196.763 120.066" stroke="black" stroke-width="4.05" stroke-miterlimit="10"/>
<path d="M226.64 154.544C223.874 161.766 222.311 169.31 220.533 177.024C217.533 189.973 204.74 206.107 189.774 200.4C180.628 196.913 177.419 186.832 176.299 177.944C174.546 164.182 174.692 150.044 177.273 136.398C179.416 125.158 183.219 113.353 194.157 107.826L199.29 105.26C200.515 104.641 201.932 104.526 203.24 104.939C204.548 105.353 205.642 106.261 206.288 107.471C206.682 108.222 206.891 109.057 206.897 109.906C206.902 110.03 206.892 110.154 206.868 110.276" stroke="black" stroke-width="4.05" stroke-miterlimit="10"/>
<path d="M330.897 260.185C333.542 260.103 336.188 260.17 338.825 260.385C340.978 260.56 343.208 260.662 345.259 261.466C346.949 262.138 348.712 263.74 348.624 265.698C348.463 269.536 343.437 269.506 340.681 269.506" stroke="black" stroke-width="4.05" stroke-miterlimit="10"/>
<path opacity="0.54" d="M283.6 256.527L306.518 197.809C306.802 196.671 306.822 195.483 306.577 194.337C306.333 193.189 305.83 192.113 305.107 191.19C304.383 190.267 303.459 189.521 302.404 189.008C301.349 188.496 300.191 188.231 299.018 188.235H208.008C205.967 188.239 203.989 188.93 202.389 190.195C200.788 191.459 199.659 193.225 199.183 195.209L174.064 253.912C173.791 255.045 173.779 256.225 174.029 257.364C174.278 258.502 174.783 259.57 175.504 260.485C176.225 261.4 177.145 262.141 178.194 262.649C179.242 263.158 180.393 263.422 181.559 263.423H274.77C276.8 263.421 278.771 262.743 280.371 261.493C281.971 260.244 283.107 258.496 283.6 256.527Z" fill="white"/>
<path d="M283.6 256.527L306.518 197.809C306.802 196.671 306.822 195.483 306.577 194.337C306.333 193.189 305.83 192.113 305.107 191.19C304.383 190.267 303.459 189.521 302.404 189.008C301.349 188.496 300.191 188.231 299.018 188.235H208.008C205.967 188.239 203.989 188.93 202.389 190.195C200.788 191.459 199.659 193.225 199.183 195.209L174.064 253.912C173.791 255.045 173.779 256.225 174.029 257.364C174.278 258.502 174.783 259.57 175.504 260.485C176.225 261.4 177.145 262.141 178.194 262.649C179.242 263.158 180.393 263.422 181.559 263.423H274.77C276.8 263.421 278.771 262.743 280.371 261.493C281.971 260.244 283.107 258.496 283.6 256.527Z" fill="#3FBDF1"/>
<path d="M283.6 256.527L306.518 197.809C306.802 196.671 306.822 195.483 306.577 194.337C306.333 193.189 305.83 192.113 305.107 191.19C304.383 190.267 303.459 189.521 302.404 189.008C301.349 188.496 300.191 188.231 299.018 188.235H208.008C205.967 188.239 203.989 188.93 202.389 190.195C200.788 191.459 199.659 193.225 199.183 195.209L174.064 253.912C173.791 255.045 173.779 256.225 174.029 257.364C174.278 258.502 174.783 259.57 175.504 260.485C176.225 261.4 177.145 262.141 178.194 262.649C179.242 263.158 180.393 263.422 181.559 263.423H274.77C276.8 263.421 278.771 262.742 280.371 261.493C281.971 260.244 283.107 258.496 283.6 256.527Z" stroke="black" stroke-width="4.05" stroke-linecap="square" stroke-linejoin="round"/>
<path d="M280.244 254.151L301.39 199.982C301.652 198.933 301.671 197.839 301.447 196.782C301.223 195.724 300.76 194.732 300.095 193.881C299.43 193.029 298.579 192.34 297.608 191.867C296.636 191.393 295.57 191.147 294.489 191.147H210.506C208.621 191.147 206.789 191.781 205.309 192.948C203.828 194.116 202.783 195.747 202.344 197.581L179.216 251.74C178.967 252.785 178.957 253.873 179.189 254.922C179.42 255.971 179.886 256.954 180.551 257.798C181.216 258.641 182.064 259.323 183.031 259.792C183.997 260.261 185.057 260.505 186.131 260.506H272.102C273.974 260.507 275.792 259.883 277.268 258.731C278.743 257.579 279.791 255.967 280.244 254.151Z" fill="#3FBDF1"/>
<path d="M216.564 201.131C217.679 199.461 219.486 198.696 220.635 199.471C221.785 200.245 221.785 202.193 220.674 203.854C220.499 204.109 220.304 204.35 220.09 204.574L228.34 221.994C229.655 221.118 231.101 220.899 232.143 221.59C232.477 221.834 232.754 222.147 232.954 222.509C233.154 222.871 233.273 223.272 233.302 223.684L238.942 221.785L243.87 220.124L245.477 219.598C245.681 218.993 245.962 218.417 246.315 217.884C247.878 215.532 250.435 214.475 252.027 215.547C253.62 216.618 253.639 219.321 252.12 221.653L261.519 234.486C263.569 232.806 265.98 232.285 267.65 233.395C269.925 234.91 269.959 238.859 267.728 242.21C267.636 242.346 267.533 242.453 267.441 242.58L273.694 251.132L273.752 251.214C274.072 251.697 274.187 252.287 274.072 252.854C273.957 253.421 273.621 253.919 273.139 254.239C272.656 254.559 272.067 254.674 271.5 254.558C270.932 254.443 270.434 254.108 270.115 253.625L264.563 245.244C262.805 246.262 260.935 246.456 259.566 245.546C257.394 244.085 257.287 240.442 259.225 237.194L250.23 223.616C248.901 224.517 247.435 224.746 246.383 224.05C245.799 223.635 245.4 223.007 245.273 222.301L244.601 222.486L239.589 223.855L233.171 225.588C232.971 226.357 232.641 227.087 232.197 227.746C230.633 230.093 228.077 231.155 226.484 230.083C224.892 229.012 224.867 226.261 226.431 223.908C226.66 223.563 226.917 223.237 227.2 222.934L219.345 205.188C218.4 205.836 217.353 206.001 216.603 205.5C215.473 204.75 215.454 202.782 216.564 201.131Z" fill="#D7E8F0"/>
<path d="M276.324 202.065H288.499C289.055 202.064 289.599 201.902 290.066 201.598C290.532 201.293 290.899 200.86 291.124 200.351C291.19 200.197 291.227 200.032 291.231 199.864C291.229 199.532 291.096 199.213 290.861 198.979C290.626 198.744 290.307 198.612 289.974 198.612H277.035C277.644 199.63 277.337 201.057 276.324 202.065Z" fill="#D7E8F0"/>
<path d="M268.454 200.819C268.455 201.15 268.588 201.467 268.822 201.7C269.057 201.934 269.374 202.066 269.705 202.066H276.324C277.337 201.058 277.644 199.631 277.035 198.603H271.191C270.635 198.603 270.091 198.764 269.625 199.068C269.159 199.371 268.79 199.803 268.566 200.312C268.494 200.472 268.456 200.644 268.454 200.819Z" fill="#3FBDF1"/>
<path d="M271.498 202.066C271.533 202.133 271.574 202.196 271.619 202.256C272.486 203.444 274.371 203.556 275.832 202.49C276.005 202.362 276.168 202.22 276.319 202.066C277.332 201.058 277.639 199.631 277.03 198.604C276.998 198.536 276.959 198.473 276.913 198.414C276.051 197.221 274.166 197.118 272.705 198.175C272.532 198.306 272.37 198.449 272.218 198.604C271.205 199.617 270.899 201.034 271.498 202.066Z" fill="white"/>
<path d="M265.415 208.46C265.417 208.792 265.551 209.109 265.787 209.342C266.022 209.576 266.34 209.707 266.672 209.707H279.446C278.827 208.674 279.134 207.272 280.147 206.244H268.133C267.575 206.245 267.03 206.407 266.563 206.711C266.096 207.016 265.728 207.448 265.503 207.958C265.441 208.119 265.412 208.289 265.415 208.46Z" fill="#3FBDF1"/>
<path d="M279.426 209.706H285.436C285.991 209.706 286.535 209.546 287 209.243C287.466 208.94 287.835 208.509 288.061 208.002C288.129 207.848 288.167 207.683 288.173 207.515C288.173 207.35 288.141 207.187 288.079 207.035C288.016 206.883 287.924 206.745 287.807 206.628C287.691 206.512 287.553 206.42 287.401 206.357C287.249 206.294 287.086 206.263 286.921 206.263H280.127C279.114 207.257 278.808 208.674 279.426 209.706Z" fill="#D7E8F0"/>
<path d="M279.426 209.707C279.454 209.774 279.49 209.838 279.533 209.897C280.395 211.09 282.28 211.197 283.741 210.136C283.914 210.005 284.076 209.861 284.228 209.707C285.231 208.694 285.538 207.272 284.939 206.244C284.903 206.179 284.864 206.115 284.822 206.055C283.95 204.866 282.066 204.759 280.605 205.826C280.432 205.952 280.268 206.092 280.118 206.244C279.114 207.257 278.808 208.675 279.426 209.707Z" fill="white"/>
<path d="M275.155 217.295H282.801C283.358 217.294 283.902 217.132 284.369 216.829C284.835 216.526 285.204 216.094 285.431 215.585C285.497 215.431 285.534 215.266 285.538 215.098C285.538 214.765 285.405 214.444 285.17 214.208C284.934 213.972 284.615 213.838 284.281 213.837H275.881C276.485 214.864 276.173 216.282 275.155 217.295Z" fill="#3FBDF1"/>
<path d="M262.776 216.053C262.776 216.217 262.809 216.379 262.872 216.53C262.936 216.68 263.028 216.818 263.144 216.933C263.261 217.048 263.398 217.14 263.55 217.202C263.701 217.264 263.863 217.296 264.027 217.295H275.155C276.158 216.282 276.47 214.86 275.866 213.827H265.512C264.955 213.827 264.409 213.989 263.943 214.295C263.477 214.6 263.11 215.035 262.888 215.546C262.816 215.706 262.777 215.878 262.776 216.053Z" fill="#D7E8F0"/>
<path d="M270.344 217.294C270.379 217.361 270.419 217.424 270.465 217.484C271.327 218.677 273.207 218.78 274.673 217.718C274.846 217.589 275.009 217.448 275.16 217.294C276.163 216.281 276.475 214.859 275.871 213.827C275.839 213.76 275.8 213.696 275.754 213.637C274.882 212.453 273.003 212.351 271.537 213.408C271.365 213.536 271.202 213.676 271.05 213.827C270.046 214.84 269.735 216.267 270.344 217.294Z" fill="white"/>
<path d="M225.729 253.078H233.38C233.936 253.077 234.48 252.915 234.945 252.612C235.411 252.309 235.779 251.877 236.005 251.369C236.072 251.215 236.108 251.049 236.112 250.882C236.112 250.549 235.98 250.229 235.744 249.994C235.508 249.758 235.189 249.625 234.856 249.625H226.455C227.044 250.648 226.733 252.065 225.729 253.078Z" fill="#3FBDF1"/>
<path d="M195.37 251.837C195.37 252.001 195.403 252.162 195.467 252.314C195.53 252.465 195.622 252.602 195.739 252.717C195.854 252.832 195.992 252.923 196.144 252.986C196.296 253.048 196.458 253.079 196.621 253.079H225.729C226.733 252.066 227.044 250.644 226.44 249.616H198.107C197.55 249.616 197.005 249.777 196.539 250.082C196.073 250.387 195.705 250.82 195.482 251.33C195.412 251.49 195.374 251.662 195.37 251.837Z" fill="#D7E8F0"/>
<path d="M220.903 253.079C220.939 253.146 220.979 253.209 221.025 253.269C221.887 254.462 223.767 254.565 225.233 253.508C225.405 253.376 225.567 253.233 225.72 253.079C226.723 252.066 227.035 250.644 226.431 249.617C226.399 249.549 226.36 249.485 226.314 249.427C225.442 248.239 223.562 248.136 222.096 249.193C221.923 249.321 221.76 249.463 221.609 249.617C220.611 250.625 220.295 252.052 220.903 253.079Z" fill="white"/>
<path d="M33.2037 271.834C33.2037 271.834 17.1327 344.431 58.4741 359.596C99.8155 374.761 211.49 360.517 165.078 308.135C118.667 255.753 33.2037 271.834 33.2037 271.834Z" fill="#2E2E2E"/>
<path d="M233.799 110.549C239.418 109.376 245.114 108.617 250.844 108.274C250.966 108.274 251.068 108.274 251.175 108.274C254.94 108.026 261.534 107.919 265.298 107.88" stroke="black" stroke-width="4.05" stroke-miterlimit="10"/>
<path d="M205.947 122.564C205.909 122.588 205.884 122.618 205.845 122.642" stroke="black" stroke-width="4.05" stroke-miterlimit="10"/>
<path d="M270.017 92.0424C267.144 93.5521 263.842 92.5294 262.576 89.958" stroke="black" stroke-width="4.05" stroke-miterlimit="10"/>
<path d="M253.337 55.3471C253.208 57.5815 253.781 59.8003 254.977 61.6918C256.173 63.5838 257.931 65.0535 260.004 65.8955C260.443 65.0905 261.071 64.4053 261.836 63.8988C265.064 61.8096 264.49 67.3906 273.256 65.9199C285.406 63.8696 288.504 68.1017 288.504 68.1017C288.772 68.4718 288.017 70.8873 287.91 71.3305C287.423 73.9262 286.936 76.5073 286.492 79.1225C286.207 80.7067 285.918 82.2811 285.626 83.8464C285.847 83.6321 286.081 83.4319 286.327 83.2473C288.324 80.1306 291.25 76.6339 294.44 79.4877C295.081 80.0819 295.572 80.8197 295.872 81.6403C297.333 85.6093 294.538 88.1612 291.27 89.6904C290.408 90.2119 289.492 90.6381 288.538 90.9614C288.698 91.9647 289.366 95.9629 289.366 95.9727C289.434 96.3817 297.547 91.3803 298.224 90.7715C299.448 89.1542 300.39 87.3435 301.015 85.4145C303.537 77.4569 303.109 67.1715 298.029 60.6262C296.768 59.0045 297.611 58.0695 297.976 56.4916C297.993 56.4063 297.985 56.3182 297.952 56.2383C297.919 56.158 297.862 56.0898 297.79 56.0421C297.718 55.9943 297.633 55.9695 297.546 55.9705C297.459 55.9719 297.375 55.9987 297.304 56.0484C294.567 57.7675 289.614 56.0094 289.614 56.0094C273.543 46.357 265.308 52.3277 261.368 52.6297C259.77 52.7392 258.184 52.2878 256.883 51.3537C256.654 51.8057 256.306 52.1865 255.878 52.4558C255.449 52.7251 254.954 52.8727 254.448 52.8829L254.292 53.7205C254.173 54.3571 253.835 54.9322 253.337 55.3471Z" fill="#3FBDF1"/>
<path d="M260.014 65.9146C257.94 65.0731 256.182 63.6033 254.986 61.7113C253.791 59.8193 253.218 57.6005 253.347 55.3662C253.395 54.5081 253.519 53.6558 253.717 52.8192L253.858 52.8484C254.05 52.8917 254.247 52.9063 254.443 52.8922C254.949 52.8825 255.444 52.7349 255.873 52.4656C256.302 52.1963 256.649 51.815 256.878 51.363C257.012 51.1117 257.106 50.8405 257.155 50.5595L257.905 46.4834C257.905 46.4834 260.34 49.7803 264.236 49.4735C268.132 49.1667 276.368 43.1961 292.482 52.8533C292.482 52.8533 296.349 54.2802 299.086 52.5611C299.157 52.5119 299.241 52.4846 299.328 52.4836C299.415 52.4827 299.5 52.5075 299.572 52.5552C299.645 52.6029 299.701 52.6711 299.734 52.751C299.767 52.8313 299.776 52.9195 299.758 53.0042C299.393 54.5772 299.636 55.8483 300.898 57.47C305.977 64.0153 306.406 74.3007 303.883 82.2583C302.779 85.5563 300.817 88.5007 298.2 90.7906C297.523 91.3993 289.409 96.4008 289.341 95.9917C289.341 95.9917 288.674 91.9837 288.513 90.9805L288.474 90.7516L288.703 90.6834C289.571 90.4151 290.42 90.0898 291.245 89.7094C294.513 88.1802 297.323 85.6284 295.848 81.6593C295.547 80.8392 295.056 80.1014 294.416 79.5068C291.226 76.653 288.299 80.1496 286.302 83.2664C285.916 83.8581 285.6 84.4922 285.358 85.156C285.436 84.7274 285.513 84.3086 285.596 83.88C285.888 82.3119 286.177 80.7374 286.463 79.1561C286.95 76.5556 287.403 73.9745 287.88 71.3641C287.968 70.921 288.742 68.5054 288.474 68.1353C288.474 68.1353 285.377 63.9033 273.226 65.9536C264.46 67.4146 265.035 61.8433 261.806 63.9325C261.042 64.439 260.414 65.1247 259.975 65.9292C259.839 66.1917 259.719 66.4615 259.615 66.7376C259.597 66.7722 259.583 66.8082 259.571 66.8448C259.352 67.4487 259.152 68.0574 258.957 68.6515C257.136 74.442 255.933 80.695 256.576 86.7777C257.36 94.1509 262.732 102.819 271.278 102.084C273.968 101.769 276.591 101.033 279.051 99.9023" stroke="black" stroke-width="4.05" stroke-miterlimit="10"/>
<path d="M260.947 81.6296C261.783 81.6057 262.437 80.7671 262.409 79.7561C262.38 78.7451 261.68 77.9449 260.843 77.9688C260.007 77.9922 259.352 78.8308 259.381 79.8418C259.41 80.8528 260.111 81.6529 260.947 81.6296Z" fill="black"/>
<path d="M272.391 84.7052C273.227 84.6814 273.882 83.8428 273.853 82.8322C273.825 81.8212 273.124 81.0206 272.288 81.0445C271.451 81.0683 270.797 81.9069 270.825 82.9175C270.854 83.9285 271.555 84.7291 272.391 84.7052Z" fill="black"/>
<path d="M267.451 85.3795C267.451 85.3795 263.024 86.3535 263.472 84.0841C263.608 83.3731 264.719 76.3895 264.719 76.3895C264.719 76.3895 262.654 72.2305 257.253 73.1996" stroke="black" stroke-width="4.05" stroke-miterlimit="10"/>
<path d="M269.438 75.7685C269.438 75.7685 276.455 74.5753 279.144 80.1807" stroke="black" stroke-width="4.05" stroke-miterlimit="10"/>
<path d="M265.376 107.821C259.849 110.743 256.897 117.775 259.211 122.864C263.068 131.343 273.222 133.836 281.613 131.387C290.944 128.66 297.801 120.059 297.391 110.197" stroke="black" stroke-width="4.05" stroke-miterlimit="10"/>
<path d="M298.843 269.501C314.87 232.256 320.69 166.515 320.69 166.515V258.237C320.689 259.717 320.98 261.181 321.546 262.548C322.112 263.915 322.941 265.157 323.988 266.203C325.034 267.249 326.275 268.079 327.642 268.645C329.009 269.211 330.474 269.502 331.954 269.501H367.505C368.838 269.522 370.131 269.05 371.137 268.175C372.143 267.301 372.79 266.086 372.954 264.763C373.026 264.034 372.944 263.298 372.714 262.603C372.483 261.908 372.11 261.27 371.618 260.728C371.125 260.185 370.525 259.753 369.855 259.457C369.186 259.162 368.461 259.01 367.729 259.011H353.168C352.587 259.009 352.014 258.875 351.493 258.618C350.973 258.362 350.517 257.99 350.162 257.53C349.807 257.071 349.561 256.536 349.444 255.968C349.327 255.399 349.341 254.811 349.486 254.248C358.252 219.671 363.672 179.085 352.262 143.169C349.905 135.757 344.825 129.153 338.825 124.049C331.939 118.166 323.451 115.468 314.753 113.471C309.016 112.157 303.229 111.069 297.391 110.208C297.374 110.214 297.355 110.214 297.338 110.208C297.299 110.208 297.26 110.208 297.236 110.208H297.197H297.143H297.065" stroke="black" stroke-width="4.05" stroke-miterlimit="10"/>
<path d="M293.719 93.6597L293.077 105.294C293.015 106.431 293.372 107.551 294.08 108.443C294.788 109.335 295.798 109.937 296.919 110.135H297.065C297.09 110.128 297.118 110.128 297.143 110.135H297.167H297.236" stroke="black" stroke-width="4.05" stroke-miterlimit="10"/>
<path d="M297.338 110.189H297.236H297.197H297.167H297.143H297.065H296.919C295.798 109.99 294.788 109.388 294.08 108.497C293.372 107.605 293.015 106.484 293.077 105.348L293.719 93.7134" stroke="black" stroke-width="4.05" stroke-miterlimit="10"/>
<path d="M266.297 101.36C265.98 101.233 266.297 114.353 258.47 120.051" stroke="black" stroke-width="4.05" stroke-miterlimit="10"/>
<path d="M161.518 269.505H136.448" stroke="black" stroke-width="4.05" stroke-miterlimit="10"/>
<path d="M406.445 269.505H200.552" stroke="black" stroke-width="4.05" stroke-miterlimit="10"/>
<path d="M88.9993 146.328C89.2408 151.24 89.065 156.163 88.4733 161.045C87.7136 166.782 82.4101 174.072 81.2608 179.746C79.6196 187.908 82.1033 196.343 85.5123 203.92C89.6324 213.081 96.1241 222.295 95.491 232.785C95.1666 237.353 93.8074 241.789 91.5156 245.754C89.2243 249.719 86.0602 253.112 82.264 255.674C77.0643 259.153 71.1244 261.371 64.9171 262.151C64.0502 262.253 63.1688 262.336 62.2873 262.36C61.8003 262.36 61.3133 262.307 60.8263 262.268C44.317 260.87 27.384 248.276 27.423 230.744C27.423 219.543 35.9357 210.777 37.3723 199.908C38.2538 193.26 36.3059 186.354 38.1078 179.902C41.0298 169.597 52.3233 163.977 57.2712 154.49C60.914 147.487 61.5081 139.315 64.3911 131.971C68.404 121.744 74.8129 110.056 83.5789 109.082C86.1225 109.37 88.5814 110.172 90.806 111.439C96.241 114.361 97.624 114.546 98.7295 117.152C99.8594 119.874 98.1743 122.781 95.3595 123.653C90.6064 125.158 88.5561 134.815 88.9993 146.328Z" fill="#3FBDF1"/>
<path d="M93.7767 113.024C108.046 108.889 117.114 114.972 123.601 121.984C130.087 128.997 129.786 136.96 129.786 136.96" stroke="black" stroke-width="4.05" stroke-miterlimit="10"/>
<path d="M138.035 250.181C137.82 261.329 136.408 272.421 133.823 283.268" stroke="black" stroke-width="4.05" stroke-miterlimit="10"/>
<path d="M173.494 340.967C168.268 349.957 155.874 356.342 140.709 360.316C113.797 367.367 78.1684 366.817 58.4838 359.59C17.118 344.43 33.1987 271.833 33.1987 271.833C33.1987 271.833 104.744 258.367 152.45 296.183C157.008 299.785 161.238 303.783 165.093 308.129C170.367 314.094 173.606 319.554 175.135 324.541C177.01 330.755 176.26 336.229 173.494 340.967Z" stroke="black" stroke-width="4.05" stroke-miterlimit="10"/>
<path d="M146.071 359.09C146.071 359.09 121.005 428.668 163.116 446.439C205.227 464.209 8.4738 466.576 51.9045 446.439C95.3352 426.301 70.3715 363.342 70.3715 363.342" stroke="black" stroke-width="4.05" stroke-miterlimit="10"/>
<path d="M197.06 122.641C196.539 121.049 196.753 115.512 196.923 112.385C196.956 111.795 197.218 111.24 197.652 110.839C198.086 110.439 198.66 110.222 199.251 110.238L249.281 110.676C250.124 110.684 250.931 111.024 251.524 111.623C252.118 112.223 252.451 113.032 252.451 113.875V151.418C252.451 151.84 252.368 152.257 252.206 152.646C252.045 153.035 251.807 153.389 251.509 153.686C251.21 153.983 250.856 154.219 250.466 154.378C250.076 154.538 249.658 154.62 249.237 154.618L200.483 154.438C199.777 154.408 199.11 154.107 198.62 153.598C198.131 153.087 197.858 152.407 197.858 151.701V148.837C201.326 150.454 207.881 150.951 207.881 150.951C210.214 150.887 213.9 150.605 215.921 149.446C217.772 148.384 220.109 146.86 220.426 144.552C220.548 143.659 220.312 142.754 219.769 142.035C219.226 141.315 218.421 140.841 217.528 140.714C216.992 140.607 216.437 140.646 215.921 140.826" stroke="black" stroke-width="4.05" stroke-miterlimit="10"/>
<path d="M245.886 226.679C245.863 227.349 245.638 227.996 245.239 228.535C244.094 229.942 241.83 229.665 240.291 229.231C233.819 227.39 229.932 234.403 227.487 239.127C221.312 251.068 212.05 262.162 200.493 269.506C199.743 269.993 198.979 270.451 198.204 270.899C186.911 277.415 172.276 276.202 161.353 269.438L175.32 235.129L176.703 236.234C185.138 242.891 195.521 239.156 202.709 232.587C204.704 230.769 206.465 228.709 207.949 226.455C210.423 222.652 212.541 218.546 215.926 215.454C220.611 211.173 227.468 210.336 233.39 212.147C239.312 213.959 246.422 219.783 245.886 226.679Z" fill="white"/>
<path d="M245.828 224.249C245.828 224.249 244.24 215.843 229.927 222.403" stroke="black" stroke-width="4.05" stroke-miterlimit="10"/>
<path d="M237.865 214.159C237.865 214.159 228.944 211.305 223.976 218.123" stroke="black" stroke-width="4.05" stroke-miterlimit="10"/>
<path d="M57.768 262.285C60.1499 262.497 62.5479 262.457 64.922 262.168C71.1278 261.377 77.0644 259.155 82.2641 255.676C86.0602 253.113 89.2238 249.721 91.5156 245.756C93.8069 241.79 95.1667 237.356 95.491 232.787C96.1241 222.292 89.647 213.078 85.5124 203.918C82.1034 196.335 79.6197 187.9 81.2657 179.748C82.4102 174.069 87.7039 166.783 88.4685 161.042C89.0631 156.16 89.2423 151.237 89.0041 146.325C88.561 134.807 90.6064 125.141 95.3595 123.67C98.1744 122.798 99.8642 119.886 98.7295 117.168C97.6435 114.558 96.2458 114.402 90.8061 111.446C76.6246 103.732 66.7629 118.113 61.3182 131.978C58.4303 139.327 57.8459 147.489 54.1983 154.492C49.2503 163.984 37.9324 169.589 35.0396 179.913C33.2329 186.361 35.1809 193.272 34.3043 199.91C32.8725 210.775 24.3743 219.536 24.35 230.746C24.311 248.274 41.2635 260.877 57.768 262.285Z" stroke="black" stroke-width="4.05" stroke-miterlimit="10"/>
<path d="M173.494 340.969C172.271 349.667 170.45 359.645 168.444 369.634C162.755 397.943 155.519 426.423 155.519 426.423" stroke="black" stroke-width="4.05" stroke-miterlimit="10"/>
<path d="M175.115 324.541C175.14 323.479 175.154 322.505 175.115 321.58C174.682 301.613 160.325 296.84 154.15 295.696C153.229 295.516 152.297 295.397 151.36 295.34" stroke="black" stroke-width="4.05" stroke-miterlimit="10"/>
<path d="M157.661 417.788C158.456 417.301 159.366 417.035 160.298 417.018C161.23 417 162.15 417.231 162.962 417.687C163.775 418.143 164.452 418.807 164.922 419.612C165.393 420.416 165.64 421.332 165.638 422.264C165.638 422.332 165.638 422.415 165.638 422.512C165.561 424.917 164.927 427.271 163.787 429.39C162.647 431.509 161.032 433.335 159.069 434.726L152.3 439.542" stroke="black" stroke-width="4.05" stroke-miterlimit="10"/>
<path d="M80.7641 186.184C81.7089 185.799 82.6731 185.458 83.6471 185.142C85.6974 181.353 85.3809 173.059 85.1861 170.045L87.2363 165.423C92.8953 168.9 100.385 167.595 107.335 165.175C108.311 164.834 109.26 164.421 110.174 163.938C114.586 161.912 120.771 157.12 117.995 154.646C115.219 152.172 115.414 147.409 117.192 144.487C117.732 143.591 118.692 142.71 119.69 142.987C120.362 143.172 120.796 143.8 121.18 144.38C121.667 145.106 122.154 145.802 122.641 146.513C122.812 146.752 123.089 147 123.352 146.893C123.464 146.82 123.55 146.715 123.601 146.591C124.458 144.828 124.297 142.301 124.443 140.367C124.614 138.064 124.745 135.746 124.813 133.432C124.852 132.156 125.115 130.788 126.484 130.34C126.76 130.234 127.057 130.191 127.352 130.217C127.647 130.242 127.932 130.334 128.186 130.486C128.44 130.638 128.656 130.846 128.817 131.094C128.979 131.343 129.082 131.624 129.118 131.918C130.114 137.515 130.26 143.23 129.552 148.87C128.88 154.777 127.667 161.045 123.878 165.808C121.72 168.556 118.828 170.636 115.536 171.808C112.351 172.913 112.453 176.756 112.453 180.126V185.721C122.247 187.708 131.446 190.104 139.053 196.922C144.084 201.522 148.817 206.436 153.225 211.635C167.099 227.915 170.099 230.969 176.781 236.233C185.216 242.89 195.604 239.155 202.787 232.585C204.779 230.767 206.536 228.707 208.017 226.454C210.491 222.651 212.61 218.545 215.989 215.453C220.679 211.172 227.536 210.334 233.458 212.146C239.38 213.958 246.5 219.782 245.935 226.678C245.911 227.347 245.687 227.994 245.292 228.534C244.148 229.941 241.883 229.663 240.344 229.23C233.867 227.389 229.986 234.402 227.536 239.126C221.366 251.067 212.098 262.161 200.542 269.505C199.792 269.992 199.032 270.45 198.253 270.898C185.342 278.349 168.034 275.69 156.931 266.198L130.146 243.46" stroke="black" stroke-width="4.05" stroke-miterlimit="10"/>
<path d="M83.6472 185.143C83.6472 185.143 96.4406 181.189 112.453 185.737" stroke="black" stroke-width="4.05" stroke-miterlimit="10"/>
<path d="M197.858 148.837C197.858 148.837 197.956 165.395 201.905 171.77" stroke="black" stroke-width="4.05" stroke-miterlimit="10"/>
<path d="M210.837 73.0497C207.798 78.2362 207.939 81.918 208.728 87.8934C208.793 88.4024 208.714 88.9191 208.497 89.3846C208.282 89.8502 207.939 90.2452 207.508 90.5242C207.077 90.8033 206.577 90.9547 206.063 90.9615C205.551 90.9679 205.046 90.8296 204.608 90.5622C187.076 80.4716 170.669 88.4535 149.738 83.5104C142.053 81.7037 132.474 77.9684 125.904 71.9539C123.725 68.7169 122.561 64.9032 122.563 61.0013C122.563 44.6428 144.912 31.377 172.466 31.377C190.13 31.377 205.645 36.8265 214.519 45.0373C214.519 45.0373 214.519 45.0373 214.543 45.0665C216.769 48.2671 217.984 52.0624 218.03 55.9609C218.03 61.8487 213.666 68.1797 210.837 73.0497Z" fill="#D7E8F0"/>
<path d="M217.952 55.9712V56.3852C217.85 62.1172 214.981 67.445 211.577 72.0569C209.298 75.1444 206.595 78.568 207.238 82.352C207.52 84.0176 208.451 85.5321 208.699 87.222C208.947 88.9119 208.042 90.9817 206.352 91.0693C205.28 91.1229 204.365 90.3583 203.517 89.7009C198.487 85.8049 191.951 84.3439 185.596 84.0906C179.24 83.8374 172.895 84.6702 166.535 84.8503C157.369 85.1133 148.058 83.9689 139.589 80.4673C131.977 77.2921 125.037 72.1299 120.469 65.2583C115.984 58.4842 118.638 48.6564 123.42 42.7686C127.911 37.246 134.407 33.7104 141.074 31.2218C159.001 24.5256 179.464 24.6863 197.147 32.0156C202.397 34.1682 207.462 37.0122 211.407 41.1128C215.254 45.1111 217.918 50.4389 217.952 55.9712Z" stroke="black" stroke-width="4.05" stroke-miterlimit="10"/>
<path d="M144.386 62.4872C148.189 62.4872 151.272 59.4045 151.272 55.601C151.272 51.798 148.189 48.7148 144.386 48.7148C140.583 48.7148 137.5 51.798 137.5 55.601C137.5 59.4045 140.583 62.4872 144.386 62.4872Z" fill="white"/>
<path d="M166.651 62.4872C170.454 62.4872 173.538 59.4045 173.538 55.601C173.538 51.798 170.454 48.7148 166.651 48.7148C162.848 48.7148 159.765 51.798 159.765 55.601C159.765 59.4045 162.848 62.4872 166.651 62.4872Z" fill="white"/>
<path d="M189.351 62.4872C193.154 62.4872 196.237 59.4045 196.237 55.601C196.237 51.798 193.154 48.7148 189.351 48.7148C185.548 48.7148 182.464 51.798 182.464 55.601C182.464 59.4045 185.548 62.4872 189.351 62.4872Z" fill="white"/>
<g opacity="0.54">
<path opacity="0.54" d="M321.673 344.31L318.873 384.731C317.593 387.171 315.992 389.429 314.115 391.446C313.91 391.373 313.706 391.295 313.506 391.203C313.131 391.076 312.761 390.925 312.41 390.779C306.737 388.291 302.427 383.654 301.171 378.4C300.036 373.797 301.059 368.825 298.867 364.501C296.193 359.173 288.922 355.832 288.031 349.822C287.194 344.198 292.258 339.04 291.44 333.527C290.466 327.294 282.845 323.598 281.418 317.51C280.527 313.726 281.325 309.382 280.989 305.486C280.619 301.128 279.887 296.808 278.803 292.571C290.086 291.753 301.57 297.972 305.227 306.879C308.213 314.184 306.416 322.692 311.071 329.334C313.613 332.933 317.845 335.626 320.037 339.391C320.713 340.566 321.206 341.837 321.498 343.16C321.498 343.253 321.498 343.345 321.532 343.418C321.532 343.569 321.571 343.677 321.59 343.789C321.639 344.125 321.673 344.31 321.673 344.31Z" fill="#3FBDF1"/>
<path opacity="0.54" d="M321.693 344.275C321.693 344.275 321.659 344.109 321.62 343.788C321.653 343.916 321.677 344.046 321.693 344.177C321.7 344.192 321.703 344.209 321.703 344.226C321.703 344.242 321.7 344.259 321.693 344.275Z" fill="#3FBDF1"/>
</g>
<path d="M358.973 328.501C357.512 333.751 349.51 336.941 348.546 342.322C347.694 347.095 352.963 351.546 352.091 356.392C351.161 361.588 343.588 364.461 340.808 369.054C338.543 372.784 339.6 377.075 338.431 381.044C337.077 385.553 332.587 389.581 326.665 391.714C326.295 391.845 325.944 391.972 325.569 392.084C325.365 392.143 325.141 392.216 324.936 392.269C322.988 390.657 320.724 387.818 318.888 384.755L321.673 344.309C323.845 342.469 326.329 340.784 328.058 338.738C329.933 336.532 330.805 334.121 331.36 331.594H331.418V331.316C332.232 327.328 332.305 323.149 334.18 319.365C337.983 311.666 349.919 306.299 361.666 307.005C360.557 310.642 359.799 314.376 359.401 318.158C359.065 321.503 359.893 325.253 358.973 328.501Z" fill="#3FBDF1"/>
<path d="M331.438 331.282V331.559H331.379L331.438 331.282Z" fill="#3FBDF1"/>
<path d="M331.438 331.282L331.379 331.559C330.824 334.087 329.952 336.497 328.077 338.703C326.348 340.749 323.865 342.434 321.693 344.275C321.701 344.249 321.701 344.222 321.693 344.197C321.678 344.065 321.653 343.935 321.62 343.807C321.62 343.695 321.581 343.588 321.561 343.437C321.561 343.364 321.561 343.272 321.527 343.179C321.235 341.855 320.742 340.584 320.066 339.41C317.875 335.645 313.643 332.952 311.1 329.353C311.1 329.353 312.25 310.384 321.956 304.613C331.16 299.159 331.438 328.126 331.438 331.282Z" fill="#3FBDF1"/>
<path d="M331.438 331.282V331.559H331.379L331.438 331.282Z" fill="#3FBDF1"/>
<path d="M321.673 344.197V344.309C321.673 344.309 321.639 344.143 321.6 343.822C321.633 343.945 321.657 344.07 321.673 344.197Z" fill="#3FBDF1"/>
<path d="M320.806 344.309C322.969 342.468 325.482 340.758 327.215 338.718C332.085 332.976 330.205 325.637 333.327 319.34C337.126 311.65 349.072 306.289 360.813 306.99C359.699 310.625 358.938 314.36 358.544 318.142C358.193 321.512 359.031 325.257 358.111 328.52C356.615 333.77 348.643 336.955 347.674 342.336C346.812 347.104 352.096 351.555 351.224 356.396C350.294 361.597 342.726 364.47 339.941 369.058C337.666 372.793 338.733 377.074 337.554 381.053C336.127 385.85 331.16 390.087 324.688 392.088C324.483 392.156 324.259 392.229 324.05 392.283C322.102 390.671 319.837 387.832 317.996 384.764" stroke="black" stroke-width="4.05" stroke-miterlimit="10"/>
<path d="M353.645 313.013C336.137 331.855 327.902 371.58 324.697 392.092C324.435 393.821 324.21 395.404 323.996 396.831" stroke="black" stroke-width="4.05" stroke-miterlimit="10"/>
<path d="M355.262 408.383L347.231 455.909C347.04 457.21 346.394 458.403 345.409 459.274C344.423 460.145 343.16 460.638 341.845 460.667H299.729C298.401 460.637 297.127 460.133 296.137 459.246C295.148 458.359 294.508 457.148 294.333 455.831L286.906 408.378L355.262 408.383Z" stroke="black" stroke-width="4.05" stroke-miterlimit="10"/>
<path d="M362.912 403.076C362.84 404.486 362.238 405.816 361.227 406.8C360.215 407.785 358.869 408.351 357.458 408.385H284.841C283.446 408.351 282.114 407.797 281.106 406.831C280.099 405.864 279.489 404.557 279.397 403.164C279.09 399.755 281.613 396.833 284.841 396.833H357.458C360.658 396.838 363.171 399.716 362.912 403.076Z" stroke="black" stroke-width="4.05" stroke-miterlimit="10"/>
<path d="M313.253 391.436C316.37 388.343 320.188 381.448 321.878 375.818C323.271 371.177 320.821 366.399 320.256 361.636C319.38 354.18 323.081 346.164 319.18 339.405C317.003 335.635 312.771 332.957 310.229 329.348C305.549 322.701 307.346 314.198 304.356 306.907C300.698 297.99 289.22 291.771 277.941 292.599C279.018 296.838 279.75 301.157 280.127 305.514C280.463 309.41 279.64 313.755 280.546 317.534C281.973 323.621 289.629 327.308 290.569 333.546C291.397 339.059 286.327 344.221 287.16 349.836C288.056 355.856 295.317 359.182 298 364.519C300.182 368.849 299.159 373.816 300.289 378.414C301.706 384.16 306.727 389.21 313.253 391.436Z" stroke="black" stroke-width="4.05" stroke-miterlimit="10"/>
<path d="M284.827 299.583C301.633 321.42 309.542 367.437 312.654 391.193C312.917 393.253 313.141 395.142 313.341 396.832" stroke="black" stroke-width="4.05" stroke-miterlimit="10"/>
<path d="M310.219 329.348C310.219 329.348 311.373 310.379 321.074 304.613C330.775 298.847 330.571 331.159 330.571 331.159" stroke="black" stroke-width="4.05" stroke-miterlimit="10"/>
<path d="M320.806 344.309C320.806 344.309 318.824 333.458 322.301 322.788" stroke="black" stroke-width="4.05" stroke-miterlimit="10"/>
</svg>
