<svg width="473" height="473" viewBox="0 0 473 473" fill="none" xmlns="http://www.w3.org/2000/svg">
<path d="M355.649 115.255C353.681 109.797 351.491 104.376 349.093 99.1071C344.316 88.6207 343.218 78.683 336.506 69.9136" stroke="#CCDDE2" stroke-width="7.24" stroke-miterlimit="10"/>
<path d="M320.949 59.8625C315.174 53.9878 309.772 47.6733 299.958 42.9574C279.216 33.0244 252.695 32.0169 218.843 46.065" stroke="#CCDDE2" stroke-width="7.24" stroke-miterlimit="10"/>
<path d="M76.5218 444.847C43.7192 398.479 33.1098 346.056 38.5919 292.442" stroke="#CCDDE2" stroke-width="7.24" stroke-miterlimit="10"/>
<path d="M374.105 216.583V217.155C373.784 227.561 383.4 270.698 410.673 284.401C437.946 298.104 457.391 358.251 395.901 381.849C334.411 405.447 337.76 444.848 337.76 444.848" stroke="#CCDDE2" stroke-width="7.24" stroke-miterlimit="10"/>
<path d="M218.838 90.6026V39.6416C218.83 36.1405 217.435 32.7853 214.959 30.3097C212.483 27.8341 209.128 26.4394 205.627 26.4307H36.8608C33.3597 26.4394 30.0046 27.8341 27.5289 30.3097C25.0533 32.7853 23.6587 36.1405 23.6499 39.6416V279.263C23.6561 282.763 25.0509 286.116 27.5279 288.588C30.0049 291.06 33.3616 292.447 36.8608 292.446H205.627C207.264 292.456 208.888 292.144 210.404 291.528" stroke="black" stroke-width="7.24" stroke-linecap="round" stroke-linejoin="round"/>
<path d="M201.11 34.5049H41.378C34.8603 34.5049 29.5767 39.7885 29.5767 46.3062V272.594C29.5767 279.112 34.8603 284.395 41.378 284.395H201.11C207.628 284.395 212.911 279.112 212.911 272.594V46.3062C212.911 39.7885 207.628 34.5049 201.11 34.5049Z" fill="#3FBDF1"/>
<path d="M198.22 53.8408H46.2736C43.0135 53.8408 40.3706 56.4839 40.3706 59.7439V94.7269C40.3706 97.9873 43.0135 100.63 46.2736 100.63H198.22C201.481 100.63 204.123 97.9873 204.123 94.7269V59.7439C204.123 56.4839 201.481 53.8408 198.22 53.8408Z" fill="#3FBDF1"/>
<path d="M121.244 73.5472C123.917 73.5472 126.083 71.3809 126.083 68.7084C126.083 66.036 123.917 63.8696 121.244 63.8696C118.572 63.8696 116.405 66.036 116.405 68.7084C116.405 71.3809 118.572 73.5472 121.244 73.5472Z" fill="#D7E8F0"/>
<path d="M107.721 90.6036C107.721 87.0169 109.146 83.5772 111.682 81.0415C114.218 78.5052 117.657 77.0806 121.244 77.0806C124.831 77.0806 128.27 78.5052 130.806 81.0415C133.342 83.5772 134.767 87.0169 134.767 90.6036H107.721Z" fill="#D7E8F0"/>
<path d="M122.228 150.763C117.069 150.76 112.026 152.288 107.735 155.152C103.444 158.016 100.1 162.089 98.1247 166.854C96.1494 171.62 95.6319 176.864 96.6375 181.923C97.6431 186.983 100.127 191.631 103.775 195.279C107.422 198.926 112.07 201.41 117.13 202.416C122.189 203.422 127.434 202.904 132.199 200.929C136.965 198.953 141.037 195.609 143.901 191.318C146.766 187.028 148.293 181.985 148.29 176.825C148.286 169.914 145.539 163.288 140.653 158.401C135.766 153.514 129.139 150.767 122.228 150.763ZM122.228 196.602C121.218 196.602 120.251 196.201 119.537 195.487C118.824 194.773 118.423 193.806 118.423 192.796C118.423 191.787 118.824 190.819 119.537 190.106C120.251 189.392 121.218 188.991 122.228 188.991C123.237 188.991 124.205 189.392 124.919 190.106C125.632 190.819 126.033 191.787 126.033 192.796C126.033 193.806 125.632 194.773 124.919 195.487C124.205 196.201 123.237 196.602 122.228 196.602ZM127.057 167.276C126.239 172.923 125.548 178.878 123.888 184.37C123.481 185.675 121.003 185.675 120.577 184.37C119.387 180.237 118.474 176.028 117.843 171.774C117.332 168.68 115.521 163.676 117.257 160.658C118.765 157.976 123.056 157.645 125.534 159.05C128.613 160.819 127.412 164.485 127.057 167.295V167.276Z" fill="#D7E8F0"/>
<path d="M56.7456 121.519H184.072" stroke="white" stroke-width="7.24" stroke-miterlimit="10"/>
<path d="M56.7456 134.047H184.072" stroke="white" stroke-width="7.24" stroke-miterlimit="10"/>
<path d="M56.7456 214.757H184.072" stroke="white" stroke-width="7.24" stroke-miterlimit="10"/>
<path d="M86.3225 226.609H154.496" stroke="white" stroke-width="7.24" stroke-miterlimit="10"/>
<path d="M70.2734 304.233C70.2734 304.233 92.9301 214.202 163.497 192.213L192.18 185.368C192.18 185.368 196.716 165.11 195.046 162.981C193.376 160.853 189.947 156.492 183.666 157.438C177.384 158.384 161.146 158.686 156.989 138.835C152.831 118.983 168.194 71.7962 208.12 64.7391C248.046 57.6819 248.978 86.9985 248.978 86.9985L219.652 154.954L224.202 209.775L224.774 291.439L70.2734 304.233Z" fill="white"/>
<path d="M314.129 234.685C313.656 234.822 307.62 236.577 305.246 240.758C304.794 239.801 304.078 238.992 303.184 238.426C302.289 237.859 301.253 237.56 300.194 237.56H229.315C228.054 237.558 226.829 237.984 225.842 238.769C224.855 239.553 224.163 240.65 223.88 241.879L209.922 301.728C208.976 301.543 208.03 301.43 207.046 301.335L174.106 293.114C172.694 292.76 171.199 292.945 169.915 293.633C168.631 294.321 167.65 295.464 167.163 296.836C166.943 297.453 166.835 298.103 166.841 298.757C166.841 300.242 167.404 301.673 168.417 302.76C169.43 303.846 170.818 304.508 172.3 304.613L187.875 305.615C172.872 312.677 154.619 326.129 139.383 338.489C124.56 315.279 138.471 292.074 148.933 279.577C147.585 265.803 140.755 233.823 106.676 234.694C118.415 219.638 133.055 206.735 151.194 198.098C213.328 266.967 284.41 210.661 285.919 209.45C296.549 216.384 306.061 224.896 314.129 234.694" fill="#2E2E2E"/>
<path d="M307.672 432.247V444.147H102.48V427.29C110.474 427.763 118.884 425.871 126.532 422.423C136.214 418.014 144.577 411.165 151.729 403.351C159.084 395.263 163.123 384.048 167.811 374.295C174.849 359.608 184.172 349.145 198.967 344.713L198.021 348.781C197.832 349.6 197.829 350.451 198.013 351.272C198.198 352.091 198.565 352.859 199.087 353.518C199.609 354.177 200.273 354.709 201.03 355.075C201.786 355.442 202.616 355.634 203.456 355.635H274.69C273.271 367.933 267.287 435.099 307.672 432.261" fill="#2E2E2E"/>
<path d="M274.723 119.257C274.666 125.62 273.836 131.952 272.254 138.116C271.532 141.038 269.982 143.689 267.791 145.752C265.599 147.815 262.859 149.202 259.899 149.747C259.781 145.452 257.955 141.682 255.169 139.341C255.423 135.705 255.387 132.054 255.06 128.424C254.876 126.026 254.587 123.788 254.285 121.778C254.104 120.634 253.844 119.504 253.504 118.396C252.553 117.375 251.433 116.525 250.193 115.885C245.808 113.416 236.784 110.79 220.063 114.65C217.333 115.275 214.764 116.466 212.523 118.146C212.474 118.177 212.429 118.215 212.391 118.259C210.882 119.65 208.962 121.409 206.975 122.322C204.917 123.268 202.77 123.306 200.968 121.069C200.921 121.021 200.897 120.979 200.854 120.931C199.908 119.697 199.005 118.093 197.335 117.777C193.816 117.114 192.104 120.615 191.659 123.557C191.271 126.276 192.071 128.674 193.239 130.959C194.218 132.817 195.496 134.499 197.023 135.94C197.415 136.319 197.774 136.73 198.097 137.17C197.95 137.196 197.806 137.235 197.666 137.288C197.343 137.397 197.027 137.526 196.72 137.676C192.463 139.591 189.431 144.392 189.365 150.012C189.365 150.187 182.228 150.082 181.324 150.012C177.843 149.69 174.414 148.687 171.964 146.062C165.01 138.612 165.044 127.558 167.901 118.912C170.606 110.705 174.05 102.693 178.562 95.3091C188.339 79.3311 203.508 67.544 222.712 66.4845C227.317 66.2532 231.934 66.5228 236.481 67.2886C238.632 67.6277 240.76 68.1016 242.852 68.7076C262.43 77.2499 274.855 96.6146 274.742 119.257" fill="#2E2E2E"/>
<path d="M263.385 301.409C261.072 307.346 255.566 310.742 251.087 308.977C246.608 307.213 244.848 301.007 247.156 295.071C249.465 289.135 254.975 285.734 259.454 287.503C263.934 289.272 265.698 295.478 263.385 301.414" fill="#3FBDF1"/>
<path d="M275.286 354.424C275.286 354.424 262.723 442 312.974 432.294C362.952 422.63 381.867 219.311 237.205 190.07" stroke="black" stroke-width="7.24" stroke-miterlimit="10"/>
<path d="M157.632 270.112C157.632 270.112 117.086 304.306 138.934 338.504" stroke="black" stroke-width="7.24" stroke-miterlimit="10"/>
<path d="M276.199 330.099C275.503 330.141 274.51 329.678 273.834 329.493C272.976 329.266 272.126 329.023 271.284 328.765C266.345 327.227 261.697 324.874 257.534 321.802C256.588 321.126 254.904 320.691 253.75 321.135C253.108 321.371 252.541 321.775 252.108 322.305C251.675 322.835 251.393 323.471 251.291 324.148C250.936 326.589 252.658 328.978 254.535 330.543C256.763 332.407 259.076 334.124 261.777 335.24C264.384 336.286 267.074 337.114 269.818 337.714C271.062 338.002 272.325 338.187 273.559 338.504" stroke="black" stroke-width="7.24" stroke-miterlimit="10"/>
<path d="M291.76 306.404C292.271 309.1 292.645 311.9 292.389 314.639C292.177 316.956 291.344 319.662 288.766 320.225C288.276 320.354 287.768 320.401 287.262 320.362C277.556 319.79 269.558 316.436 260.424 309.833C251.29 303.23 248.074 318.437 256.418 321.133" stroke="black" stroke-width="7.24" stroke-miterlimit="10"/>
<path d="M256.768 332.377C256.544 332.193 256.331 331.995 256.129 331.786C251.584 327.033 250.761 336.582 255.533 339.392L256.148 339.756C256.47 339.893 256.815 340.054 257.156 340.229C257.317 340.272 257.496 340.343 257.662 340.39M257.662 340.39C261.976 342.282 266.568 343.493 271.09 344.728C266.616 343.266 262.155 341.828 257.662 340.39ZM257.662 340.39C257.274 340.229 256.905 340.068 256.517 339.884C256.398 339.834 256.275 339.797 256.148 339.77C256.068 339.734 255.979 339.719 255.891 339.727C255.803 339.735 255.719 339.767 255.647 339.818C255.539 339.906 255.46 340.025 255.42 340.158C254.687 341.918 255.283 344.136 256.219 345.711C257.203 347.376 258.892 348.658 260.557 349.571C265.036 352.083 270.244 353.568 275.272 354.457C276.204 354.65 277.16 354.713 278.11 354.642" stroke="black" stroke-width="7.24" stroke-miterlimit="10"/>
<path d="M318.669 365.477C318.669 365.477 303.254 339.206 301.537 316.365C300.487 302.227 296.334 299.233 293.364 299.03" stroke="black" stroke-width="7.24" stroke-miterlimit="10"/>
<path d="M288.766 320.221L291.765 306.405L293.364 299.026L305.217 244.319C305.393 243.504 305.384 242.661 305.192 241.85C304.999 241.039 304.627 240.282 304.104 239.633C303.581 238.985 302.919 238.461 302.167 238.101C301.415 237.742 300.592 237.555 299.759 237.555H228.875C227.614 237.554 226.39 237.98 225.403 238.765C224.416 239.549 223.724 240.645 223.44 241.873L209.482 301.727L199.294 345.399L198.348 349.49C198.159 350.309 198.158 351.16 198.344 351.98C198.529 352.799 198.897 353.566 199.419 354.224C199.942 354.882 200.606 355.414 201.362 355.78C202.118 356.146 202.947 356.337 203.787 356.339H275.016" stroke="black" stroke-width="7.24" stroke-miterlimit="10"/>
<path d="M200.883 119.495C200.883 119.495 204.634 103.588 225.815 101.478C246.996 99.3687 252.303 115.195 252.303 115.195L251.636 116.789C251.636 116.789 223.79 105.617 208.413 121.562C208.413 121.562 202.874 124.073 200.883 119.504" fill="#3FBDF1"/>
<path d="M206.597 301.334L173.652 293.104C172.867 292.909 172.049 292.88 171.251 293.018C170.454 293.157 169.694 293.46 169.019 293.908C168.345 294.356 167.771 294.939 167.334 295.621C166.898 296.302 166.608 297.067 166.483 297.867C166.358 298.667 166.4 299.484 166.608 300.267C166.816 301.049 167.184 301.78 167.689 302.412C168.194 303.045 168.825 303.565 169.542 303.941C170.26 304.316 171.047 304.538 171.855 304.593L187.431 305.619" stroke="black" stroke-width="7.24" stroke-miterlimit="10"/>
<path d="M285.493 209.426C285.493 209.426 213.536 267.719 150.75 198.098" stroke="black" stroke-width="7.24" stroke-miterlimit="10"/>
<path d="M148.493 279.566C147.145 265.793 140.32 233.789 106.212 234.683" stroke="black" stroke-width="7.24" stroke-miterlimit="10"/>
<path d="M313.698 234.674C313.698 234.674 307.27 236.443 304.806 240.767" stroke="black" stroke-width="7.24" stroke-miterlimit="10"/>
<path d="M52.5596 444.856H358.075" stroke="black" stroke-width="7.24" stroke-miterlimit="10"/>
<path d="M255.169 139.359C258.05 141.781 259.899 145.735 259.899 150.21C259.899 157.636 254.739 163.643 248.363 163.643C247.641 163.639 246.923 163.555 246.22 163.393C253.646 157.717 255.15 139.359 255.15 139.359" fill="#3FBDF1"/>
<path d="M213.162 169.335C216.742 171.116 220.659 172.117 224.654 172.271C228.65 172.426 232.632 171.729 236.339 170.229C257.236 161.502 256.437 135.78 254.266 121.799C254.092 120.664 253.846 119.542 253.528 118.44V118.417C251.13 110.423 244.872 103.91 236.627 102.06C220.659 98.4513 206.057 107.505 199.998 119.694" stroke="black" stroke-width="7.24" stroke-miterlimit="10"/>
<path d="M253.726 118.69C253.726 118.69 253.66 118.595 253.523 118.439V118.416C252.104 116.817 243.888 109.187 220.106 114.669C217.377 115.293 214.809 116.484 212.571 118.165C212.518 118.195 212.47 118.233 212.429 118.278" stroke="black" stroke-width="7.24" stroke-miterlimit="10"/>
<path d="M190.335 157.438H178.571C170.081 157.438 163.35 149.662 160.422 142.364C156.307 132.1 158.942 121.594 162.646 111.619C165.748 103.27 169.693 95.1584 174.882 87.8978C186.499 71.6503 204.038 62.4457 224.197 64.1485C225.985 64.2999 227.765 64.5203 229.537 64.8107C256.607 69.2002 274.86 91.8332 274.723 119.244C274.666 125.611 273.837 131.948 272.254 138.116C271.526 141.036 269.974 143.685 267.783 145.747C265.591 147.809 262.853 149.198 259.894 149.747" stroke="black" stroke-width="7.24" stroke-miterlimit="10"/>
<path d="M198.106 137.17C197.782 136.73 197.423 136.317 197.033 135.935C195.505 134.498 194.226 132.816 193.249 130.96C192.08 128.675 191.281 126.277 191.669 123.557C192.104 120.634 193.816 117.115 197.345 117.777C199.014 118.099 199.904 119.697 200.864 120.932C204.515 125.662 209.543 120.908 212.627 118.051" stroke="black" stroke-width="7.24" stroke-miterlimit="10"/>
<path d="M255.169 139.359C258.05 141.781 259.899 145.735 259.899 150.21C259.899 157.636 254.739 163.643 248.363 163.643C247.641 163.639 246.923 163.555 246.22 163.393" stroke="black" stroke-width="7.24" stroke-miterlimit="10"/>
<path d="M230.483 148.475C233.066 150.211 239.305 151.635 238.051 146.489C236.547 140.392 234.523 127.365 246.92 126.372C246.92 126.372 252.378 126.604 255.074 128.458" stroke="black" stroke-width="7.24" stroke-miterlimit="10"/>
<path d="M235.152 158.668C235.152 158.668 228.908 161.979 225.815 155.38" stroke="black" stroke-width="7.24" stroke-miterlimit="10"/>
<path d="M222.489 135.278C222.248 137.374 223.066 139.185 224.32 139.332C225.573 139.479 226.784 137.913 227.03 135.804C227.276 133.694 226.448 131.901 225.2 131.755C223.951 131.608 222.731 133.174 222.489 135.278Z" fill="black"/>
<path d="M242.819 136.512C242.578 138.603 243.396 140.419 244.65 140.566C245.903 140.713 247.114 139.147 247.355 137.037C247.596 134.928 246.778 133.13 245.529 132.988C244.281 132.847 243.06 134.407 242.819 136.512Z" fill="black"/>
<path d="M230.483 127.711C230.483 127.711 226.661 121.817 218.001 127.408" stroke="black" stroke-width="7.24" stroke-miterlimit="10"/>
<path d="M237.2 169.84V202.534" stroke="black" stroke-width="7.24" stroke-miterlimit="10"/>
<path d="M107.948 365.478C107.948 365.478 121.424 352.707 138.925 338.517C154.16 326.157 172.432 312.681 187.44 305.624C189.361 304.73 191.224 303.931 193.036 303.259C197.358 301.612 201.998 300.965 206.606 301.367C207.571 301.447 208.531 301.576 209.482 301.755" stroke="black" stroke-width="7.24" stroke-miterlimit="10"/>
<path d="M199.294 345.399C184.494 349.831 175.171 360.294 168.137 374.981C163.459 384.734 159.41 395.949 152.055 404.037C144.908 411.846 136.546 418.7 126.863 423.108C109.296 431.102 87.6657 430.487 76.2522 413.104C68.5329 401.317 65.4962 386.673 63.9542 372.899C61.3054 348.961 69.6681 281.483 106.212 234.679C117.952 219.624 132.596 206.72 150.731 198.083C163.459 192.038 177.848 188.084 194.157 186.963L198.726 163.394" stroke="black" stroke-width="7.24" stroke-miterlimit="10"/>
<path d="M307.999 433.041V444.856" stroke="black" stroke-width="7.24" stroke-miterlimit="10"/>
<path d="M102.806 428.823V444.857" stroke="black" stroke-width="7.24" stroke-miterlimit="10"/>
<path d="M212.405 150.212C212.45 153.758 211.191 157.196 208.867 159.875C207.564 160.478 206.145 160.789 204.71 160.788C198.338 160.788 193.173 154.781 193.173 147.355C193.127 143.809 194.389 140.371 196.716 137.696C198.018 137.09 199.437 136.777 200.874 136.778C207.245 136.778 212.405 142.79 212.405 150.212Z" fill="#3FBDF1"/>
<path d="M200.883 163.645C207.247 163.645 212.405 157.631 212.405 150.212C212.405 142.793 207.247 136.778 200.883 136.778C194.519 136.778 189.361 142.793 189.361 150.212C189.361 157.631 194.519 163.645 200.883 163.645Z" stroke="black" stroke-width="7.24" stroke-miterlimit="10"/>
<path d="M337.873 32.8177C330.775 30.7015 323.208 30.7379 316.13 32.9222C309.052 35.1065 302.781 39.3406 298.109 45.089C293.438 50.8376 290.576 57.8423 289.885 65.2173C289.194 72.5923 290.706 80.0066 294.23 86.5226C297.752 93.0382 303.129 98.3632 309.678 101.823C316.227 105.284 323.656 106.724 331.024 105.963C338.392 105.201 345.369 102.272 351.072 97.5454C356.776 92.8187 360.949 86.507 363.065 79.4082C365.903 69.8891 364.843 59.633 360.118 50.8953C355.394 42.1581 347.392 35.6553 337.873 32.8177ZM319.057 95.9349C318.369 95.7291 317.727 95.39 317.169 94.9363C316.611 94.4827 316.148 93.9237 315.807 93.2913C315.465 92.6589 315.251 91.9654 315.178 91.2503C315.104 90.5351 315.172 89.8123 315.377 89.1236C315.583 88.435 315.922 87.7931 316.376 87.2354C316.83 86.6778 317.389 86.2147 318.021 85.8732C319.298 85.1831 320.798 85.0284 322.189 85.4437C323.58 85.859 324.749 86.8097 325.439 88.0873C326.129 89.3644 326.284 90.8638 325.869 92.2549C325.453 93.646 324.503 94.8153 323.225 95.5054C321.948 96.1955 320.448 96.3501 319.057 95.9349ZM337.977 57.6502C337.898 57.8394 337.823 58.0239 337.75 58.2036C334.681 65.7537 330.864 72.9778 326.356 79.7677C325.263 81.4232 321.839 80.4015 321.829 78.4149C321.893 72.2413 322.367 66.0786 323.248 59.9679C323.797 55.5028 323.371 47.8591 326.98 44.4251C330.182 41.3506 336.223 42.6703 339.07 45.6218C342.215 48.8997 339.491 54.0507 337.963 57.6502H337.977Z" fill="#D7E8F0"/>
<path d="M363.784 247.568C361.185 250.211 359.429 253.564 358.736 257.205C358.044 260.846 358.446 264.61 359.893 268.022C361.341 271.434 363.767 274.34 366.866 276.372C369.964 278.405 373.597 279.473 377.302 279.441C381.008 279.409 384.621 278.279 387.685 276.194C390.748 274.108 393.124 271.161 394.513 267.725C395.901 264.289 396.239 260.518 395.485 256.89C394.73 253.262 392.916 249.939 390.272 247.341C386.729 243.861 381.948 241.929 376.981 241.971C372.014 242.014 367.267 244.027 363.784 247.568ZM387.283 270.665C386.773 271.183 386.079 271.478 385.352 271.484C384.626 271.49 383.927 271.208 383.409 270.698C382.891 270.189 382.596 269.495 382.59 268.768C382.584 268.042 382.866 267.343 383.376 266.824C383.628 266.568 383.928 266.364 384.259 266.223C384.59 266.083 384.946 266.009 385.306 266.005C385.666 266.003 386.022 266.07 386.356 266.205C386.689 266.34 386.993 266.539 387.25 266.791C387.506 267.044 387.71 267.344 387.851 267.675C387.991 268.006 388.066 268.361 388.068 268.721C388.072 269.081 388.004 269.438 387.869 269.771C387.734 270.105 387.535 270.409 387.283 270.665ZM374.682 253.424C377.175 256.688 379.885 260.046 381.843 263.66C382.316 264.53 381.063 265.807 380.183 265.344C377.466 263.872 374.85 262.219 372.355 260.396C370.51 259.11 367.029 257.506 366.357 255.108C365.747 252.97 367.743 250.61 369.716 250.042C372.137 249.352 373.424 251.825 374.682 253.424Z" fill="#3FBDF1"/>
<path d="M437.241 97.5091C439.108 95.2132 440.251 92.4149 440.527 89.4691C440.803 86.5232 440.2 83.5613 438.793 80.9584C437.386 78.3555 435.239 76.2284 432.623 74.8453C430.007 73.4628 427.04 72.8867 424.096 73.1903C421.153 73.494 418.366 74.6637 416.088 76.551C413.809 78.4387 412.141 80.9593 411.295 83.795C410.449 86.6301 410.463 89.6526 411.334 92.4802C412.206 95.3078 413.897 97.8133 416.193 99.6802C417.717 100.92 419.471 101.847 421.354 102.409C423.237 102.971 425.212 103.156 427.167 102.954C429.121 102.753 431.017 102.168 432.746 101.234C434.474 100.299 436.002 99.0336 437.241 97.5091ZM416.822 80.9116C417.003 80.6883 417.226 80.5034 417.479 80.3667C417.731 80.23 418.008 80.1444 418.294 80.1146C418.58 80.0848 418.868 80.1117 419.144 80.194C419.419 80.2759 419.676 80.4111 419.899 80.5923C420.122 80.7735 420.307 80.9967 420.443 81.2493C420.58 81.5019 420.666 81.7786 420.696 82.0647C420.725 82.3504 420.698 82.639 420.616 82.9143C420.534 83.1895 420.399 83.4459 420.218 83.6692C419.852 84.1195 419.322 84.4061 418.745 84.4662C418.169 84.5258 417.591 84.3541 417.141 83.9884C416.691 83.6228 416.404 83.093 416.344 82.516C416.284 81.9389 416.456 81.3619 416.822 80.9116ZM428.141 93.6826C425.913 91.275 423.515 88.8249 421.675 86.0815C421.23 85.424 422.148 84.3172 422.867 84.6199C425.145 85.591 427.355 86.7129 429.484 87.9782C431.045 88.8627 433.935 89.8702 434.649 91.7338C435.292 93.3846 433.883 95.4137 432.355 95.9908C430.468 96.7192 429.257 94.8509 428.141 93.6542V93.6826Z" fill="#3FBDF1"/>
<path d="M288.53 196.149C293.809 205.136 293.567 211.535 292.196 221.908C291.647 225.858 295.899 228.53 299.347 226.544C329.813 209.043 358.25 222.883 394.576 214.302C407.915 211.171 424.546 204.682 435.945 194.247C439.728 188.631 441.749 182.014 441.749 175.242C441.749 146.862 402.963 123.822 355.128 123.822C324.473 123.822 297.541 133.282 282.144 147.534C282.144 147.534 282.144 147.534 282.102 147.576C278.195 153.427 276.047 159.822 276.047 166.496C276.024 176.68 283.597 187.72 288.53 196.149Z" fill="#D7E8F0"/>
<path d="M276.161 166.496C276.161 166.733 276.161 166.969 276.161 167.215C276.331 177.148 281.317 186.405 287.22 194.413C291.174 199.767 295.866 205.717 294.755 212.283C294.282 215.177 292.65 217.802 292.243 220.707C291.836 223.611 293.383 227.234 296.315 227.385C298.179 227.48 299.764 226.156 301.239 225.02C309.966 218.257 321.309 215.726 332.339 215.281C343.369 214.837 354.386 216.294 365.421 216.606C381.332 217.079 397.495 215.073 412.191 208.972C425.359 203.513 437.426 194.555 445.348 182.588C453.134 170.838 448.532 153.777 440.226 143.56C432.44 133.973 421.159 127.838 409.589 123.515C378.471 111.898 342.953 112.163 312.265 124.891C303.155 128.675 294.343 133.594 287.513 140.713C280.858 147.647 276.232 156.89 276.161 166.496Z" stroke="black" stroke-width="7.24" stroke-miterlimit="10"/>
<path d="M403.842 177.8C410.441 177.8 415.79 172.451 415.79 165.852C415.79 159.253 410.441 153.904 403.842 153.904C397.244 153.904 391.895 159.253 391.895 165.852C391.895 172.451 397.244 177.8 403.842 177.8Z" fill="white"/>
<path d="M365.198 177.8C371.797 177.8 377.146 172.451 377.146 165.852C377.146 159.253 371.797 153.904 365.198 153.904C358.6 153.904 353.25 159.253 353.25 165.852C353.25 172.451 358.6 177.8 365.198 177.8Z" fill="white"/>
<path d="M325.802 177.8C332.401 177.8 337.75 172.451 337.75 165.852C337.75 159.253 332.401 153.904 325.802 153.904C319.203 153.904 313.854 159.253 313.854 165.852C313.854 172.451 319.203 177.8 325.802 177.8Z" fill="white"/>
</svg>
