<svg width="308" height="308" viewBox="0 0 308 308" fill="none" xmlns="http://www.w3.org/2000/svg">
<path d="M198.063 148.24C177.374 160.56 152.137 146.044 153.323 145.792C192.432 137.288 195.888 112.614 195.888 112.614C188.08 93.5365 166.798 99.6781 166.798 99.6781C166.182 126.751 133.959 128.276 133.959 128.276C131.889 119.492 132.003 98.982 132.003 98.982C122.236 92.1536 120.259 95.0519 120.259 95.0519C123.339 67.9479 135.742 59.2099 135.742 59.2099C137.809 57.2849 147.046 52.9575 151.789 52.397L151.958 53.1485C151.958 53.1485 147.163 65.1235 156.353 65.912C164.087 66.5896 168.482 57.0693 169.68 54.0479C179.737 57.1648 189.334 64.141 195.719 75.8758C210.823 103.639 198.063 148.24 198.063 148.24Z" fill="#2E2E2E"/>
<path d="M200.299 136.558L250.567 169.822C260.316 176.272 259.062 190.951 248.371 195.654L189.543 221.545C184.072 223.952 178.074 224.91 172.125 224.328C166.177 223.746 160.478 221.643 155.577 218.221L132.985 202.427" stroke="black" stroke-width="4.21" stroke-miterlimit="10"/>
<path d="M200.299 147.285L198.608 146.164L250.577 180.543C260.325 186.993 259.071 201.672 248.381 206.375L189.553 232.265C184.082 234.672 178.083 235.631 172.135 235.049C166.186 234.467 160.487 232.364 155.586 228.942L126.862 208.485" stroke="black" stroke-width="4.21" stroke-miterlimit="10"/>
<path d="M244.044 193.818L189.975 217.617C184.946 219.829 179.434 220.709 173.967 220.174C168.5 219.639 163.263 217.706 158.759 214.562L138.04 200.006C140.892 197.82 144.089 196.123 147.498 194.985C156.039 192.084 164.374 188.609 172.446 184.584C178.574 181.553 183.956 177.206 188.209 171.853C192.463 166.501 195.481 160.275 197.049 153.621C198.133 149.016 199.085 144.359 199.864 139.678L247.45 171.134C256.407 177.06 253.866 189.5 244.044 193.818Z" fill="#3FBDF1"/>
<path d="M104.72 262.791C104.72 262.791 114.2 258.861 116.017 255.898C116.017 255.898 116.359 262.625 114.585 264.923C112.811 267.221 102.21 273.294 101.64 272.534C101.07 271.773 104.72 262.791 104.72 262.791Z" fill="#3FBDF1"/>
<path d="M75.537 278.821C75.537 278.821 77.2618 281.161 83.3818 278.821C89.5017 276.48 102.817 267.859 102.817 267.859C102.817 267.859 99.1021 277.832 97.7561 278.928C96.4102 280.025 70.9817 292.48 70.9817 292.48C70.9817 292.48 59.6134 294.097 63.8977 286.012L75.537 278.821Z" fill="#3FBDF1"/>
<path d="M112.134 148.511C98.1197 153.966 83.2894 166.782 87.5552 202.273L88.7411 211.494" stroke="black" stroke-width="4.21" stroke-miterlimit="10"/>
<path d="M112.112 125.334C114.404 122.063 116.474 118.527 117.743 114.72C119.012 110.914 119.076 106.789 119.43 102.785C120.373 92.0485 121.833 83.1689 125.975 73.1681C129.564 64.5133 140.402 53.3637 151.185 52.3073L152.155 52.2241" stroke="black" stroke-width="4.21" stroke-miterlimit="10"/>
<path d="M139.216 147.726C139.164 147.575 139.112 147.433 139.056 147.285" stroke="black" stroke-width="4.21" stroke-miterlimit="10"/>
<path d="M133.959 127.61C133.429 124.496 133.035 121.478 132.727 118.614C132.728 118.56 132.721 118.506 132.708 118.453C131.094 102.459 132.727 90.8228 132.727 90.8228" stroke="black" stroke-width="4.21" stroke-miterlimit="10"/>
<path d="M171.63 30.5353L169.166 31.4964C169.166 31.5734 169.166 32.5343 169.062 33.8803C168.947 35.4877 168.691 37.082 168.298 38.6451C168.516 37.5794 168.834 35.0476 167.441 33.2859C167.42 33.2498 167.395 33.2156 167.368 33.1842C166.444 32.0723 165.304 32.5128 164.389 33.2766C163.757 33.811 163.206 34.4335 162.751 35.1246C162.91 33.0669 162.541 31.0026 161.679 29.1277C161.116 27.8487 160.37 26.6586 159.464 25.5949C160.859 30.3997 159.07 33.5446 159.07 33.5446C154.342 34.6565 151.062 34.4193 148.616 33.9973C146.556 32.0754 147.271 25.1545 147.271 25.1545C145.198 26.8485 145.697 33.4029 145.697 33.4029C145.432 31.6926 145.464 29.9493 145.792 28.2499C144.762 29.706 144.168 31.4246 144.077 33.2058L144.04 33.1873C143.897 33.1506 143.756 33.1063 143.618 33.0548C143.364 32.9212 143.118 32.773 142.882 32.6113L141.517 31.6873C143.578 21.1751 150.782 14.5655 161.913 16.5059C162.639 16.6311 163.355 16.8165 164.05 17.0603C171.384 20.8825 171.63 30.5353 171.63 30.5353Z" fill="#3FBDF1"/>
<path d="M108.108 132.914L105.302 124.469C105.24 124.272 105.129 124.094 104.979 123.953C104.829 123.811 104.646 123.71 104.446 123.659C104.421 123.659 104.394 123.659 104.366 123.64C104.338 123.622 104.332 123.64 104.314 123.64C104.249 123.636 104.184 123.636 104.12 123.64C103.808 123.641 103.509 123.76 103.282 123.973C103.054 124.183 102.872 124.438 102.748 124.723C102.623 125.007 102.558 125.313 102.558 125.624C102.558 125.866 102.597 126.107 102.672 126.338C103.288 128.121 104.385 131.34 104.905 132.806" fill="#3FBDF1"/>
<path d="M107.474 132.915L104.449 123.659C104.425 123.659 104.397 123.659 104.369 123.641C104.342 123.622 104.335 123.641 104.317 123.641L102.731 123.333C101.884 123.176 101.037 123.006 100.19 122.849C99.1733 122.646 98.1507 122.476 97.1374 122.233C96.8981 122.165 96.6523 122.124 96.4044 122.11C96.0921 122.109 95.7918 122.229 95.5666 122.446C95.3369 122.656 95.1536 122.912 95.0289 123.197C94.9041 123.483 94.841 123.791 94.8428 124.103C94.8413 124.343 94.8798 124.581 94.9568 124.808C95.6375 126.804 96.9341 130.58 97.3469 131.726L107.474 132.915Z" fill="#3FBDF1"/>
<path d="M167.275 90.8196C166.967 94.2476 166.807 98.3964 166.699 103.611C166.699 114.699 154.44 123.88 143.546 125.981L123.57 130.493C120.93 131.004 118.592 129.357 116.757 128.263C114.869 127.139 112.934 125.799 111.573 124.804C109.614 123.372 105.841 124.524 106.614 127.94C106.781 128.589 107.095 129.191 107.533 129.7C107.97 130.208 108.519 130.608 109.137 130.869C109.484 131.025 109.843 131.156 110.209 131.263C110.345 131.297 110.466 131.375 110.553 131.486C110.641 131.596 110.689 131.732 110.691 131.872C110.693 132.012 110.649 132.15 110.565 132.262C110.481 132.375 110.362 132.457 110.227 132.495C108.496 133.093 105.327 133.447 100.214 131.571C93.6628 129.159 93.1546 144.11 102.111 146.712H102.145C110.396 149.207 119.276 148.887 127.805 148.53C137.489 148.163 147.126 146.987 156.615 145.015C161.441 143.993 166.4 142.93 170.817 140.746C178.424 136.986 183.907 132.674 189.121 125.962C194.973 118.438 197.471 108.567 198.882 99.3111C200.496 88.7221 198.266 79.7808 192.589 70.6671L192.38 70.3345" stroke="black" stroke-width="4.21" stroke-miterlimit="10"/>
<path d="M108.108 132.914L105.302 124.469C105.24 124.272 105.129 124.094 104.979 123.953C104.829 123.811 104.646 123.71 104.446 123.659C104.421 123.659 104.394 123.659 104.366 123.64C104.338 123.622 104.332 123.64 104.314 123.64C104.249 123.636 104.184 123.636 104.12 123.64C103.808 123.641 103.509 123.76 103.282 123.973C103.054 124.183 102.872 124.438 102.748 124.723C102.623 125.007 102.558 125.313 102.558 125.624C102.558 125.866 102.597 126.107 102.672 126.338C103.288 128.121 104.385 131.34 104.905 132.806" stroke="black" stroke-width="4.21" stroke-miterlimit="10"/>
<path d="M104.449 123.659C104.425 123.659 104.397 123.659 104.369 123.641C104.342 123.622 104.335 123.641 104.317 123.641L102.731 123.333C101.884 123.176 101.037 123.006 100.19 122.849C99.1733 122.646 98.1507 122.476 97.1374 122.233C96.8981 122.165 96.6523 122.124 96.4044 122.11C96.0921 122.109 95.7918 122.229 95.5666 122.446C95.3369 122.656 95.1536 122.912 95.0289 123.197C94.9041 123.483 94.841 123.791 94.8428 124.103C94.8413 124.343 94.8798 124.581 94.9568 124.808C95.6375 126.804 96.9341 130.58 97.3469 131.726" stroke="black" stroke-width="4.21" stroke-miterlimit="10"/>
<path d="M143.119 32.9028C143.119 36.9068 143.898 40.7353 145.82 44.2711C147.36 47.1109 149.621 49.9722 152.855 50.9116C153.571 51.1183 154.314 51.2221 155.06 51.2196C160.548 51.195 161.405 44.6931 161.405 44.6931" stroke="black" stroke-width="4.21" stroke-miterlimit="10"/>
<path d="M168.876 35.2261V35.2446C168.622 37.2312 168.185 39.1903 167.57 41.0966C166.836 43.3705 166.663 45.7883 167.065 48.1436L167.918 53.1055C167.957 53.3266 168.058 53.5324 168.208 53.699C168.358 53.8656 168.553 53.9867 168.769 54.048C179.598 57.1926 189.21 64.1319 194.804 74.1511C201.78 86.6621 203.052 101.729 202.488 115.774C201.992 127.949 200.024 140.054 197.231 151.903C195.523 159.144 192.238 165.92 187.609 171.745C182.98 177.57 177.122 182.301 170.453 185.601C161.678 189.983 152.615 193.764 143.328 196.92C138.411 198.548 133.92 201.251 130.179 204.833C126.438 208.415 123.543 212.786 121.703 217.627L99.8782 275.66C99.0761 277.803 97.4943 279.563 95.4491 280.588L74.5359 291.094C71.8951 292.416 68.8826 292.798 65.9951 292.178C65.2467 292.017 64.5638 291.633 64.0362 291.078C63.5083 290.523 63.16 289.822 63.0364 289.066C62.9126 288.311 63.0195 287.535 63.3429 286.841C63.6663 286.147 64.1911 285.566 64.8493 285.174L75.5308 278.82L90.2193 203.939C91.2529 197.259 93.7213 190.882 97.4542 185.245C101.187 179.61 106.096 174.849 111.844 171.291C112.61 170.824 113.409 170.412 114.234 170.059L146.075 156.233" stroke="black" stroke-width="4.21" stroke-miterlimit="10"/>
<path d="M160.123 15.7822C158.421 15.3765 156.659 15.2867 154.924 15.5173C154.853 15.5188 154.782 15.525 154.711 15.5357" stroke="black" stroke-width="4.21" stroke-miterlimit="10"/>
<path d="M152.411 52.4053C152.411 52.4053 146.778 65.3197 156.852 65.9573C165.892 66.5363 169.209 54.2533 169.209 54.2533" stroke="black" stroke-width="4.21" stroke-miterlimit="10"/>
<path d="M168.168 39.1152C168.233 38.878 169.203 35.3761 167.349 33.1708C165.495 30.9655 162.981 34.7478 162.729 35.1266C163.222 29.6967 159.449 25.5788 159.449 25.5788C160.841 30.3866 159.048 33.5281 159.048 33.5281C152.158 35.142 148.367 33.9131 145.678 33.3833C145.413 31.6739 145.447 29.9318 145.776 28.2337C144.744 29.6861 144.149 31.4035 144.061 33.1831H144.018C142.994 32.9112 142.024 32.4686 141.147 31.8741L139.783 30.9501C141.846 20.4413 149.047 13.8255 160.178 15.7659C171.31 17.7063 171.621 30.5068 171.621 30.5068L169.141 31.4706C169.141 31.4706 169.163 35.6964 168.168 39.1152Z" stroke="black" stroke-width="4.21" stroke-miterlimit="10"/>
<path d="M147.437 38.5674V43.6771C147.437 43.7393 147.452 43.8006 147.481 43.8557C147.509 43.9112 147.55 43.9589 147.6 43.9956C147.651 44.0322 147.709 44.0562 147.77 44.0664C147.832 44.0763 147.895 44.0717 147.954 44.0529C148.356 43.9198 148.725 43.7036 149.038 43.4184" stroke="black" stroke-width="4.21" stroke-miterlimit="10"/>
<path d="M144.381 42.4466C145.993 41.8182 146.591 39.4922 145.718 37.2512C144.844 35.0102 142.829 33.7031 141.217 34.3314C139.605 34.9597 139.007 37.2857 139.881 39.5267C140.755 41.7677 142.769 43.0749 144.381 42.4466Z" stroke="black" stroke-width="4.21" stroke-miterlimit="10"/>
<path d="M154.08 43.9085C155.692 43.2802 156.29 40.9542 155.416 38.7131C154.542 36.4721 152.528 35.165 150.916 35.7933C149.304 36.4216 148.706 38.7476 149.58 40.9886C150.453 43.2297 152.468 44.5368 154.08 43.9085Z" stroke="black" stroke-width="4.21" stroke-miterlimit="10"/>
<path d="M146.082 38.8323C146.082 38.8323 147.036 37.742 149.038 39.0202" stroke="black" stroke-width="4.21" stroke-miterlimit="10"/>
<path d="M151.958 50.5889C151.958 50.5889 152.651 52.9358 154.69 60.5434" stroke="black" stroke-width="4.21" stroke-miterlimit="10"/>
<path d="M100.91 272.918L112.922 266.435C113.611 266.062 114.197 265.526 114.632 264.874C115.066 264.223 115.334 263.475 115.414 262.696C117.41 243.091 116.8 230.698 116.8 230.698" stroke="black" stroke-width="4.21" stroke-miterlimit="10"/>
<path d="M90.007 172.381L43.7793 140.075" stroke="black" stroke-width="4.21" stroke-miterlimit="10"/>
<path d="M87.389 181.283L43.7793 150.803" stroke="black" stroke-width="4.21" stroke-miterlimit="10"/>
<path d="M264.221 119.877V146.325C264.221 147.538 263.869 148.724 263.207 149.741C262.546 150.757 261.603 151.56 260.494 152.051L227.692 166.576L217.664 181.816C217.406 182.194 217.034 182.48 216.603 182.632C216.172 182.785 215.702 182.797 215.264 182.665C214.826 182.534 214.441 182.266 214.165 181.902C213.888 181.537 213.735 181.094 213.728 180.636V172.764L210.364 174.251C209.616 174.578 208.798 174.715 207.985 174.647C207.171 174.58 206.387 174.312 205.702 173.867C205.018 173.422 204.455 172.813 204.064 172.097C203.673 171.38 203.466 170.577 203.462 169.761V147.674C203.462 144.919 204.268 142.225 205.78 139.922C207.292 137.619 209.444 135.809 211.972 134.713L257.051 115.171C257.831 114.832 258.684 114.692 259.531 114.765C260.379 114.838 261.196 115.121 261.907 115.588C262.618 116.054 263.202 116.691 263.606 117.44C264.01 118.189 264.221 119.026 264.221 119.877Z" fill="#D7E8F0"/>
<path d="M223.983 154.445C225.599 151.328 225.161 147.896 223.006 146.779C220.851 145.662 217.794 147.283 216.179 150.4C214.563 153.517 215 156.95 217.155 158.067C219.31 159.184 222.367 157.563 223.983 154.445Z" fill="white"/>
<path d="M237.992 148.449C239.607 145.332 239.17 141.899 237.015 140.782C234.86 139.665 231.803 141.287 230.188 144.403C228.572 147.521 229.009 150.953 231.164 152.07C233.319 153.187 236.376 151.566 237.992 148.449Z" fill="white"/>
<path d="M251.53 141.974C253.146 138.857 252.708 135.424 250.553 134.307C248.398 133.19 245.341 134.811 243.726 137.928C242.11 141.045 242.547 144.478 244.702 145.595C246.857 146.712 249.914 145.091 251.53 141.974Z" fill="white"/>
</svg>
