<svg width="770" height="903" viewBox="0 0 770 903" fill="none" xmlns="http://www.w3.org/2000/svg">
<path d="M203.35 606.54C214.77 580.54 221.98 550.54 222.66 515.75C225.96 345.59 418.36 214.28 631.79 358.61C845.22 502.94 656.59 900 656.59 900" stroke="#CCDDE2" stroke-width="4.47" stroke-miterlimit="10"/>
<path d="M54.13 900.001C44.7 892.591 -27.1899 822.301 15.99 782.071C34.44 764.901 74.15 744.851 113.93 714.281" stroke="#CCDDE2" stroke-width="4.47" stroke-miterlimit="10"/>
<path d="M568.56 473.5C569.336 477.527 571.37 481.204 574.37 484" stroke="#CCDDE2" stroke-width="4.47" stroke-miterlimit="10"/>
<path d="M401 550.762C399.52 551.152 398.27 551.432 397.28 551.662C396.54 551.792 395.93 551.922 395.51 551.982H395.42L394.84 552.082C394.84 552.082 394.78 552.012 394.74 552.012C384.74 544.672 387.81 531.012 387.81 531.012C417.71 535.722 423.91 511.502 423.91 511.502C423.52 499.892 421.31 494.432 416.21 491.292C410.88 487.952 402.38 487.092 389.39 484.292L387.24 483.812C367.92 479.422 358.91 459.592 355.35 448.592C354.521 446.155 353.853 443.666 353.35 441.142C331.47 449.362 317.77 461.002 309.88 469.732C306.76 407.842 368.88 416.732 368.88 416.732C379.333 416.882 389.722 418.401 399.78 421.252C402.06 422.252 404.24 423.252 406.32 424.252C407.32 424.762 408.38 425.312 409.32 425.882C410.26 426.452 411.32 427.012 412.24 427.582C412.91 427.972 413.59 428.392 414.24 428.832C427.905 437.504 438.828 449.877 445.74 464.512C445.838 464.71 445.925 464.914 446 465.122C446.315 465.799 446.592 466.494 446.83 467.202C460.89 528.722 417.51 546.332 401 550.762Z" fill="#3FBDF1"/>
<path d="M401 550.759C396.64 543.509 398.66 534.759 398.66 534.759C428.53 539.479 434.75 515.259 434.75 515.259C434.11 497.449 429.3 494.109 416.21 491.259C411.36 490.169 405.4 489.169 398.08 487.539C395.04 486.856 392.114 485.742 389.39 484.229C369.5 473.329 364.14 444.839 364.14 444.839C361.06 445.989 358.14 447.239 355.35 448.529C354.521 446.092 353.853 443.604 353.35 441.079C331.47 449.299 317.77 460.939 309.88 469.669C306.76 407.779 368.88 416.669 368.88 416.669C379.333 416.819 389.722 418.339 399.78 421.189C402.06 422.189 404.24 423.189 406.32 424.189C407.32 424.699 408.38 425.249 409.32 425.819C410.26 426.389 411.32 426.949 412.24 427.519C412.91 427.909 413.59 428.329 414.24 428.769C427.905 437.442 438.828 449.815 445.74 464.449C445.838 464.648 445.925 464.851 446 465.059C446.315 465.737 446.592 466.431 446.83 467.139C460.89 528.719 417.51 546.329 401 550.759Z" fill="#3FBDF1"/>
<path d="M505.83 824.671C510.45 854.831 516.1 884.501 522 900.001H256.79C224.86 809.341 240 710.301 240 710.301L192.9 711.781C221.23 662.081 211.15 620.061 206.37 606.041C243.37 599.751 280.37 594.811 317.76 594.391C316.76 615.791 340.12 640.391 373.81 633.921C387.47 631.321 404.12 625.921 404.48 601.991L413.27 603.531C425.43 605.531 436.43 607.671 446.86 610.081C473.86 616.301 497.06 624.081 525.97 633.921C485.97 663.531 505.85 731.921 505.85 731.921L506.85 734.201L494.08 731.921C494.08 731.921 498.81 778.831 505.83 824.671Z" fill="#353642"/>
<path d="M230.67 165.569C257.113 165.569 278.55 144.132 278.55 117.689C278.55 91.245 257.113 69.809 230.67 69.809C204.227 69.809 182.79 91.245 182.79 117.689C182.79 144.132 204.227 165.569 230.67 165.569Z" fill="#3FBDF1"/>
<path d="M246.41 101.711C245.737 100.152 244.83 98.705 243.72 97.421C241.828 95.17 239.179 93.688 236.271 93.254C233.364 92.819 230.397 93.462 227.93 95.061C226.317 96.103 224.97 97.507 223.994 99.162C223.019 100.816 222.442 102.675 222.31 104.591C219.792 103.68 217.046 103.611 214.486 104.394C211.925 105.177 209.688 106.769 208.11 108.933C206.532 111.096 205.698 113.713 205.734 116.39C205.77 119.067 206.674 121.661 208.31 123.781C211.74 128.251 217.57 131.191 222.85 132.901C225.62 133.782 228.471 134.389 231.36 134.711C232.82 134.871 241.17 135.991 241.95 134.711C247.05 126.581 250.75 111.651 246.41 101.711Z" fill="white"/>
<path d="M150.11 102.13C146.97 101.78 143.79 101.56 140.62 101.39C137.22 101.56 133.82 101.81 130.42 102.23C119.682 103.428 109.163 106.121 99.17 110.23C94.694 112.071 90.379 114.282 86.27 116.84C83.305 118.622 80.466 120.603 77.77 122.77C75.78 119.917 74.183 116.809 73.02 113.53C71.041 107.997 70.315 102.095 70.892 96.247C71.47 90.399 73.337 84.753 76.36 79.714C79.383 74.675 83.485 70.369 88.373 67.107C93.26 63.845 98.81 61.707 104.623 60.849C110.436 59.99 116.367 60.431 121.989 62.14C127.61 63.85 132.783 66.785 137.134 70.735C141.484 74.684 144.905 79.549 147.149 84.98C149.393 90.411 150.404 96.272 150.11 102.14V102.13Z" fill="#3FBDF1"/>
<path d="M130.42 102.229C119.682 103.427 109.163 106.12 99.17 110.229C98.59 108.689 98.11 107.229 97.95 106.729C97.148 104.457 96.569 102.113 96.22 99.729C95.61 95.169 95.7 89.729 97.82 85.579C98.81 83.586 100.422 81.97 102.412 80.974C104.402 79.978 106.662 79.657 108.851 80.059C111.04 80.461 113.038 81.565 114.544 83.203C116.05 84.841 116.983 86.924 117.2 89.139C118.686 88.56 120.285 88.328 121.874 88.462C123.464 88.595 125.001 89.09 126.37 89.909C128.399 91.147 129.921 93.066 130.663 95.324C131.405 97.581 131.319 100.029 130.42 102.229Z" fill="white"/>
<path d="M86.27 116.83C83.305 118.611 80.466 120.593 77.77 122.76C75.963 124.159 74.228 125.647 72.57 127.22C70.446 129.246 68.575 131.523 67 134C65.526 136.305 64.248 138.731 63.18 141.25C61.566 145.102 60.278 149.083 59.33 153.15C57.429 161.923 56.282 170.842 55.9 179.81C48.868 176.298 43.224 170.521 39.875 163.41C36.526 156.299 35.669 148.268 37.44 140.61C39.212 132.953 43.509 126.114 49.641 121.196C55.772 116.278 63.38 113.567 71.24 113.5C71.85 113.5 72.42 113.5 73.03 113.5C77.621 113.72 82.122 114.852 86.27 116.83Z" fill="#3FBDF1"/>
<path d="M67 134.001C65.526 136.307 64.248 138.732 63.18 141.251C61.566 145.103 60.278 149.084 59.33 153.151C57.25 150.261 55.48 146.801 55.2 143.341C55.102 142.097 55.262 140.847 55.67 139.667C56.077 138.488 56.723 137.405 57.568 136.486C58.412 135.567 59.437 134.833 60.578 134.328C61.719 133.823 62.952 133.559 64.2 133.551C65.152 133.539 66.099 133.692 67 134.001Z" fill="white"/>
<g opacity="0.72">
<path opacity="0.72" d="M286.02 111.661C300.578 111.661 312.38 99.86 312.38 85.301C312.38 70.743 300.578 58.941 286.02 58.941C271.462 58.941 259.66 70.743 259.66 85.301C259.66 99.86 271.462 111.661 286.02 111.661Z" fill="#3FBDF1"/>
<path opacity="0.72" d="M297.46 90.001C298.108 89.331 298.654 88.57 299.08 87.741C299.832 86.306 300.033 84.646 299.646 83.073C299.26 81.5 298.311 80.123 296.98 79.201C296.114 78.604 295.123 78.214 294.082 78.063C293.041 77.913 291.98 78.004 290.98 78.331C290.925 76.853 290.391 75.433 289.458 74.286C288.525 73.139 287.244 72.327 285.808 71.972C284.372 71.618 282.86 71.74 281.501 72.32C280.141 72.901 279.007 73.909 278.27 75.191C276.71 77.881 276.43 81.461 276.67 84.511C276.797 86.106 277.085 87.684 277.53 89.221C277.75 90.001 278.92 94.481 279.72 94.621C284.92 95.501 293.3 94.271 297.46 90.001Z" fill="white"/>
</g>
<g opacity="0.72">
<path opacity="0.72" d="M274.27 380.429C284.664 380.429 293.09 372.003 293.09 361.609C293.09 351.215 284.664 342.789 274.27 342.789C263.876 342.789 255.45 351.215 255.45 361.609C255.45 372.003 263.876 380.429 274.27 380.429Z" fill="#3FBDF1"/>
<path opacity="0.72" d="M282.43 365C282.893 364.522 283.281 363.976 283.58 363.38C284.116 362.358 284.26 361.175 283.986 360.054C283.711 358.932 283.037 357.95 282.09 357.29C281.469 356.86 280.756 356.579 280.008 356.472C279.26 356.364 278.497 356.432 277.78 356.67C277.735 355.619 277.351 354.611 276.685 353.796C276.02 352.982 275.108 352.404 274.087 352.151C273.066 351.898 271.99 351.982 271.021 352.391C270.052 352.8 269.241 353.512 268.71 354.42C267.691 356.483 267.292 358.796 267.56 361.08C267.652 362.218 267.86 363.344 268.18 364.44C268.34 364.99 269.18 368.2 269.74 368.29C273.48 368.89 279.46 368 282.43 365Z" fill="white"/>
</g>
<path d="M232.407 135.689L219.881 162.176C215.335 171.787 219.442 183.263 229.053 187.808L255.54 200.334C265.151 204.879 276.627 200.772 281.172 191.162L293.699 164.674C298.244 155.063 294.137 143.587 284.526 139.042L258.039 126.516C248.428 121.971 236.952 126.078 232.407 135.689Z" fill="#3FBDF1"/>
<path d="M286.56 169.318L277.49 188.498C275.592 192.504 272.184 195.596 268.012 197.095C263.84 198.594 259.244 198.38 255.23 196.498L232.23 185.618C228.225 183.718 225.136 180.31 223.637 176.139C222.138 171.968 222.351 167.373 224.23 163.358L224.84 162.058C231.09 157.058 241.9 150.338 245.84 159.508C251.52 172.708 258.9 168.438 268.34 162.918C276.26 158.248 285.72 156.698 286.56 169.318Z" fill="white"/>
<path d="M250.91 148.922C254.82 148.922 257.99 145.752 257.99 141.842C257.99 137.932 254.82 134.762 250.91 134.762C247 134.762 243.83 137.932 243.83 141.842C243.83 145.752 247 148.922 250.91 148.922Z" fill="white"/>
<path d="M319.811 222.269L303.313 257.155C297.33 269.806 302.736 284.913 315.388 290.896L350.273 307.394C362.925 313.377 378.031 307.971 384.014 295.319L400.512 260.434C406.495 247.782 401.089 232.676 388.438 226.693L353.552 210.195C340.9 204.212 325.794 209.618 319.811 222.269Z" fill="#3FBDF1"/>
<path d="M391.1 266.56L379.1 291.81C376.593 297.077 372.102 301.137 366.61 303.103C361.117 305.068 355.07 304.78 349.79 302.299L319.55 288C314.283 285.492 310.223 281.001 308.257 275.509C306.291 270.017 306.58 263.97 309.06 258.69L309.87 256.98C318.1 250.42 332.32 241.55 337.51 253.62C345 271 354.71 265.379 367.14 258.109C377.53 251.999 390 249.94 391.1 266.56Z" fill="white"/>
<path d="M344.16 239.699C349.307 239.699 353.48 235.526 353.48 230.379C353.48 225.231 349.307 221.059 344.16 221.059C339.013 221.059 334.84 225.231 334.84 230.379C334.84 235.526 339.013 239.699 344.16 239.699Z" fill="white"/>
<path d="M387.59 122.88C388.979 125.438 389.99 128.183 390.59 131.03C391.655 136.271 391.342 141.697 389.682 146.78C388.022 151.863 385.072 156.429 381.12 160.03C377.99 162.8 374 164.97 370.82 167.87C368.509 169.87 366.808 172.48 365.91 175.4C365.742 176.397 365.342 177.339 364.74 178.15C362.88 180.15 361.07 177.01 359.46 176.44C356.877 175.602 354.077 175.741 351.59 176.83C345.055 179.524 337.792 179.884 331.022 177.85C324.253 175.816 318.391 171.512 314.423 165.663C310.455 159.813 308.624 152.775 309.237 145.733C309.85 138.692 312.871 132.076 317.79 127C322.69 122 329.11 118.83 335.3 115.55C340.76 112.65 346.19 109.55 352.11 107.84C366.05 103.7 380.86 110.61 387.59 122.88Z" fill="#3FBDF1"/>
<path d="M331.67 159.039C335.354 159.039 338.34 156.053 338.34 152.369C338.34 148.685 335.354 145.699 331.67 145.699C327.986 145.699 325 148.685 325 152.369C325 156.053 327.986 159.039 331.67 159.039Z" fill="white"/>
<path d="M349.64 149.43C353.324 149.43 356.31 146.444 356.31 142.76C356.31 139.076 353.324 136.09 349.64 136.09C345.956 136.09 342.97 139.076 342.97 142.76C342.97 146.444 345.956 149.43 349.64 149.43Z" fill="white"/>
<path d="M366.5 140.41C370.184 140.41 373.17 137.424 373.17 133.74C373.17 130.057 370.184 127.07 366.5 127.07C362.816 127.07 359.83 130.057 359.83 133.74C359.83 137.424 362.816 140.41 366.5 140.41Z" fill="white"/>
<path d="M594.7 572.058V572.218L592.23 628.998L590.85 660.108C590.85 658.958 590.91 657.768 590.98 656.618C573.91 650.908 551.98 642.788 535.06 637.048C501.76 625.688 476.67 616.958 446.84 610.098C445.04 601.408 443.34 582.768 451.71 555.558C463.71 516.738 467.66 477.348 461.56 469.738C461.502 469.651 461.428 469.576 461.34 469.518C457 453.868 445.52 463.998 445.52 463.998C445.52 463.998 445.59 464.158 445.62 464.248C443.231 460.288 440.606 456.474 437.76 452.828C437.855 452.262 438.005 451.706 438.21 451.168C441.9 440.068 461.56 437.398 461.56 437.398C490.34 439.518 505.48 452.348 513.12 469.198C519.85 490.468 515.88 513.528 515.01 535.348C514.66 544.808 513.31 559.348 520.53 567.008C527.2 579.618 543.98 574.168 548.53 572.788C550.01 572.368 553.85 572.108 558.89 571.948C569.16 571.698 584.27 571.888 593.48 572.048C593.93 572.058 594.32 572.058 594.7 572.058Z" fill="#3FBDF1"/>
<path d="M196.4 61.711C194.304 62.178 192.152 62.339 190.01 62.191C186.082 61.881 182.301 60.555 179.039 58.345C175.776 56.134 173.144 53.114 171.4 49.5807C170.07 46.7907 169.4 43.5207 167.95 40.6807C167.004 38.6413 165.503 36.9088 163.62 35.6807C162.947 35.3604 162.361 34.8838 161.91 34.2907C160.91 32.5707 163.47 31.9307 164.2 30.9107C165.315 29.2513 165.788 27.243 165.53 25.2607C164.936 20.0724 166.152 14.8381 168.973 10.4433C171.794 6.0486 176.046 2.763 181.011 1.1423C185.975 -0.478402 191.347 -0.334603 196.217 1.5492C201.088 3.433 205.158 6.9413 207.74 11.4807C210.28 15.9707 211.21 21.1607 212.27 26.2107C213.21 30.6607 214.27 35.1307 214.27 39.6807C214.36 50.371 206.45 59.451 196.4 61.711Z" fill="#3FBDF1"/>
<path d="M186.92 21.0192C189.632 21.0192 191.83 18.8209 191.83 16.1092C191.83 13.3975 189.632 11.1992 186.92 11.1992C184.208 11.1992 182.01 13.3975 182.01 16.1092C182.01 18.8209 184.208 21.0192 186.92 21.0192Z" fill="white"/>
<path d="M190.06 35.6989C192.772 35.6989 194.97 33.5006 194.97 30.7889C194.97 28.0772 192.772 25.8789 190.06 25.8789C187.348 25.8789 185.15 28.0772 185.15 30.7889C185.15 33.5006 187.348 35.6989 190.06 35.6989Z" fill="white"/>
<path d="M193.01 49.4802C195.722 49.4802 197.92 47.2819 197.92 44.5702C197.92 41.8584 195.722 39.6602 193.01 39.6602C190.298 39.6602 188.1 41.8584 188.1 44.5702C188.1 47.2819 190.298 49.4802 193.01 49.4802Z" fill="white"/>
<g opacity="0.72">
<path opacity="0.72" d="M489.16 240.23C509.771 240.23 526.48 223.521 526.48 202.91C526.48 182.299 509.771 165.59 489.16 165.59C468.549 165.59 451.84 182.299 451.84 202.91C451.84 223.521 468.549 240.23 489.16 240.23Z" fill="#3FBDF1"/>
<path opacity="0.72" d="M490.56 220.34C491.818 220.741 493.13 220.947 494.45 220.95C496.742 220.98 498.967 220.172 500.706 218.679C502.446 217.186 503.582 215.11 503.9 212.84C504.106 211.358 503.964 209.849 503.487 208.431C503.01 207.013 502.21 205.726 501.15 204.67C502.979 203.654 504.427 202.071 505.278 200.16C506.129 198.249 506.336 196.114 505.868 194.075C505.399 192.036 504.281 190.205 502.682 188.857C501.083 187.509 499.089 186.717 497 186.6C492.61 186.35 487.91 188.28 484.2 190.52C482.269 191.701 480.46 193.071 478.8 194.61C477.95 195.39 473.03 199.74 473.37 200.83C475.57 208 482.48 217.83 490.56 220.34Z" fill="white"/>
</g>
<path d="M506.49 355.23C504.156 358.621 501.34 361.653 498.13 364.23C492.187 368.925 485.127 371.998 477.641 373.148C470.155 374.298 462.498 373.485 455.42 370.79C449.91 368.6 444.63 364.93 438.93 362.79C434.928 361.148 430.545 360.663 426.28 361.39C424.915 361.815 423.469 361.911 422.06 361.67C418.36 360.59 421.16 356.31 420.85 353.91C420.258 350.113 418.299 346.663 415.34 344.21C407.711 337.681 402.573 328.716 400.796 318.834C399.02 308.951 400.714 298.758 405.591 289.981C410.469 281.204 418.23 274.382 427.56 270.672C436.891 266.961 447.217 266.59 456.79 269.62C466.25 272.62 474.34 278.71 482.44 284.44C489.58 289.49 496.93 294.44 502.91 300.76C517 315.77 517.71 338.91 506.49 355.23Z" fill="#3FBDF1"/>
<path d="M433.54 312.829C438.754 312.829 442.98 308.603 442.98 303.389C442.98 298.176 438.754 293.949 433.54 293.949C428.326 293.949 424.1 298.176 424.1 303.389C424.1 308.603 428.326 312.829 433.54 312.829Z" fill="white"/>
<path d="M457.15 329.411C462.364 329.411 466.59 325.185 466.59 319.971C466.59 314.758 462.364 310.531 457.15 310.531C451.936 310.531 447.71 314.758 447.71 319.971C447.71 325.185 451.936 329.411 457.15 329.411Z" fill="white"/>
<path d="M479.31 344.958C484.524 344.958 488.75 340.732 488.75 335.518C488.75 330.305 484.524 326.078 479.31 326.078C474.096 326.078 469.87 330.305 469.87 335.518C469.87 340.732 474.096 344.958 479.31 344.958Z" fill="white"/>
<g opacity="0.54">
<path opacity="0.54" d="M219.82 75.101C219.695 76.731 219.444 78.349 219.07 79.941L214.89 98.071C213.61 103.621 212.17 109.471 208.2 113.551C200.8 121.121 188.41 119.391 178.08 117.091L152.72 111.461C146.9 110.161 140.98 108.841 135.72 105.941C130.46 103.041 125.98 98.331 124.72 92.481C123.83 88.171 124.79 83.721 125.72 79.421L129.67 62.001C130.94 56.301 132.38 50.271 136.49 46.1311C143.82 38.7411 155.96 40.4211 166.13 42.6211L192.06 48.2511C207.72 51.681 221.07 58.941 219.82 75.101Z" fill="#3FBDF1"/>
<path opacity="0.54" d="M184.85 75.589C185.935 76.6 186.734 77.878 187.169 79.296C187.603 80.714 187.657 82.221 187.325 83.666C186.992 85.111 186.285 86.443 185.275 87.528C184.265 88.613 182.987 89.414 181.57 89.849L173.84 92.219L166.12 94.579C164.699 95.016 163.189 95.07 161.741 94.736C160.292 94.402 158.958 93.692 157.872 92.678C156.785 91.664 155.986 90.381 155.554 88.959C155.121 87.537 155.072 86.026 155.41 84.579L157.22 76.699L159.03 68.829C159.365 67.384 160.073 66.052 161.085 64.968C162.096 63.883 163.375 63.083 164.793 62.649C166.212 62.214 167.719 62.16 169.165 62.492C170.61 62.824 171.943 63.53 173.03 64.539L178.94 70.049L184.85 75.589Z" fill="white"/>
</g>
<g opacity="0.54">
<path opacity="0.54" d="M504.8 109.998C504.674 111.628 504.424 113.247 504.05 114.838L499.87 132.998C498.59 138.548 497.15 144.398 493.18 148.468C485.78 156.048 473.39 154.308 463.06 152.018L437.7 146.378C431.88 145.088 425.96 143.758 420.7 140.868C415.44 137.978 410.96 133.248 409.7 127.408C408.81 123.098 409.77 118.648 410.7 114.348L414.66 96.998C415.92 91.288 417.36 85.268 421.47 81.118C428.8 73.738 440.94 75.408 451.11 77.618L477 83.208C492.7 86.598 506.05 93.868 504.8 109.998Z" fill="#3FBDF1"/>
<path opacity="0.54" d="M469.83 110.507C470.914 111.519 471.714 112.798 472.148 114.216C472.582 115.634 472.635 117.142 472.303 118.587C471.971 120.033 471.264 121.365 470.255 122.452C469.245 123.538 467.967 124.34 466.55 124.777L458.82 127.137L451.1 129.507C449.679 129.943 448.169 129.997 446.721 129.663C445.272 129.33 443.938 128.62 442.852 127.606C441.765 126.591 440.966 125.309 440.534 123.887C440.101 122.465 440.052 120.954 440.39 119.507L442.2 111.637L444.01 103.767C444.345 102.322 445.053 100.99 446.065 99.905C447.076 98.82 448.355 98.021 449.773 97.586C451.191 97.152 452.699 97.097 454.145 97.429C455.59 97.761 456.923 98.467 458.01 99.477L463.92 104.987L469.83 110.507Z" fill="white"/>
</g>
<g opacity="0.54">
<path opacity="0.54" d="M385.13 353.279C385.067 354.037 384.947 354.79 384.77 355.529L382.83 363.999C382.23 366.579 381.56 369.299 379.71 371.199C376.27 374.729 370.5 373.919 365.71 372.849L353.9 370.229C351.158 369.753 348.498 368.887 346 367.659C344.754 367.035 343.656 366.153 342.777 365.072C341.897 363.991 341.258 362.736 340.9 361.389C340.628 359.352 340.788 357.28 341.37 355.309L343.17 347.209C343.76 344.559 344.43 341.749 346.35 339.819C349.76 336.379 355.41 337.159 360.14 338.189L372.22 340.809C379.49 342.369 385.71 345.749 385.13 353.279Z" fill="#3FBDF1"/>
<path opacity="0.54" d="M368.84 353.508C369.346 353.978 369.72 354.573 369.923 355.234C370.126 355.895 370.151 356.597 369.996 357.27C369.841 357.944 369.511 358.564 369.039 359.07C368.568 359.575 367.971 359.947 367.31 360.148L363.72 361.248L360.12 362.348C359.459 362.554 358.756 362.582 358.08 362.43C357.405 362.277 356.782 361.948 356.275 361.477C355.767 361.006 355.393 360.41 355.191 359.748C354.988 359.086 354.963 358.382 355.12 357.708L356 353.998L356.84 350.328C356.993 349.653 357.321 349.03 357.792 348.523C358.263 348.015 358.859 347.641 359.52 347.438C360.182 347.235 360.886 347.211 361.56 347.367C362.234 347.523 362.855 347.855 363.36 348.328L366.11 350.888L368.84 353.508Z" fill="white"/>
</g>
<g opacity="0.54">
<path opacity="0.54" d="M260.64 2.1299C261.46 2.5566 262.249 3.0412 263 3.5799L271.4 9.7199C273.98 11.5899 276.67 13.6199 277.89 16.5599C280.16 22.0299 276.54 28.0199 273.09 32.8199L264.62 44.6199C262.807 47.4292 260.597 49.962 258.06 52.14C255.42 54.14 252 55.48 248.73 54.81C246.32 54.33 244.24 52.81 242.24 51.42L234.14 45.6099C231.49 43.7099 228.71 41.6099 227.48 38.6099C225.29 33.2099 228.82 27.3399 232.19 22.6099L240.78 10.5099C245.93 3.2099 252.6 -2.0601 260.64 2.1299Z" fill="#3FBDF1"/>
<path opacity="0.54" d="M253.2 20.2214C253.955 19.8869 254.784 19.7561 255.605 19.8421C256.426 19.9281 257.21 20.228 257.879 20.7117C258.548 21.1954 259.078 21.8461 259.417 22.5988C259.756 23.3515 259.891 24.18 259.81 25.0014L259.33 29.5014L258.85 34.0014C258.762 34.8261 258.459 35.613 257.97 36.283C257.481 36.953 256.825 37.4825 256.067 37.818C255.308 38.1536 254.475 38.2835 253.65 38.1945C252.826 38.1056 252.039 37.801 251.37 37.3114L247.72 34.6514L244.07 32.0014C243.398 31.5137 242.866 30.8573 242.529 30.0985C242.192 29.3397 242.061 28.5053 242.149 27.6796C242.237 26.8539 242.542 26.0661 243.032 25.3957C243.522 24.7253 244.18 24.1961 244.94 23.8614L249.07 22.0314L253.2 20.2214Z" fill="white"/>
</g>
<path d="M656.55 757.002C656.545 757.176 656.525 757.35 656.49 757.522C656.475 757.564 656.475 757.61 656.49 757.652C655.083 766.991 651.206 775.784 645.26 783.122C645.19 783.182 645.16 783.282 645.1 783.342C635.96 794.732 622.71 802.952 609.3 808.112C595.6 813.442 581.71 815.592 571.82 814.852H571.6C559.5 813.952 546.22 815.522 534.6 817.702C533.38 817.932 532.16 818.152 530.94 818.412C523.27 819.952 515.7 821.872 508.2 823.992L506.79 824.382L505.85 824.632C498.85 778.792 494.11 731.852 494.11 731.852L637.11 757.262C643.546 758.43 650.147 758.342 656.55 757.002Z" fill="#3FBDF1"/>
<path d="M362.88 539.099C355.36 546.559 345.29 547.999 335.4 550.199C312.93 555.199 294.09 549.519 293.1 523.689C292.46 507.069 294.22 490.439 304.28 476.639C316.33 460.109 334.84 449.099 353.28 441.059C353.28 441.059 361.74 484.339 400.28 486.219C438.82 488.099 429.44 538.909 384.28 530.439" stroke="black" stroke-width="4.47" stroke-miterlimit="10"/>
<path d="M391.85 552.082C392.85 552.082 393.77 552.082 394.7 552.012C394.926 551.997 395.154 551.997 395.38 552.012H395.47L397.24 551.852" stroke="black" stroke-width="4.47" stroke-miterlimit="10"/>
<path d="M434.55 446.37C428.231 438.859 420.68 432.478 412.22 427.5C411.279 426.88 410.304 426.313 409.3 425.8C408.3 425.23 407.3 424.68 406.3 424.17C404.19 423.08 402 422.05 399.76 421.17C386.536 415.633 372.337 412.801 358 412.84C280.88 412.84 302.31 479.57 302.31 479.57" stroke="black" stroke-width="4.47" stroke-miterlimit="10"/>
<path d="M447.35 609.441C444.69 595.261 448.02 573.191 451.71 555.541C455.02 539.821 458.64 527.632 458.64 527.632C464.1 495.551 463.87 478.351 461.34 469.501C457 453.871 445.52 464.001 445.52 464.001" stroke="black" stroke-width="4.47" stroke-miterlimit="10"/>
<path d="M461.34 469.501C457 453.871 445.52 464.001 445.52 464.001C443.536 459.482 441.086 455.182 438.21 451.171C437.05 449.558 435.83 447.984 434.55 446.451C437.98 437.341 447.13 431.911 456.55 431.181C481.28 429.281 505.66 445.651 513.11 469.181C519.84 490.451 515.87 513.511 515 535.331C514.65 544.791 513.3 559.331 520.52 566.991C520.9 567.381 521.26 567.731 521.67 568.081C527.67 573.251 537.23 573.541 548.56 572.771C551.86 572.541 555.33 572.261 558.92 571.931C569.92 570.931 581.92 570.071 593.51 572.031L594.66 572.221C594.31 591.121 593.15 610.081 592.19 628.981C591.68 638.181 591.19 647.391 590.94 656.601C573.87 650.891 551.94 642.771 535.02 637.031L526 633.921C497.09 624.071 473.93 616.301 446.89 610.081C436.46 607.671 425.46 605.521 413.3 603.531L400.37 601.261C399.503 601.11 398.718 600.656 398.154 599.98C397.59 599.305 397.284 598.451 397.29 597.571V551.821C405.925 551.088 414.273 548.366 421.68 543.87C429.088 539.373 435.355 533.223 439.99 525.901C452.5 505.781 453.69 485.191 446.85 467.121C446.606 466.399 446.323 465.691 446 465.001C445.925 464.793 445.838 464.589 445.74 464.391C445.74 464.331 445.68 464.231 445.65 464.161" stroke="black" stroke-width="4.47" stroke-miterlimit="10"/>
<path d="M127.56 633.921C131.56 602.921 133.4 571.391 137.28 540.211" stroke="black" stroke-width="4.47" stroke-miterlimit="10"/>
<path d="M137.92 535.332C139.01 526.892 140.3 518.452 141.92 510.112C141.98 509.702 142.05 509.312 142.14 508.932C143.04 503.992 144.04 499.082 145.14 494.172C148.48 479.482 160.14 468.732 168.43 456.762L168.94 455.482C186.825 429.462 196.727 398.788 197.43 367.222C197.63 355.802 197.18 333.222 184.09 328.562C176.74 325.932 168.94 331.072 164.87 336.942C163.198 339.365 161.854 341.998 160.87 344.772" stroke="black" stroke-width="4.47" stroke-miterlimit="10"/>
<path d="M256.79 899.998C224.86 809.338 240 710.298 240 710.298L192.91 711.778L68.69 715.718C61.394 715.959 54.132 714.631 47.394 711.824C40.655 709.016 34.598 704.795 29.632 699.446C24.665 694.096 20.905 687.743 18.605 680.815C16.305 673.887 15.519 666.546 16.3 659.288L53.2 524.578" stroke="black" stroke-width="4.47" stroke-miterlimit="10"/>
<path d="M54.99 518L58.23 506.2L61.99 492.82" stroke="black" stroke-width="4.47" stroke-miterlimit="10"/>
<path d="M65.19 481.301L67.34 473.571C70.188 463.308 69.483 452.384 65.34 442.571L61.07 432.371C58.28 423.871 57.41 419.761 60.91 411.451C62.566 407.53 64.891 403.927 67.78 400.801C76.21 391.501 88.08 386.881 100.31 385.301C112.54 383.721 126.04 384.951 135.88 392.881C142.56 398.261 148.88 411.071 144.51 419.441C141.34 425.531 134.63 427.301 128.92 425.121C126.922 424.373 125.122 423.176 123.66 421.621C116.92 414.561 102.66 413.021 97.66 419.891" stroke="black" stroke-width="4.47" stroke-miterlimit="10"/>
<path d="M590.66 667.832C590.66 665.322 590.75 662.832 590.85 660.292V660.092C590.85 658.942 590.91 657.752 590.98 656.602" stroke="black" stroke-width="4.47" stroke-miterlimit="10"/>
<path d="M577.83 427.629C566.12 433.889 551.74 449.629 576 486.629C584 498.819 592.45 511.999 593.64 527.049C594.749 542.088 595.103 557.174 594.7 572.249" stroke="black" stroke-width="4.47" stroke-miterlimit="10"/>
<path d="M464.26 726.602L492.1 731.542L494.1 731.892L506.87 734.172L637.08 757.302C643.526 758.474 650.138 758.386 656.55 757.042C667.685 754.697 677.718 748.702 685.057 740.006C692.395 731.31 696.62 720.412 697.06 709.042L677.82 551.532L673.56 517.912C672.208 507.338 674.478 496.619 680 487.502L685.71 478.002C685.71 478.002 695.65 463.502 678.26 462.442C668.89 461.892 659.14 464.442 650.67 468.282C645.83 470.432 639.03 474.282 636.3 479.572C635.19 481.574 634.815 483.902 635.24 486.152C637.24 496.482 650.24 500.842 658.82 496.482" stroke="black" stroke-width="4.47" stroke-miterlimit="10"/>
<path d="M684 463.191C684 463.191 693.83 457.341 687.18 442.951C684.82 437.831 677.67 434.281 662.28 435.261C621.28 437.871 605.22 480.031 636.35 479.571" stroke="black" stroke-width="4.47" stroke-miterlimit="10"/>
<path d="M674.66 435.191C683.76 422.651 667.66 410.651 655.93 411.061C644.87 411.451 633.68 415.541 623.99 420.661C610.51 427.781 593.11 441.571 598.09 459.021C599.56 464.161 611.19 470.511 618.79 466.841" stroke="black" stroke-width="4.47" stroke-miterlimit="10"/>
<path d="M597.23 452.819C597.23 452.819 597.23 452.819 597.23 452.879C590.88 465.009 560.82 452.879 577.79 427.629C581.754 422.043 586.507 417.061 591.9 412.839C634.22 378.259 643.68 413.419 643.62 411.329" stroke="black" stroke-width="4.47" stroke-miterlimit="10"/>
<path d="M615.65 467.121C615.65 467.121 631.13 478.121 626.38 496.451" stroke="black" stroke-width="4.47" stroke-miterlimit="10"/>
<path d="M70.65 379.131C69.65 375.191 69.78 370.221 72.12 363.861C75.49 354.721 85.31 348.721 94.87 344.771C98.36 343.331 101.87 342.141 104.87 341.211C115.3 338.011 126.75 336.311 137.87 337.431C141.618 337.794 145.323 338.504 148.94 339.551C153.112 340.754 157.104 342.51 160.81 344.771C169.95 350.391 176.14 358.921 179.86 370.121C183.1 379.781 184.35 391.261 176.33 397.291" stroke="black" stroke-width="4.47" stroke-miterlimit="10"/>
<path d="M177.06 525.831L174.11 540.111C174.012 540.592 173.819 541.047 173.541 541.451C173.263 541.855 172.907 542.198 172.494 542.462C172.08 542.725 171.618 542.902 171.135 542.983C170.651 543.063 170.156 543.046 169.68 542.931C158.33 540.241 148.38 537.741 137.92 535.331C132.73 534.111 127.37 532.961 121.69 531.771C99.49 527.181 77.32 522.001 55 518.001C45.67 516.331 36.33 514.881 26.93 513.791C21.67 513.181 16.34 512.931 11.05 512.541C9.894 512.515 8.773 512.135 7.84 511.451C2.84 507.791 7.84 495.891 8.93 490.951C8.93 490.891 8.93 490.821 8.93 490.761C9.7 486.971 31.48 488.061 61.93 492.811C72.55 494.481 84.22 496.561 96.45 499.071C113.64 502.601 129.14 506.411 141.81 510.071C143.99 510.711 146.08 511.321 148.07 511.931C148.07 511.931 148.07 511.931 148.13 511.931C150.66 512.731 153.04 513.501 155.28 514.271C169.43 519.101 177.58 523.301 177.06 525.831Z" fill="#3FBDF1"/>
<path d="M177.06 525.831L174.11 540.111C174.012 540.592 173.819 541.047 173.541 541.451C173.263 541.855 172.907 542.198 172.494 542.462C172.08 542.725 171.618 542.902 171.135 542.983C170.651 543.063 170.156 543.046 169.68 542.931C158.33 540.241 148.38 537.741 137.92 535.331C132.73 534.111 127.37 532.961 121.69 531.771C99.49 527.181 77.32 522.001 55 518.001C45.67 516.331 36.33 514.881 26.93 513.791C21.67 513.181 16.34 512.931 11.05 512.541C9.894 512.515 8.773 512.135 7.84 511.451C2.84 507.791 7.84 495.891 8.93 490.951C8.93 490.891 8.93 490.821 8.93 490.761C9.7 486.971 31.48 488.061 61.93 492.811C72.55 494.481 84.22 496.561 96.45 499.071C113.64 502.601 129.14 506.411 141.81 510.071C143.99 510.711 146.08 511.321 148.07 511.931C148.07 511.931 148.07 511.931 148.13 511.931C150.66 512.731 153.04 513.501 155.28 514.271C169.43 519.101 177.58 523.301 177.06 525.831Z" stroke="black" stroke-width="4.47" stroke-miterlimit="10"/>
<path d="M145.92 411.75L148.76 417.44C152.33 421.35 157.27 423.82 164.04 422.12C177.32 418.82 178.63 407.81 176.32 397.29C175.923 395.38 175.409 393.496 174.78 391.65C171.67 382.37 166.86 374.9 160.12 369.45C155.331 365.573 149.797 362.721 143.86 361.07C139.023 359.673 134.032 358.877 129 358.7C119.113 358.359 109.241 359.712 99.81 362.7C90.38 365.59 77.48 370.56 70.62 379.09C69.083 380.964 67.867 383.079 67.02 385.35C64.91 391.09 64.55 395.74 65.29 399.5L66 403" stroke="black" stroke-width="4.47" stroke-miterlimit="10"/>
<path d="M149.6 339.772L152.9 326.102L156.82 310.002C157.373 307.68 157.443 305.27 157.024 302.92C156.605 300.571 155.706 298.333 154.384 296.346C153.062 294.359 151.345 292.665 149.34 291.371C147.335 290.076 145.085 289.209 142.73 288.822C141.808 288.669 140.875 288.596 139.94 288.602C135.983 288.592 132.142 289.94 129.059 292.421C125.977 294.902 123.838 298.365 123 302.232C122 306.892 120.75 312.562 119.37 318.952C118.06 325.012 116.61 331.652 115.07 338.652" stroke="black" stroke-width="4.47" stroke-miterlimit="10"/>
<path d="M110.43 360.139V360.109" stroke="black" stroke-width="2.98" stroke-miterlimit="10"/>
<path d="M97.69 419.879C96.69 424.789 96.12 427.879 96.15 428.409C96.15 428.409 96.15 428.409 96.15 428.479C91.82 457.579 79.08 473.139 65.22 481.249C56.743 486.072 47.275 488.894 37.54 489.499" stroke="black" stroke-width="4.47" stroke-miterlimit="10"/>
<path d="M129 425.109C129 425.109 105.78 486.999 142.09 508.939C144.01 510.092 146.016 511.095 148.09 511.939C150.575 512.971 153.14 513.797 155.76 514.409" stroke="black" stroke-width="4.47" stroke-miterlimit="10"/>
<path d="M172.19 542.641C172.19 542.641 172.35 545.501 137.28 540.211C125.28 538.411 109.15 535.651 87.46 531.481C73.86 528.881 62.56 526.571 53.2 524.581C4.01999 514.061 7.83 511.461 7.83 511.461" stroke="black" stroke-width="4.47" stroke-miterlimit="10"/>
<path d="M271 194.75C263.52 234.4 238.88 276.14 209 302.93C196.78 313.93 182.57 321.6 167.23 324.62C162.523 325.577 157.733 326.07 152.93 326.09L156.82 310C157.775 306.037 157.309 301.865 155.504 298.21C153.698 294.555 150.668 291.65 146.94 290C145.593 289.422 144.184 289.002 142.74 288.75C141.815 288.597 140.878 288.523 139.94 288.53C135.975 288.524 132.128 289.88 129.043 292.372C125.959 294.865 123.826 298.342 123 302.22C122.39 305.14 121.65 308.45 120.85 312.07C82.85 286.95 66.37 233.22 68.2 189.59C68.78 175.09 69.58 156 75.93 141.24C78.073 135.98 81.272 131.215 85.33 127.24C103.33 110.3 127.97 102.57 153.38 101.41C172.883 102.33 192.077 106.641 210.1 114.15C243.7 128.34 278.76 153.5 271 194.75Z" fill="#3FBDF1"/>
<path d="M271 194.75C263.52 234.4 238.88 276.14 209 302.93C196.78 313.93 182.57 321.6 167.23 324.62L170.78 310C171.333 307.679 171.403 305.268 170.984 302.918C170.564 300.569 169.666 298.331 168.344 296.344C167.022 294.357 165.305 292.663 163.3 291.369C161.295 290.075 159.045 289.207 156.69 288.82C155.768 288.667 154.835 288.594 153.9 288.6C151.489 288.59 149.103 289.091 146.9 290.07C145.553 289.492 144.144 289.072 142.7 288.82C141.775 288.667 140.838 288.593 139.9 288.6C135.951 288.599 132.121 289.95 129.047 292.428C125.972 294.906 123.838 298.361 123 302.22C122.39 305.14 121.65 308.45 120.85 312.07C82.85 286.95 66.37 233.22 68.2 189.59C68.78 175.09 69.58 156 75.93 141.24C78.073 135.98 81.272 131.215 85.33 127.24C103.33 110.3 127.97 102.57 153.38 101.41C172.883 102.33 192.077 106.641 210.1 114.15C243.7 128.34 278.76 153.5 271 194.75Z" fill="#3FBDF1"/>
<path d="M271 194.76C263.53 234.41 238.89 276.15 209 302.94C193 317.28 173.69 326 152.9 326.1L156.82 310C157.373 307.679 157.443 305.268 157.024 302.918C156.604 300.569 155.706 298.331 154.384 296.344C153.062 294.357 151.345 292.663 149.34 291.369C147.335 290.074 145.085 289.207 142.73 288.82C141.808 288.667 140.875 288.594 139.94 288.6C135.983 288.59 132.142 289.939 129.059 292.419C125.976 294.9 123.838 298.363 123 302.23C122 306.89 120.75 312.56 119.37 318.95C72.47 298.16 52.22 237.75 54.25 189.6C54.82 175.1 55.62 156.01 61.98 141.25C64.119 135.988 67.319 131.222 71.38 127.25C106.79 93.95 167.72 96.25 210.1 114.16C243.69 128.35 278.76 153.5 271 194.76Z" stroke="black" stroke-width="4.47" stroke-miterlimit="10"/>
<path d="M270.8 196.191C278.89 205.871 286.48 222.091 279.8 246.191C278.773 249.994 277.303 253.662 275.42 257.121C264.8 276.121 244.3 279.451 230.48 279.251" stroke="black" stroke-width="4.47" stroke-miterlimit="10"/>
<path d="M264.64 216.461C271.64 224.841 278.11 238.111 275.41 257.141C274.981 260.196 274.35 263.219 273.52 266.191C263.52 302.111 226.81 300.341 214.21 298.591" stroke="black" stroke-width="4.47" stroke-miterlimit="10"/>
<path d="M68.59 265.998C60.77 267.608 16.52 258.528 15.98 221.638C15.821 216.638 16.764 211.664 18.74 207.068C25.67 191.448 43.95 186.508 54.48 184.898" stroke="black" stroke-width="4.47" stroke-miterlimit="10"/>
<path d="M60.63 247.509C52.63 247.999 10.12 232.829 14.73 196.219C15.28 191.26 16.908 186.482 19.5 182.219C28.5 167.709 47.34 165.379 57.98 165.219" stroke="black" stroke-width="4.47" stroke-miterlimit="10"/>
<path d="M240 710.31C240 710.31 240.91 703.36 245.91 687.66" stroke="black" stroke-width="4.47" stroke-miterlimit="10"/>
<path d="M404.46 601.928V601.998C404.1 625.908 387.46 631.328 373.79 633.928C340.1 640.368 316.71 615.798 317.74 594.398" stroke="black" stroke-width="4.47" stroke-miterlimit="10"/>
<path d="M324.13 470.371C324.13 470.371 325.13 481.371 315.56 495.561C313 499.381 321.86 500.951 323.97 501.661" stroke="black" stroke-width="4.47" stroke-miterlimit="10"/>
<path d="M362.714 494.177C368.397 484.333 366.517 472.609 358.515 467.989C350.513 463.369 339.42 467.603 333.737 477.447C328.054 487.29 329.933 499.015 337.935 503.635C345.937 508.254 357.031 504.02 362.714 494.177Z" stroke="black" stroke-width="4.47" stroke-miterlimit="10"/>
<path d="M323.016 481.443C328.699 471.554 326.79 459.793 318.751 455.173C310.713 450.553 299.589 454.824 293.906 464.713C288.223 474.601 290.133 486.362 298.171 490.982C306.21 495.602 317.333 491.331 323.016 481.443Z" stroke="black" stroke-width="4.48539" stroke-miterlimit="10"/>
<path d="M309.17 460.441C310.84 460.426 312.483 460.857 313.93 461.691C315.275 462.517 316.416 463.638 317.267 464.968C318.117 466.298 318.655 467.804 318.84 469.371C319.383 473.282 318.568 477.26 316.53 480.641C313.53 485.791 308.53 489.111 303.58 489.111C301.911 489.131 300.267 488.703 298.82 487.871C297.476 487.044 296.336 485.923 295.486 484.593C294.636 483.263 294.097 481.759 293.91 480.191C293.367 476.278 294.182 472.296 296.22 468.911C299.22 463.771 304.22 460.441 309.17 460.441ZM309.17 457.441C303.39 457.441 297.26 461.121 293.64 467.441C288.64 476.101 290.29 486.441 297.33 490.441C299.23 491.536 301.387 492.106 303.58 492.091C309.36 492.091 315.49 488.401 319.12 482.091C324.12 473.441 322.46 463.091 315.42 459.091C313.518 458.003 311.361 457.438 309.17 457.451V457.441Z" fill="white"/>
<path d="M319.115 482.105C324.113 473.448 322.461 463.137 315.425 459.075C308.39 455.013 298.634 458.738 293.636 467.395C288.638 476.052 290.29 486.363 297.325 490.425C304.361 494.487 314.116 490.762 319.115 482.105Z" fill="#3FBDF1"/>
<path d="M363.152 491.33C368.151 482.633 366.473 472.29 359.405 468.228C352.337 464.166 342.555 467.923 337.557 476.62C332.559 485.317 334.237 495.66 341.305 499.722C348.373 503.784 358.154 500.027 363.152 491.33Z" fill="#3FBDF1"/>
<path d="M324 474C324 474 327 469.53 333.77 477.44" stroke="black" stroke-width="4.47" stroke-miterlimit="10"/>
<path d="M353.436 484.926C355.065 482.793 354.919 479.944 353.111 478.563C351.302 477.183 348.516 477.793 346.887 479.926C345.258 482.06 345.404 484.908 347.213 486.289C349.021 487.67 351.808 487.06 353.436 484.926Z" fill="#353642"/>
<path d="M319.701 475.215C321.329 473.082 321.184 470.233 319.375 468.852C317.566 467.472 314.78 468.082 313.151 470.215C311.522 472.349 311.668 475.197 313.477 476.578C315.285 477.959 318.072 477.349 319.701 475.215Z" fill="#353642"/>
<path d="M344.53 519.488C324.05 536.888 313.3 521.388 313.3 521.388" stroke="black" stroke-width="4.47" stroke-miterlimit="10"/>
<path d="M127.56 619.51C145.27 616.34 163.14 613.86 180.69 610.62C189.25 609.047 197.803 607.52 206.35 606.04C244.43 599.56 282.45 594.52 320.95 594.36C322.809 594.361 324.606 593.689 326.008 592.469C327.411 591.248 328.324 589.562 328.58 587.72L329.29 582.39L333.78 549.16" stroke="black" stroke-width="4.47" stroke-miterlimit="10"/>
<path d="M397.24 551.819V551.659V550.859" stroke="black" stroke-width="4.47" stroke-miterlimit="10"/>
<path d="M7.76 900H227.11H251.92H464.45H504.27H769.71" stroke="black" stroke-width="4.47" stroke-miterlimit="10"/>
<path d="M494.09 731.891C494.09 731.891 498.81 778.831 505.83 824.671C510.45 854.831 516.1 884.501 522 900.001" stroke="black" stroke-width="4.47" stroke-miterlimit="10"/>
<path d="M505.83 824.668L506.76 824.418L508.18 824.028C515.68 821.908 523.25 820.028 530.92 818.448C532.14 818.188 533.36 817.968 534.58 817.738C543.133 816.161 551.804 815.315 560.5 815.208C564.35 815.208 568.04 815.078 571.57 814.888H571.79C586.58 814.048 598.94 811.678 609.27 808.148C626.14 802.408 637.53 793.588 645.07 783.378C645.13 783.318 645.16 783.218 645.23 783.158C650.715 775.548 654.541 766.871 656.46 757.688C656.445 757.646 656.445 757.6 656.46 757.558L656.56 757.078" stroke="black" stroke-width="4.47" stroke-miterlimit="10"/>
</svg>
