<svg width="471" height="478" viewBox="0 0 471 478" fill="none" xmlns="http://www.w3.org/2000/svg">
<path d="M69.3145 74.342C69.4884 74.1364 69.6939 73.9467 69.8836 73.7517C107.027 36.8617 167.047 32.1187 214.972 47.1698C238.402 54.5215 256.784 75.1799 278.813 85.4301C286.143 88.8292 293.869 91.069 302.317 91.3008C324.419 91.9069 345.062 77.2932 367.106 78.9743C395.248 81.0823 411.822 109.54 415.828 134.836C422.436 176.664 403.295 222.05 379.465 255.467C366.384 273.827 351.665 290.776 337.542 308.293C326.585 321.927 319.365 342.548 333.853 356.714C353.088 375.512 359.006 333.911 381.683 343.407C438.141 367.043 431.701 417.714 418.884 439.405C407.185 459.247 384.629 472.559 361.631 474.44C357.98 474.741 354.31 474.741 350.659 474.44" stroke="#CCDDE2" stroke-width="5.4" stroke-miterlimit="10"/>
<path d="M171.073 338.39C171.073 338.448 171.073 338.506 171.073 338.564C171.073 342.437 188.221 357.209 190.804 359.944" stroke="#CCDDE2" stroke-width="5.4" stroke-miterlimit="10"/>
<path d="M117.714 474.25C112.512 474.424 107.595 474.403 102.926 474.213C48.8876 467.578 8.24009 359.944 71.8227 327.27" stroke="#CCDDE2" stroke-width="5.4" stroke-miterlimit="10"/>
<path d="M179.004 195.304V86.2514C179 83.0926 177.743 80.0639 175.51 77.8305C173.276 75.5965 170.247 74.3402 167.089 74.3359H14.7856C11.6312 74.347 8.60969 75.6065 6.38175 77.8394C4.15375 80.0723 2.90065 83.0968 2.89648 86.2514V302.474C2.90065 305.631 4.15807 308.657 6.39234 310.887C8.62661 313.118 11.655 314.37 14.812 314.369H167.115C168.592 314.379 170.057 314.098 171.426 313.541" stroke="black" stroke-width="5.4" stroke-linecap="round" stroke-linejoin="round"/>
<path d="M163.847 81.6333H18.053C12.6336 81.6333 8.24023 86.0269 8.24023 91.446V297.292C8.24023 302.712 12.6336 307.105 18.053 307.105H163.847C169.267 307.105 173.66 302.712 173.66 297.292V91.446C173.66 86.0269 169.267 81.6333 163.847 81.6333Z" fill="#3FBDF1"/>
<path d="M160.823 99.0845H22.8859C20.1761 99.0845 17.9795 101.281 17.9795 103.991V136.391C17.9795 139.1 20.1761 141.297 22.8859 141.297H160.823C163.533 141.297 165.729 139.1 165.729 136.391V103.991C165.729 101.281 163.533 99.0845 160.823 99.0845Z" fill="#3FBDF1"/>
<path d="M90.9474 116.866C93.36 116.866 95.3163 114.909 95.3163 112.497C95.3163 110.084 93.36 108.128 90.9474 108.128C88.5348 108.128 86.5786 110.084 86.5786 112.497C86.5786 114.909 88.5348 116.866 90.9474 116.866Z" fill="#D7E8F0"/>
<path d="M78.7526 132.253C78.7189 130.63 79.0093 129.017 79.6074 127.507C80.2051 125.998 81.0983 124.623 82.234 123.464C83.3702 122.304 84.7262 121.382 86.2229 120.753C87.7195 120.124 89.3264 119.8 90.9501 119.8C92.5737 119.8 94.1806 120.124 95.6772 120.753C97.1739 121.382 98.5299 122.304 99.6661 123.464C100.802 124.623 101.695 125.998 102.293 127.507C102.891 129.017 103.181 130.63 103.147 132.253H78.7526Z" fill="#D7E8F0"/>
<path d="M32.7563 160.142H147.637" stroke="white" stroke-width="5.4" stroke-miterlimit="10"/>
<path d="M32.7563 171.452H147.637" stroke="white" stroke-width="5.4" stroke-miterlimit="10"/>
<path d="M32.7563 244.273H147.637" stroke="white" stroke-width="5.4" stroke-miterlimit="10"/>
<path d="M59.4385 254.965H120.955" stroke="white" stroke-width="5.4" stroke-miterlimit="10"/>
<path d="M61.8678 214.191L52.7033 223.93C51.9602 224.719 51.0685 225.356 50.0794 225.801C49.0902 226.246 48.0235 226.492 46.939 226.526C45.8549 226.559 44.7751 226.378 43.7606 225.993C42.7461 225.609 41.8176 225.028 41.0276 224.285C40.2376 223.542 39.6015 222.65 39.1562 221.661C38.7109 220.672 38.4648 219.605 38.4316 218.521C38.3984 217.437 38.5797 216.357 38.9639 215.343C39.348 214.328 39.9288 213.4 40.6719 212.61L49.8311 202.871L61.8678 214.191Z" fill="#3FBDF1"/>
<path d="M71.022 204.442L61.8575 214.192L49.8208 202.872L58.9906 193.128C60.4947 191.537 62.5673 190.606 64.756 190.539C66.9441 190.472 69.07 191.274 70.6689 192.769C72.2536 194.276 73.1795 196.348 73.2454 198.533C73.3118 200.719 72.5129 202.842 71.022 204.442Z" fill="#D7E8F0"/>
<path d="M106.642 198.096C106.252 196.21 110.12 193.09 111.385 192.41C116.091 189.944 123.332 191.804 125.909 196.515C131.827 207.319 115.2 222.718 106.615 226.523C105.63 225.732 82.1415 208.162 87.6434 196.916C93.1453 185.67 105.277 191.382 106.642 198.096Z" fill="#D7E8F0"/>
<path d="M88.9189 217.353H101.72" stroke="white" stroke-width="5.4" stroke-linecap="round" stroke-linejoin="round"/>
<path d="M95.3164 223.751V210.95" stroke="white" stroke-width="5.4" stroke-linecap="round" stroke-linejoin="round"/>
<path d="M342.538 220.232C342.538 220.232 312.973 204.3 293.906 200.448C293.906 200.448 293.774 203.294 290.602 210.319C287.429 217.344 278.07 238.102 278.07 238.102L264.02 227.43L264.231 243.34L225.686 284.51L201.323 231.177L204.569 216.174L190.688 221.491L183.273 195.036C183.273 195.036 146.72 203.257 115.237 228.59C83.7542 253.923 74.7372 293.411 71.8123 327.27C68.8875 361.13 72.4026 396.834 117.134 408.898C117.134 408.898 138.151 414.168 155.263 407.116C160.596 404.913 168.343 402.858 176.469 401.056L176.206 401.151C176.206 401.151 172.517 413.951 161.829 420.918C161.829 420.918 180.554 435.147 212.548 441.35C244.542 447.553 312.151 451.263 346.227 421.698C380.302 392.134 381.694 343.391 381.694 343.391C381.694 343.391 392.761 249.285 342.538 220.232ZM167.463 303.403C166.302 303.364 165.179 302.986 164.232 302.314C163.286 301.642 162.558 300.706 162.139 299.624C161.72 298.541 161.628 297.359 161.876 296.224C162.124 295.09 162.7 294.054 163.532 293.245C164.364 292.435 165.417 291.889 166.557 291.673C167.698 291.457 168.877 291.581 169.947 292.03C171.018 292.479 171.933 293.233 172.578 294.199C173.223 295.164 173.57 296.297 173.576 297.458C173.548 299.055 172.89 300.577 171.745 301.69C170.6 302.804 169.06 303.42 167.463 303.403ZM297.384 357.657C296.488 362.211 291.687 391.016 279.819 394.4C267.951 397.783 256.236 390.426 228.553 393.298C228.553 393.298 222.587 393.525 214.324 394.263C197.064 374.042 214.44 345.22 214.44 345.22C214.44 345.22 253.67 333.273 272.373 341.895C291.076 350.516 298.296 353.093 297.384 357.657Z" fill="#3FBDF1"/>
<path d="M330.306 437.395V474.443C270.491 474.443 189.565 474.349 131.1 474.275C130.378 455.208 129.24 411.346 134.077 411.035C140.27 410.655 146.82 406.687 154.377 415.709C161.935 424.732 193.57 440.868 237.886 444.663C282.201 448.457 319.571 438.017 327.871 433.501C327.876 433.506 330.306 429.174 330.306 437.395Z" fill="#3FBDF1"/>
<path d="M167.463 286.627C173.608 286.627 178.609 291.497 178.609 297.483C178.609 303.47 173.608 308.34 167.463 308.34C161.318 308.34 156.322 303.47 156.322 297.483C156.322 291.497 161.318 286.627 167.463 286.627ZM167.463 282.828C159.21 282.828 152.522 289.389 152.522 297.483C152.522 305.578 159.21 312.139 167.463 312.139C175.716 312.139 182.403 305.578 182.403 297.483C182.403 289.389 175.71 282.822 167.463 282.822V282.828Z" fill="white"/>
<path d="M242.918 216.679L233.338 227.445C233.023 227.698 232.661 227.884 232.273 227.993C231.885 228.101 231.478 228.13 231.079 228.077C230.679 228.023 230.294 227.89 229.948 227.683C229.602 227.477 229.301 227.202 229.064 226.876L222.323 212.373L235.446 201.944L242.918 216.679Z" fill="#3FBDF1"/>
<path d="M236.842 223.497L240.905 239.819L229.048 254.875L220.194 235.239L226.755 221.938" fill="#3FBDF1"/>
<path d="M277.2 106.589C275.092 107.063 273.247 108.697 271.84 110.442C270.532 112.077 269.425 113.864 268.541 115.764C268.541 115.764 264.093 96.7923 262.217 80.3341C261.59 74.9797 259.714 72.1129 257.432 70.6689C252.726 67.6861 246.365 70.8744 246.365 70.8744L225.232 82.3841C221.178 84.618 216.715 86.0125 212.11 86.4841C209.958 86.7318 207.785 86.7318 205.633 86.4841C193.992 80.7293 193.823 58.0261 207.968 57.868C208.394 58.2654 208.793 58.6896 209.164 59.1381C208.96 58.7197 208.771 58.3033 208.595 57.8891C209.386 57.9128 210.174 58.0014 210.951 58.1526C212.11 58.3792 213.191 59.5755 213.913 60.4135C210.155 53.1198 214.16 43.9289 221.565 41.1411C226.065 39.4494 231.098 39.7709 235.794 40.7616C236.537 40.9092 237.274 41.0831 238.017 41.2886C249.791 44.8406 260.099 51.0118 267.714 61.3146C277.353 74.3473 279.761 90.8477 277.2 106.589Z" fill="#2E2E2E"/>
<path d="M142.979 303.696C130.083 361.139 179.584 351.516 243.91 340.191C266.892 336.149 286.449 346.125 297.78 355.432" stroke="black" stroke-width="5.4" stroke-linejoin="round"/>
<path d="M183.273 195.029C154.04 202.223 119.553 219.672 100.581 243.355C75.7439 274.316 70.5424 315.486 71.1063 354.025C71.6333 391.679 111.09 417.687 146.905 409.55" stroke="black" stroke-width="5.4" stroke-linejoin="round"/>
<path d="M198.414 180.963H198.436" stroke="black" stroke-width="5.4" stroke-linejoin="round"/>
<path d="M300.941 305.816C300.941 305.816 301.995 330.737 297.779 355.433C295.866 366.705 292.857 377.93 288.162 386.721C286.901 389.043 285.049 390.99 282.792 392.364C280.535 393.739 277.955 394.492 275.313 394.547C270.498 394.634 265.682 394.442 260.889 393.972C219.583 390.093 180.87 398.605 152.638 407.959C150.741 408.581 148.833 409.108 146.915 409.54C164.722 425.698 210.534 455.568 297.152 442.614C413.619 425.223 377.219 271.429 377.219 271.429C374.057 254.86 364.181 239.477 352.308 227.825C338.859 214.65 312.783 205.939 295.055 200.421" stroke="black" stroke-width="5.4" stroke-linejoin="round"/>
<path d="M232.758 171.466C232.758 171.466 197.322 165.142 202.071 123.351C204.179 104.758 208.242 93.3857 212.084 86.4609" stroke="black" stroke-width="5.4" stroke-linejoin="round"/>
<path d="M266.318 160.473C272.863 150.692 271.862 137.707 273.917 134.439C277.079 129.37 289.727 113.554 282.138 107.857C280.389 106.545 278.718 106.276 277.2 106.582C272.094 107.72 268.542 115.757 268.542 115.757C268.542 115.757 264.099 96.7851 262.218 80.3216C260.336 63.8581 246.36 70.8672 246.36 70.8672L225.227 82.3717C221.175 84.6104 216.711 86.0064 212.105 86.4765C209.695 86.7605 207.259 86.741 204.854 86.419C188.517 84.311 187.463 53.3814 206.203 56.907C207.362 57.1336 208.442 58.3299 209.164 59.1678C205.402 51.8742 209.412 42.6833 216.817 39.8955C221.317 38.2038 226.35 38.5253 231.046 39.516C245.707 42.6095 258.634 49.0015 267.714 61.3122C277.358 74.3555 279.772 90.8563 277.2 106.598" stroke="black" stroke-width="5.4" stroke-linejoin="round"/>
<path d="M228.331 132.216H220.737L221.233 126.198L223.262 101.834" stroke="black" stroke-width="5.4" stroke-linejoin="round"/>
<path d="M221.217 126.197H200.358C198.879 126.197 197.461 125.609 196.415 124.564C195.37 123.518 194.782 122.1 194.782 120.621V101.839H230.039M230.039 101.839V120.621C230.04 122.1 230.629 123.519 231.675 124.564C232.721 125.61 234.14 126.197 235.619 126.197H256.304C257.784 126.197 259.202 125.61 260.249 124.564C261.295 123.519 261.884 122.1 261.885 120.621V101.839H230.039Z" stroke="black" stroke-width="5.4" stroke-linejoin="round"/>
<path d="M228.331 139.478C228.331 139.478 233.712 141.375 239.725 132.195" stroke="black" stroke-width="5.4" stroke-linejoin="round"/>
<path d="M225.47 286.352L264.742 242.769L264.025 227.423L277.606 239.128L295.055 200.441L295.102 200.341C290.836 197.826 286.854 194.856 283.229 191.482C281.56 189.915 279.979 188.278 278.486 186.57C276.724 184.57 275.08 182.469 273.564 180.278L272.336 178.544" stroke="black" stroke-width="5.4" stroke-linejoin="round"/>
<path d="M251.23 225.916L243.145 214.78L234.524 203.418L252.621 192.467L272.352 178.544L278.47 186.57L280.525 189.274L275.535 195.666L236.563 245.689V245.71L229.19 254.875" stroke="black" stroke-width="5.4" stroke-linejoin="round"/>
<path d="M213.433 219.582L234.513 203.434L208.616 177.553L198.803 186.808L229.185 254.891L225.47 286.358L201.328 231.176L204.558 216.177L190.677 221.479L182.619 195.303C191.881 191.729 200.255 186.185 207.162 179.055L208.627 177.538" stroke="black" stroke-width="5.4" stroke-linejoin="round"/>
<path d="M243.145 216.678L233.548 227.445C233.235 227.697 232.873 227.884 232.485 227.992C232.097 228.1 231.691 228.129 231.292 228.076C230.893 228.022 230.509 227.888 230.163 227.682C229.817 227.476 229.516 227.202 229.28 226.876L222.534 212.373" stroke="black" stroke-width="5.4" stroke-linejoin="round"/>
<path d="M237.069 223.498L241.137 239.819" stroke="black" stroke-width="5.4" stroke-linejoin="round"/>
<path d="M226.982 221.938L220.421 235.239" stroke="black" stroke-width="5.4" stroke-linejoin="round"/>
<path d="M272.336 178.545L266.317 160.453C264.679 162.749 262.568 164.666 260.125 166.076" stroke="black" stroke-width="5.4" stroke-linejoin="round"/>
<path d="M212.764 160.453L208.627 177.538" stroke="black" stroke-width="5.4" stroke-linejoin="round"/>
<path d="M241.369 117.027C242.9 117.027 244.141 115.786 244.141 114.255C244.141 112.724 242.9 111.483 241.369 111.483C239.838 111.483 238.597 112.724 238.597 114.255C238.597 115.786 239.838 117.027 241.369 117.027Z" fill="black"/>
<path d="M217.196 117.027C218.727 117.027 219.968 115.786 219.968 114.255C219.968 112.724 218.727 111.483 217.196 111.483C215.665 111.483 214.424 112.724 214.424 114.255C214.424 115.786 215.665 117.027 217.196 117.027Z" fill="black"/>
<path d="M294.591 200.61C294.591 200.61 313.236 207.767 296.488 236.704C291.218 245.779 288.362 251.154 286.902 254.232" stroke="black" stroke-width="5.4" stroke-linejoin="round"/>
<path d="M255.029 317.947C255.029 317.947 247.741 314.685 247.962 312.677C248.183 310.669 262.844 262.717 273.026 256.509C283.208 250.301 289.732 255.655 289.732 255.655C289.732 255.655 299.619 261.01 296.641 274.991C293.663 288.972 275.429 322.368 275.429 322.368L268.278 319.923" stroke="black" stroke-width="5.4" stroke-linejoin="round"/>
<path d="M176.211 197.037C176.211 197.037 165.618 231.819 167.779 283.617" stroke="black" stroke-width="5.4" stroke-linejoin="round"/>
<path d="M167.524 312.724C176.265 312.681 183.316 305.825 183.275 297.411C183.234 288.997 176.115 282.21 167.375 282.253C158.635 282.296 151.583 289.152 151.624 297.566C151.665 305.98 158.784 312.766 167.524 312.724Z" stroke="black" stroke-width="5.4" stroke-linejoin="round"/>
<path d="M330.327 474.445V432.269V431.189" stroke="black" stroke-width="5.4" stroke-linejoin="round"/>
<path d="M131.463 474.292V411.005V410.984" stroke="black" stroke-width="5.4" stroke-linejoin="round"/>
<path d="M55.8545 474.16C55.8545 474.16 87.1267 474.218 131.105 474.276C189.602 474.35 270.512 474.445 330.311 474.445C376.413 474.445 409.946 474.35 410.942 474.16" stroke="black" stroke-width="5.4" stroke-linejoin="round"/>
<path d="M257.343 322.369C259.47 322.369 261.195 320.644 261.195 318.517C261.195 316.389 259.47 314.665 257.343 314.665C255.215 314.665 253.49 316.389 253.49 318.517C253.49 320.644 255.215 322.369 257.343 322.369Z" fill="white"/>
<path d="M266.36 323.116C268.487 323.116 270.212 321.391 270.212 319.264C270.212 317.136 268.487 315.412 266.36 315.412C264.232 315.412 262.507 317.136 262.507 319.264C262.507 321.391 264.232 323.116 266.36 323.116Z" fill="white"/>
<path d="M389.035 145.202C424.142 145.202 452.601 116.742 452.601 81.635C452.601 46.5284 424.142 18.0684 389.035 18.0684C353.927 18.0684 325.468 46.5284 325.468 81.635C325.468 116.742 353.927 145.202 389.035 145.202Z" fill="#3FBDF1"/>
<path d="M388.803 0.350098C374.535 0.350625 360.519 4.10671 348.162 11.2409C335.806 18.3751 325.545 28.6358 318.411 40.9923C311.275 53.3473 307.518 67.3639 307.518 81.6319C307.518 95.8999 311.275 109.917 318.411 122.272C325.545 134.628 335.806 144.889 348.162 152.023C360.519 159.157 374.535 162.913 388.803 162.914C403.071 162.913 417.087 159.157 429.443 152.023C441.799 144.889 452.06 134.628 459.194 122.272C466.327 109.916 470.083 95.8994 470.083 81.6319C470.083 67.3645 466.327 53.3484 459.194 40.9923C452.06 28.6358 441.799 18.3751 429.443 11.2409C417.087 4.10671 403.071 0.350625 388.803 0.350098Z" fill="#3FBDF1"/>
<path d="M407.664 61.0351L405.493 59.5068L427.527 27.8921L429.698 29.4204L407.664 61.0351Z" fill="white"/>
<path d="M368.191 109.34L361.797 118.482L367.571 122.521L373.965 113.378L368.191 109.34Z" fill="white"/>
<path d="M411.395 69.308L381.304 112.327C379.723 114.619 377.04 115.531 375.354 114.356L366.806 108.385C365.125 107.21 365.072 104.401 366.674 102.103L396.766 59.0842C398.347 56.7917 401.029 55.8748 402.716 57.0552L411.264 63.0314C412.945 64.2013 412.997 67.0103 411.395 69.308Z" fill="white"/>
<path d="M374.574 132.47C373.99 133.333 373.152 133.995 372.176 134.362C371.779 134.529 371.347 134.596 370.918 134.557C370.489 134.519 370.076 134.375 369.715 134.14L350.216 120.486C348.846 119.527 348.814 117.208 350.116 115.347C350.701 114.478 351.543 113.813 352.524 113.445C352.922 113.286 353.352 113.225 353.778 113.266C354.204 113.307 354.615 113.45 354.975 113.682L374.474 127.337C375.817 128.291 375.86 130.599 374.574 132.47Z" fill="white"/>
<path d="M415.142 225.653C427.724 225.653 437.924 215.453 437.924 202.871C437.924 190.288 427.724 180.088 415.142 180.088C402.56 180.088 392.36 190.288 392.36 202.871C392.36 215.453 402.56 225.653 415.142 225.653Z" fill="#D7E8F0"/>
<path d="M407.812 204.173C411.86 204.173 415.142 200.892 415.142 196.843C415.142 192.794 411.86 189.512 407.812 189.512C403.763 189.512 400.481 192.794 400.481 196.843C400.481 200.892 403.763 204.173 407.812 204.173Z" fill="white"/>
<path d="M49.831 432.632C62.4132 432.632 72.6133 422.432 72.6133 409.85C72.6133 397.267 62.4132 387.067 49.831 387.067C37.2489 387.067 27.0488 397.267 27.0488 409.85C27.0488 422.432 37.2489 432.632 49.831 432.632Z" fill="#D7E8F0"/>
<path d="M344.624 194.229C350.914 194.229 356.013 189.13 356.013 182.841C356.013 176.551 350.914 171.452 344.624 171.452C338.335 171.452 333.236 176.551 333.236 182.841C333.236 189.13 338.335 194.229 344.624 194.229Z" fill="#D7E8F0"/>
<path d="M44.0869 410.71C48.1353 410.71 51.4175 407.428 51.4175 403.38C51.4175 399.331 48.1353 396.049 44.0869 396.049C40.0385 396.049 36.7563 399.331 36.7563 403.38C36.7563 407.428 40.0385 410.71 44.0869 410.71Z" fill="white"/>
<path d="M426.757 426.161C433.047 426.161 438.146 421.061 438.146 414.772C438.146 408.483 433.047 403.384 426.757 403.384C420.467 403.384 415.369 408.483 415.369 414.772C415.369 421.061 420.467 426.161 426.757 426.161Z" fill="#D7E8F0"/>
<path d="M340.567 184.152C342.808 184.152 344.625 182.336 344.625 180.095C344.625 177.854 342.808 176.037 340.567 176.037C338.325 176.037 336.509 177.854 336.509 180.095C336.509 182.336 338.325 184.152 340.567 184.152Z" fill="white"/>
<path d="M422.019 415.246C423.583 415.246 424.849 413.979 424.849 412.416C424.849 410.853 423.583 409.586 422.019 409.586C420.456 409.586 419.189 410.853 419.189 412.416C419.189 413.979 420.456 415.246 422.019 415.246Z" fill="white"/>
<path d="M158.304 51.085C164.593 51.085 169.692 45.9863 169.692 39.6966C169.692 33.4068 164.593 28.3081 158.304 28.3081C152.014 28.3081 146.915 33.4068 146.915 39.6966C146.915 45.9863 152.014 51.085 158.304 51.085Z" fill="#D7E8F0"/>
<path d="M156.575 42.7413C158.816 42.7413 160.633 40.9247 160.633 38.6834C160.633 36.4421 158.816 34.6255 156.575 34.6255C154.334 34.6255 152.517 36.4421 152.517 38.6834C152.517 40.9247 154.334 42.7413 156.575 42.7413Z" fill="white"/>
<path d="M392.365 356.844C415.661 356.844 434.546 337.959 434.546 314.663C434.546 291.367 415.661 272.482 392.365 272.482C369.069 272.482 350.184 291.367 350.184 314.663C350.184 337.959 369.069 356.844 392.365 356.844Z" fill="white"/>
<path d="M392.365 347.148C410.306 347.148 424.849 332.605 424.849 314.664C424.849 296.723 410.306 282.18 392.365 282.18C374.424 282.18 359.881 296.723 359.881 314.664C359.881 332.605 374.424 347.148 392.365 347.148Z" fill="#3FBDF1"/>
<path d="M391.965 308.087C391.58 306.2 395.443 303.081 396.734 302.401C401.445 299.935 408.681 301.795 411.263 306.506C417.176 317.31 400.549 332.714 391.97 336.513C390.979 335.723 367.491 318.153 372.998 306.907C378.505 295.66 390.605 301.378 391.965 308.087Z" fill="white"/>
</svg>
