<svg width="906" height="596" viewBox="0 0 906 596" fill="none" xmlns="http://www.w3.org/2000/svg">
<path d="M721.56 358.628L719.79 375.528C715.183 386.535 710.58 397.535 705.98 408.528C704.373 412.388 702.76 416.242 701.14 420.088C700.405 421.888 699.363 423.546 698.06 424.988C697.995 425.085 697.91 425.166 697.809 425.225C697.709 425.284 697.596 425.319 697.48 425.328C697.09 425.328 696.95 424.808 696.92 424.418C696.698 420.25 696.201 416.101 695.43 411.998C691.12 392.188 668.12 384.928 650.08 385.378C642.863 385.488 635.751 387.135 629.22 390.208C619.8 394.768 616.13 407.448 615.63 407.918L615.23 409.548L608.77 436.458C607.41 442.458 606.37 445.628 600.83 447.228C600.65 447.288 595.13 450.228 594.95 450.228C592.81 450.828 598.67 449.538 596.35 449.148L589 447.998L585.87 447.278L540.2 436.468C541.97 436.768 543.78 437.098 545.62 437.468L556.22 439.998L553.42 426.558C546.13 384.718 558.21 346.758 578.79 326.148C584.21 320.728 586.9 319.338 593.22 315.728L596.77 324.138C596.77 324.138 633.09 334.968 641.65 301.738C645.11 302.038 651.76 301.988 655.19 302.738C673.069 306.487 689.217 316.017 701.14 329.858C702.19 331.058 703.22 332.298 704.24 333.558L704.78 334.218C705.41 335.008 706.08 335.818 706.71 336.628L707.16 337.268C712.387 344.091 717.196 351.224 721.56 358.628Z" fill="#353642"/>
<path d="M290 183.712C295.76 154.912 320.22 127.012 390.08 120.622C545.36 106.432 461.42 63.622 511.98 16.772C562.54 -30.078 753.71 47.002 703.7 167.382C653.69 287.762 818.78 154.152 888.7 306.632C898.829 328.759 903.706 352.928 902.95 377.252C902.068 402.952 895.45 428.13 883.58 450.942C861.25 494.562 819.77 533.422 759.78 557.502C750.927 561.109 741.66 564.352 731.98 567.232" stroke="#CCDDE2" stroke-width="4.52" stroke-miterlimit="10"/>
<path d="M781.88 420.572C780.67 434.702 771.09 437.002 771.09 437.002C762.99 441.792 750.55 436.642 748.04 427.662C748.003 427.566 747.983 427.465 747.98 427.362C745.98 419.672 742.08 409.792 736.84 398.982C726.74 374.542 713.61 349.902 696.77 330.412C684.846 316.572 668.699 307.042 650.82 303.292C650.76 303.292 650.73 303.232 650.67 303.232C626.96 296.092 615.42 281.512 610.42 267.532C610.42 267.532 610.42 267.532 610.42 267.472C608.28 258.642 606.1 250.032 607.27 244.822C609.27 235.692 610.27 225.822 607.78 223.822C604.65 221.202 598.99 223.142 584.59 226.042C572.12 228.602 565.47 227.152 563.97 219.532C563.733 218.35 563.612 217.147 563.61 215.942C563.55 216.702 560.61 213.682 560.47 214.402C559.53 218.292 557.65 219.852 553.55 221.562C547.46 224.092 544.97 233.862 544.07 240.372C543.13 247.302 546.25 256.862 548.72 263.372C545.56 259.762 541.94 260.182 536.28 262.372C534.86 262.912 531.28 262.762 528.45 261.772C528.85 261.429 529.321 261.179 529.83 261.042C530.74 260.742 524.14 257.462 525.1 257.252C534.71 255.082 540.1 247.072 538.96 240.022C536.13 222.272 539.9 201.392 551.89 187.562C565.11 172.352 586.68 169.192 604.94 176.152C619.28 181.602 632.84 192.782 637.81 207.692C637.81 207.752 637.81 207.812 637.87 207.872C638.502 209.768 638.987 211.711 639.32 213.682C641.15 224.772 637.24 236.012 635.07 246.972C634.29 250.922 636.27 255.232 636.69 258.362C639.1 277.162 660.8 282.472 677.97 290.452C714.06 307.262 743.53 336.002 763.35 370.952C776.51 394.092 781.21 409.872 781.88 420.572Z" fill="#3FBDF1"/>
<path d="M591.62 312C591.23 312.21 590.84 312.42 590.48 312.66C583.999 316.375 578.04 320.935 572.76 326.22C552.19 346.83 540.11 384.79 547.4 426.63L550.2 440" stroke="black" stroke-width="4.52" stroke-miterlimit="10"/>
<path d="M773.62 592.739C773.624 561.504 770.924 530.328 765.55 499.559C761.955 478.682 757.005 458.062 750.73 437.829C746.96 425.539 742.35 412.279 736.87 398.969C731.781 386.513 725.902 374.395 719.27 362.689C712.839 351.226 705.314 340.412 696.8 330.399C684.876 316.559 668.729 307.028 650.85 303.279C647.421 302.552 643.951 302.031 640.46 301.719" stroke="black" stroke-width="4.52" stroke-miterlimit="10"/>
<path d="M404 320.911L403.49 320.821C397.383 319.798 391.117 320.324 385.266 322.35C379.415 324.377 374.166 327.84 370 332.421L335.8 369.681L331.8 374.081C331.551 374.351 331.317 374.635 331.1 374.931" stroke="black" stroke-width="4.52" stroke-miterlimit="10"/>
<path d="M354.61 384.659L373.38 363.839L373.41 363.809" stroke="black" stroke-width="4.52" stroke-miterlimit="10"/>
<path d="M517.89 492.198L606.18 523.308C614.683 526.304 623.731 527.435 632.71 526.622C641.688 525.809 650.387 523.073 658.213 518.598C666.04 514.124 672.811 508.016 678.066 500.691C683.322 493.366 686.938 484.996 688.67 476.148L709.56 369.508C710.629 364.032 710.579 358.397 709.414 352.94C708.249 347.484 705.992 342.32 702.78 337.758C701.883 336.473 700.908 335.244 699.86 334.078" stroke="black" stroke-width="4.52" stroke-miterlimit="10"/>
<path d="M459.46 487.9C448.22 495.49 439.96 518.54 435.57 533.67C434.818 536.207 433.263 538.433 431.139 540.012C429.015 541.591 426.437 542.44 423.79 542.43C421.998 542.43 420.227 542.041 418.6 541.29C416.103 540.119 414.074 538.141 412.841 535.676C411.607 533.21 411.24 530.4 411.8 527.7C419.15 491.76 445.09 420.81 534.2 436.45C535.98 436.75 537.79 437.08 539.62 437.45L550.2 440L579.87 447.23L587.87 449.16C590.905 449.896 594.085 449.782 597.06 448.83C597.244 448.794 597.424 448.744 597.6 448.68C600.34 447.74 602.799 446.124 604.748 443.98C606.697 441.837 608.074 439.237 608.75 436.42L615.5 408.34L615.89 406.71L624.73 370" stroke="black" stroke-width="4.52" stroke-miterlimit="10"/>
<path d="M416 372.828H385.76C382.312 372.828 379.006 371.458 376.568 369.021C374.13 366.583 372.76 363.276 372.76 359.828C372.76 356.38 374.13 353.074 376.568 350.636C379.006 348.198 382.312 346.828 385.76 346.828H428.6" stroke="black" stroke-width="4.52" stroke-miterlimit="10"/>
<path d="M392.79 372.82C392.36 378.12 390.34 382.04 387.36 384.75C379.68 391.75 365.61 390.95 355.82 386.16" stroke="black" stroke-width="4.52" stroke-miterlimit="10"/>
<path d="M335.84 369.668C327.17 359.188 328.94 344.978 335.67 333.998C354.76 302.838 398.38 308.818 426.67 321.768C449.59 332.228 469.67 347.948 489.22 363.628C498.77 371.288 508.15 379.268 517.22 387.628C518.885 389.135 520.87 390.245 523.026 390.873C525.182 391.502 527.452 391.633 529.666 391.258C531.88 390.883 533.98 390.01 535.808 388.706C537.636 387.402 539.145 385.7 540.22 383.728C545.22 374.498 550.63 364.428 551.65 361.638" stroke="black" stroke-width="4.52" stroke-miterlimit="10"/>
<path d="M387.37 384.75C387.37 384.75 432.48 409.22 465.99 444.38" stroke="black" stroke-width="4.52" stroke-miterlimit="10"/>
<path d="M448.45 501.171C443.45 509.711 447.75 522.251 457.2 525.251C469.269 529.145 482.029 530.424 494.63 529.001C508.38 527.401 517.52 516.051 523.54 503.051C523.976 502.084 524.203 501.035 524.207 499.975C524.211 498.914 523.992 497.864 523.564 496.894C523.136 495.923 522.508 495.053 521.722 494.341C520.935 493.629 520.008 493.091 519 492.761C517.181 492.162 515.203 492.271 513.46 493.066C511.718 493.861 510.339 495.284 509.6 497.051C507.6 501.671 504.51 507.451 500.41 510.051" stroke="black" stroke-width="4.52" stroke-miterlimit="10"/>
<path d="M472 499.57C472 499.57 459.65 512.85 469.39 526.91C469.818 527.501 470.322 528.032 470.89 528.49" stroke="black" stroke-width="4.52" stroke-miterlimit="10"/>
<path d="M488.29 501.762C488.29 501.762 476.87 527.462 491.52 529.342" stroke="black" stroke-width="4.52" stroke-miterlimit="10"/>
<path d="M893.74 592.762H186.5" stroke="black" stroke-width="4.52" stroke-miterlimit="10"/>
<path d="M464.73 544.329H394.2C393.484 550.987 390.33 557.145 385.345 561.617C380.36 566.089 373.897 568.558 367.2 568.549H130.14C130.153 574.961 132.706 581.106 137.24 585.639C141.773 590.173 147.918 592.726 154.33 592.739H464.73C471.152 592.736 477.312 590.19 481.86 585.656C486.409 581.122 488.976 574.971 489 568.549V552.289C489 550.167 488.157 548.132 486.657 546.632C485.157 545.132 483.122 544.289 481 544.289L464.73 544.329Z" stroke="black" stroke-width="4.52" stroke-miterlimit="10"/>
<path d="M355.82 386.16C357.898 389.035 359.393 392.29 360.22 395.74L393.63 535.08C394.368 538.105 394.561 541.237 394.2 544.33C393.484 550.988 390.33 557.146 385.345 561.618C380.36 566.089 373.897 568.559 367.2 568.55H125.74C119.642 568.549 113.721 566.494 108.934 562.717C104.146 558.94 100.77 553.66 99.35 547.73L66 408.4C65.041 404.41 65 400.256 65.879 396.248C66.758 392.24 68.534 388.484 71.075 385.262C73.615 382.04 76.853 379.436 80.545 377.647C84.237 375.857 88.287 374.928 92.39 374.93H333.83C337.796 374.922 341.716 375.79 345.308 377.472C348.9 379.154 352.076 381.608 354.61 384.66L355.82 386.16Z" stroke="black" stroke-width="4.52" stroke-miterlimit="10"/>
<path d="M318 212.752C316.46 210.942 314.84 209.202 313.15 207.512C303.667 197.996 292.397 190.447 279.988 185.298C267.579 180.15 254.275 177.504 240.84 177.512H114.26C100.829 177.506 87.528 180.148 75.118 185.286C62.708 190.424 51.4329 197.957 41.936 207.455C32.4391 216.953 24.9072 228.229 19.7706 240.639C14.634 253.05 11.9935 266.35 12.0001 279.782V280.512C11.9872 290.041 14.4143 299.416 19.0501 307.742C24.2596 313.047 30.4778 317.257 37.3387 320.123C44.1996 322.99 51.5645 324.454 59 324.432H183.1C186.887 324.432 190.519 325.936 193.197 328.614C195.875 331.292 197.38 334.924 197.38 338.712C197.385 342.504 198.895 346.138 201.578 348.818C204.261 351.497 207.898 353.002 211.69 353.002H212L242.64 352.222C242.64 351.922 242.58 351.652 242.58 351.382C239.931 350.471 237.633 348.755 236.007 346.475C234.381 344.194 233.508 341.463 233.51 338.662V338.002C233.513 334.215 235.018 330.585 237.695 327.907C240.373 325.23 244.004 323.724 247.79 323.722H278C292.852 323.722 307.096 317.822 317.598 307.32C328.1 296.818 334 282.574 334 267.722C334.052 248.243 328.498 229.16 318 212.752ZM98.8001 272.002C93.9571 272.004 89.2221 270.569 85.1951 267.88C81.1671 265.19 78.0281 261.366 76.1741 256.892C74.3211 252.418 73.836 247.495 74.781 242.745C75.726 237.995 78.058 233.632 81.484 230.208C84.909 226.784 89.273 224.454 94.023 223.51C98.773 222.567 103.696 223.054 108.17 224.91C112.643 226.766 116.465 229.906 119.153 233.935C121.841 237.963 123.274 242.699 123.27 247.542C123.262 254.028 120.681 260.247 116.094 264.832C111.506 269.418 105.286 271.996 98.8001 272.002ZM178.67 272.002C173.828 272 169.095 270.562 165.07 267.87C161.045 265.178 157.909 261.353 156.059 256.878C154.208 252.404 153.726 247.481 154.673 242.732C155.62 237.984 157.955 233.623 161.381 230.201C164.807 226.779 169.17 224.45 173.92 223.509C178.67 222.567 183.592 223.056 188.064 224.912C192.536 226.768 196.358 229.909 199.045 233.937C201.732 237.965 203.164 242.7 203.16 247.542C203.16 250.756 202.526 253.939 201.295 256.909C200.064 259.879 198.26 262.576 195.985 264.848C193.711 267.12 191.011 268.921 188.04 270.148C185.069 271.376 181.885 272.006 178.67 272.002ZM254.74 272.002C249.898 271.998 245.167 270.558 241.143 267.865C237.119 265.172 233.985 261.346 232.136 256.871C230.287 252.397 229.806 247.474 230.754 242.726C231.703 237.978 234.038 233.618 237.464 230.198C240.891 226.777 245.254 224.449 250.004 223.508C254.753 222.568 259.675 223.056 264.147 224.913C268.618 226.769 272.439 229.91 275.125 233.938C277.812 237.966 279.244 242.7 279.24 247.542C279.24 250.757 278.606 253.941 277.374 256.911C276.143 259.882 274.337 262.58 272.062 264.852C269.786 267.124 267.085 268.924 264.113 270.151C261.14 271.378 257.955 272.007 254.74 272.002Z" fill="#D7E8F0"/>
<path d="M334 267.732C334 282.584 328.1 296.828 317.598 307.33C307.096 317.832 292.852 323.732 278 323.732H247.81C244.025 323.734 240.396 325.238 237.719 327.914C235.042 330.589 233.535 334.217 233.53 338.002V338.662C233.528 341.463 234.401 344.194 236.027 346.475C237.653 348.755 239.951 350.471 242.6 351.382C243.995 351.867 245.463 352.11 246.94 352.102L242.66 352.222L212 353.002H211.67C207.88 353.002 204.245 351.498 201.562 348.821C198.879 346.144 197.368 342.512 197.36 338.722C197.36 334.934 195.856 331.302 193.177 328.624C190.499 325.946 186.867 324.442 183.08 324.442H59C44.1479 324.442 29.9041 318.542 19.402 308.04C8.9 297.538 3 283.294 3 268.442V267.712C3.0013 254.289 5.6464 240.999 10.7841 228.598C15.9218 216.198 23.4517 204.931 32.9437 195.441C42.4357 185.951 53.704 178.423 66.105 173.288C78.506 168.153 91.798 165.51 105.22 165.512H231.76C258.871 165.514 284.872 176.284 304.045 195.453C323.217 214.622 333.992 240.62 334 267.732Z" stroke="black" stroke-width="4.52" stroke-miterlimit="10"/>
<path d="M650.82 303.248C650.76 303.248 650.73 303.188 650.67 303.188C626.96 296.048 615.42 281.468 610.42 267.488C610.42 267.488 610.42 267.488 610.42 267.428C606.51 256.528 606.6 245.978 608.01 239.678C608.854 236.341 609.39 232.934 609.61 229.498C609.94 219.768 602.8 222.148 582.38 226.218C573 228.118 567 224.558 564 219.498C563.708 219.057 563.454 218.592 563.24 218.108C561.84 215.163 561.26 211.895 561.56 208.648" stroke="black" stroke-width="4.52" stroke-miterlimit="10"/>
<path d="M549.81 264.69C549.45 264.18 549.08 263.69 548.72 263.3C545.56 259.69 541.94 260.11 536.28 262.3C534.86 262.84 531.28 262.69 528.45 261.7C526.07 260.85 524.29 259.38 525.1 257.18C525.308 256.727 525.618 256.329 526.004 256.015C526.391 255.701 526.844 255.48 527.33 255.37C528.273 255.132 529.228 254.941 530.19 254.8C539.9 252.63 537.73 241.39 536.55 234.34C533.69 216.6 537.49 195.72 549.6 181.89C562.94 166.68 584.76 163.51 603.19 170.47C619.4 176.59 634.65 189.87 637.81 207.62C637.81 207.68 637.81 207.74 637.87 207.8C637.93 207.86 637.87 207.95 637.87 208.01C639.74 219.1 637.87 231.12 635.7 242.09C634.4 248.59 634.89 253.9 636.7 258.29C642.37 272.66 661.5 277.67 676.92 284.78C713.41 301.59 743.14 330.33 763.18 365.28C779 393 782.75 410.05 781.88 420.57C780.67 434.7 771.09 437 771.09 437C762.99 441.79 750.54 436.64 748.04 427.66C748.003 427.564 747.983 427.462 747.98 427.36C745.98 419.67 742.08 409.79 736.84 398.98" stroke="black" stroke-width="4.52" stroke-miterlimit="10"/>
<path d="M561.52 208.648C561.52 213.998 559 219.278 553.52 221.528C547.36 224.068 544.86 230.758 543.96 237.268C542.702 246.801 544.753 256.476 549.77 264.678C554.42 272.398 561.99 280.908 572.71 280.908C592.35 280.908 600.77 271.438 600.77 271.438" stroke="black" stroke-width="4.52" stroke-miterlimit="10"/>
<path d="M581.91 240.34C583.755 240.34 585.25 238.845 585.25 237C585.25 235.156 583.755 233.66 581.91 233.66C580.065 233.66 578.57 235.156 578.57 237C578.57 238.845 580.065 240.34 581.91 240.34Z" fill="black"/>
<path d="M552.53 242.289C554.375 242.289 555.87 240.794 555.87 238.949C555.87 237.105 554.375 235.609 552.53 235.609C550.685 235.609 549.19 237.105 549.19 238.949C549.19 240.794 550.685 242.289 552.53 242.289Z" fill="black"/>
<path d="M566.94 233.859C566.94 233.859 565.27 247.049 565.94 248.859C566.61 250.669 570.79 248.599 570.79 248.599" stroke="black" stroke-width="4.52" stroke-miterlimit="10"/>
<path d="M573.13 260.138C580.28 262.768 587.66 259.418 589.82 252.988" stroke="black" stroke-width="4.52" stroke-miterlimit="10"/>
<path d="M599.197 241.826C604.047 234.96 602.278 225.368 595.246 220.399C588.214 215.431 578.581 216.969 573.731 223.835C568.881 230.7 570.65 240.293 577.682 245.261C584.714 250.229 594.347 248.691 599.197 241.826Z" stroke="black" stroke-width="4.52" stroke-miterlimit="10"/>
<path d="M560.14 243.791C564.99 236.925 563.221 227.332 556.189 222.364C549.157 217.396 539.524 218.934 534.674 225.8C529.824 232.665 531.593 242.258 538.625 247.226C545.657 252.194 555.29 250.656 560.14 243.791Z" stroke="black" stroke-width="4.52" stroke-miterlimit="10"/>
<path d="M547.13 224.192C549.908 224.184 552.585 225.227 554.626 227.111C556.666 228.996 557.918 231.582 558.13 234.352C558.241 235.728 558.074 237.112 557.638 238.421C557.201 239.73 556.505 240.938 555.59 241.972C554.665 243.02 553.539 243.87 552.277 244.471C551.016 245.073 549.646 245.413 548.25 245.472H547.69C544.911 245.48 542.232 244.436 540.191 242.549C538.151 240.662 536.9 238.073 536.69 235.302C536.581 233.926 536.751 232.541 537.189 231.232C537.627 229.923 538.325 228.715 539.24 227.682C540.165 226.637 541.29 225.789 542.55 225.187C543.809 224.586 545.176 224.244 546.57 224.182H547.13V224.192ZM547.13 221.922H546.46C544.774 221.997 543.121 222.411 541.598 223.137C540.075 223.864 538.714 224.889 537.594 226.152C536.475 227.415 535.621 228.89 535.083 230.489C534.544 232.088 534.332 233.779 534.46 235.462C534.731 238.796 536.244 241.906 538.7 244.177C541.156 246.448 544.375 247.713 547.72 247.722H548.39C550.076 247.646 551.729 247.233 553.252 246.506C554.775 245.78 556.136 244.754 557.256 243.492C558.375 242.229 559.229 240.754 559.767 239.155C560.306 237.556 560.518 235.864 560.39 234.182C560.119 230.848 558.606 227.738 556.15 225.467C553.694 223.196 550.475 221.931 547.13 221.922Z" fill="white"/>
<path d="M571.04 233.648L562.84 234.068" stroke="black" stroke-width="4.52" stroke-miterlimit="10"/>
<path opacity="0.53" d="M597.245 240.447C601.353 234.633 599.856 226.509 593.902 222.303C587.947 218.097 579.791 219.4 575.683 225.214C571.575 231.029 573.072 239.152 579.026 243.359C584.981 247.565 593.137 246.262 597.245 240.447Z" fill="white"/>
<path opacity="0.53" d="M558.188 242.412C562.296 236.598 560.799 228.474 554.845 224.268C548.891 220.061 540.734 221.365 536.626 227.179C532.518 232.994 534.015 241.117 539.97 245.323C545.924 249.53 554.08 248.226 558.188 242.412Z" fill="white"/>
<path d="M578.56 280.91L596.77 324.17C596.77 324.17 631.9 333.62 640.44 300.38" stroke="black" stroke-width="4.52" stroke-miterlimit="10"/>
<path d="M233.05 505.117C246.803 500.78 254.002 484.737 249.129 469.283C244.256 453.829 229.157 444.816 215.405 449.152C201.652 453.489 194.453 469.532 199.326 484.986C204.198 500.44 219.297 509.453 233.05 505.117Z" fill="#D7E8F0"/>
<path d="M573.7 592.739C573.31 557.529 567.1 522.739 564.24 508.539" stroke="black" stroke-width="4.52" stroke-miterlimit="10"/>
</svg>
