<svg width="298" height="298" viewBox="0 0 298 298" fill="none" xmlns="http://www.w3.org/2000/svg">
<path d="M193.015 283.875C196.221 283.875 199.339 283.732 202.369 283.446C222.824 281.56 238.996 273.496 249.751 262.237C255.44 256.37 259.742 249.302 262.341 241.553C264.789 234.218 265.503 226.414 264.427 218.756C256.995 165.969 194.576 191.638 220.743 159.532C246.911 127.425 195.685 86.5903 176.029 96.2545C156.373 105.919 178.049 126.588 129.475 116.816C80.901 107.045 90.9526 149.978 90.9526 149.978" stroke="#CCDDE2" stroke-width="4.82" stroke-miterlimit="10"/>
<path d="M62.2374 238.317C62.2374 238.317 39.9917 222.365 31.4033 240.006C31.4033 240.006 40.4357 207.995 71.2429 196.546C71.2429 196.546 80.0488 191.647 80.4362 194.606C80.8236 197.565 83.3775 199.076 84.495 199.04C85.6125 199.005 95.0472 199.595 95.375 198.185C95.7028 196.776 95.077 192.553 99.7556 192.523C104.434 192.493 129.821 198.73 137.08 205.322C137.08 205.322 124.445 220.577 131.201 237.396L125.509 236.016C125.509 236.016 129.019 266.412 124.233 284.092H41.5681C41.5681 284.092 49.8316 285.133 58.3068 279.086L70.6142 263.292C70.6142 263.292 76.0109 255.115 87.0369 253.947C87.0369 253.947 93.3128 253.261 93.2532 250.278C93.1936 247.295 95.515 252.189 98.6172 247.877C98.9957 247.877 106.535 248.312 106.535 248.312C106.535 248.312 112.197 248.842 113.261 243.788C114.325 238.734 118.246 203.26 116.837 201.129C115.427 198.999 114.888 198.972 102.992 199.043C91.0957 199.115 80.6419 196.743 79.128 202.661C77.6142 208.579 75.8649 231.004 75.8649 231.004C75.8649 231.004 69.1599 232.759 64.0522 240.021C64.0701 240.018 62.2374 243.559 62.2374 238.317Z" fill="#2E2E2E"/>
<path d="M62.2373 227.544V241.508" stroke="black" stroke-width="4.82" stroke-miterlimit="10"/>
<path d="M125.127 234.526C138.254 241.5 174.532 255.747 175.82 200.948C175.82 200.948 174.258 186.557 178.329 184.68C182.4 182.803 188.965 176.857 180.51 162.464L186.026 156.96C186.772 156.193 187.182 155.161 187.166 154.092C187.151 153.022 186.711 152.003 185.944 151.258C185.177 150.512 184.146 150.102 183.076 150.118C182.007 150.133 180.987 150.573 180.242 151.34L169.279 162.962C169.279 162.962 167.69 159.982 164.874 161.534C162.058 163.087 151.729 169.676 156.42 183.434L144.22 218.479" stroke="black" stroke-width="4.82" stroke-miterlimit="10"/>
<path d="M169.264 162.955C169.264 162.955 172.187 167.404 165.965 171.951" stroke="black" stroke-width="4.82" stroke-miterlimit="10"/>
<path d="M182.311 165.92C182.311 165.92 184.131 171.639 176.786 175.328C174.187 176.634 171.335 173.886 172.563 171.249C172.584 171.21 172.602 171.168 172.623 171.126" stroke="black" stroke-width="4.82" stroke-miterlimit="10"/>
<path d="M184.534 172.983C184.534 172.983 182.927 178.567 178.532 178.836C174.643 179.071 175.296 175.105 175.296 175.105" stroke="black" stroke-width="4.82" stroke-miterlimit="10"/>
<path d="M109.336 169.485C109.038 169.563 108.85 169.315 108.573 169.363C104.589 168.636 101.627 165.489 101.293 163.975C101.406 164.8 102.92 164.717 102.664 165.56C102.616 165.721 102.521 165.659 102.443 165.814C102.318 166.112 102.321 165.703 102.145 165.972C101.168 164.526 100.602 163.808 100.429 163.012C100.546 163.867 100.477 164.736 100.226 165.56C100.18 165.722 100.119 165.878 100.044 166.028C99.4483 167.435 98.2056 168.624 96.1285 168.919C95.6079 168.985 95.082 169.002 94.5581 168.969C93.0681 168.883 91.7807 168.797 90.6841 168.749C87.0187 168.585 85.7045 168.862 86.1157 171.228C86.3425 172.298 86.6638 173.347 87.0753 174.36C87.8024 176.273 88.309 179.587 87.564 183.196V183.217C86.6998 187.419 83.9642 190.667 78.1025 193.718C77.064 194.254 75.9933 194.725 74.896 195.128C64.7253 198.901 40.3966 208.457 30.3123 243.502C29.2395 247.236 28.4379 250.633 27.8717 253.736L27.5946 253.575C20.7078 249.447 16.2169 240.188 17.5818 232.223C18.2612 228.269 20.8359 225.509 24.1378 223.432C26.4562 221.996 28.9356 220.819 31.0126 219.045C37.8964 213.166 32.3923 204.023 36.2037 196.993C40.5009 189.084 47.2297 184.209 56.0148 183.807C58.2259 183.902 60.7142 184.162 63.128 184.045C66.6325 184.17 70.2145 183.884 72.7802 181.587C74.8007 179.799 75.2209 176.884 75.9867 174.453C76.8491 171.71 77.5682 168.925 78.1413 166.109C78.6654 163.438 79.6432 160.877 81.0319 158.537C82.5311 156 84.6454 153.883 87.1796 152.38C89.3902 151.132 91.8549 150.401 94.3882 150.243C96.6953 150.379 98.9396 151.048 100.944 152.198C101.629 152.603 102.276 153.067 102.878 153.587C107.315 157.371 109.44 163.778 109.336 169.485Z" fill="#3FBDF1"/>
<path d="M176.661 178.502C176.661 178.502 175.239 180.266 176.017 181.941C176.795 183.616 178.726 184.006 180.603 183.273" stroke="black" stroke-width="4.82" stroke-miterlimit="10"/>
<path d="M180.504 162.463L176.577 166.388" stroke="black" stroke-width="4.82" stroke-miterlimit="10"/>
<path d="M75.8799 230.619L79.0774 203.054C79.2067 201.939 79.7417 200.91 80.5799 200.163C81.4185 199.417 82.502 199.004 83.6249 199.004H112.99C113.632 199.004 114.268 199.139 114.855 199.4C115.441 199.662 115.967 200.044 116.396 200.522C116.826 201 117.15 201.563 117.347 202.174C117.545 202.785 117.612 203.431 117.543 204.07L113.264 243.791C113.143 244.914 112.611 245.953 111.77 246.707C110.93 247.462 109.84 247.879 108.711 247.879H98.2031" stroke="black" stroke-width="4.82" stroke-miterlimit="10"/>
<path d="M110.588 206.025C111.249 206.025 111.786 205.489 111.786 204.827C111.786 204.166 111.249 203.629 110.588 203.629C109.926 203.629 109.39 204.166 109.39 204.827C109.39 205.489 109.926 206.025 110.588 206.025Z" fill="black"/>
<path d="M90.8125 237.015C93.9117 237.712 94.5316 237.724 97.5384 238.171C99.4337 238.454 103.767 238.689 103.844 235.748C103.916 233.165 101.016 231.648 98.9688 230.822C96.6059 229.923 94.1334 229.345 91.6171 229.103C90.5801 228.984 89.538 228.902 88.4911 228.858C81.2348 228.56 72.864 230.316 67.8665 235.993C56.2892 249.128 40.8945 257.574 40.8945 257.574" stroke="black" stroke-width="4.82" stroke-miterlimit="10"/>
<path d="M99.1118 238.316C100.602 238.948 103.126 240.295 102.092 242.875C101.621 244.067 100.766 244.49 99.5916 244.663C97.0556 245.03 94.3349 244.49 91.8436 243.969C90.9228 243.775 89.2898 243.421 88.3809 243.17" stroke="black" stroke-width="4.82" stroke-miterlimit="10"/>
<path d="M96.4626 244.723C96.4626 244.723 99.1714 244.69 98.5188 247.208C97.443 251.38 89.0841 249.491 85.1743 248.615" stroke="black" stroke-width="4.82" stroke-miterlimit="10"/>
<path d="M96.6294 192.749C109.366 193.306 128.775 197.04 146.375 212.265" stroke="black" stroke-width="4.82" stroke-miterlimit="10"/>
<path d="M193.014 283.877L41.5679 284.104" stroke="black" stroke-width="4.82" stroke-miterlimit="10"/>
<path d="M125.127 228.828C125.127 228.828 128.107 256.562 125.127 283.877" stroke="black" stroke-width="4.82" stroke-miterlimit="10"/>
<path opacity="0.54" d="M256.64 216.16L282.832 149.048C283.156 147.749 283.181 146.394 282.903 145.084C282.626 143.775 282.054 142.546 281.23 141.491C280.406 140.436 279.353 139.582 278.15 138.995C276.947 138.408 275.627 138.102 274.288 138.102H170.241C167.905 138.102 165.637 138.888 163.802 140.334C161.967 141.78 160.673 143.802 160.127 146.074L131.448 213.171C131.136 214.466 131.123 215.815 131.408 217.116C131.693 218.417 132.27 219.636 133.094 220.683C133.918 221.729 134.969 222.574 136.167 223.156C137.366 223.737 138.68 224.039 140.012 224.039H246.547C248.867 224.039 251.121 223.264 252.95 221.836C254.779 220.409 256.078 218.411 256.64 216.16Z" fill="white"/>
<path d="M256.64 216.16L282.832 149.048C283.156 147.749 283.181 146.394 282.903 145.084C282.626 143.775 282.054 142.546 281.23 141.491C280.406 140.436 279.353 139.582 278.15 138.995C276.947 138.408 275.627 138.102 274.288 138.102H170.241C167.905 138.102 165.637 138.888 163.802 140.334C161.967 141.78 160.673 143.802 160.127 146.074L131.448 213.171C131.136 214.466 131.123 215.815 131.408 217.116C131.693 218.417 132.27 219.636 133.094 220.683C133.918 221.729 134.969 222.574 136.167 223.156C137.366 223.737 138.68 224.039 140.012 224.039H246.547C248.867 224.039 251.121 223.264 252.95 221.836C254.779 220.409 256.078 218.411 256.64 216.16Z" fill="#3FBDF1"/>
<path d="M256.64 216.16L282.832 149.048C283.156 147.749 283.181 146.394 282.903 145.084C282.626 143.775 282.054 142.546 281.23 141.491C280.406 140.436 279.353 139.582 278.15 138.995C276.947 138.408 275.627 138.102 274.288 138.102H170.241C167.905 138.102 165.637 138.888 163.802 140.334C161.967 141.78 160.673 143.802 160.127 146.074L131.448 213.171C131.136 214.466 131.123 215.815 131.408 217.116C131.693 218.417 132.27 219.636 133.094 220.683C133.918 221.729 134.969 222.574 136.167 223.156C137.366 223.737 138.68 224.039 140.012 224.039H246.547C248.867 224.039 251.121 223.264 252.95 221.836C254.779 220.409 256.078 218.411 256.64 216.16Z" stroke="black" stroke-width="4.82" stroke-linecap="square" stroke-linejoin="round"/>
<path d="M252.808 213.443L276.973 151.527C277.272 150.33 277.294 149.08 277.039 147.872C276.783 146.664 276.255 145.531 275.495 144.558C274.736 143.585 273.765 142.797 272.656 142.255C271.546 141.714 270.328 141.432 269.094 141.431H173.099C170.944 141.431 168.851 142.156 167.158 143.49C165.466 144.824 164.271 146.69 163.769 148.786L137.309 210.686C137.022 211.881 137.01 213.125 137.273 214.326C137.536 215.526 138.068 216.651 138.829 217.615C139.59 218.58 140.56 219.361 141.665 219.897C142.771 220.433 143.984 220.711 145.212 220.711H243.499C245.638 220.71 247.717 219.994 249.403 218.678C251.09 217.361 252.288 215.518 252.808 213.443Z" fill="#3FBDF1"/>
<path d="M180.025 152.814C181.297 150.904 183.38 150.055 184.677 150.916C185.973 151.777 185.991 154.027 184.718 155.937C184.521 156.231 184.298 156.506 184.051 156.76L193.483 176.672C194.973 175.668 196.641 175.421 197.827 176.21C198.593 176.72 199.019 177.587 199.154 178.594L205.596 176.419L211.231 174.535C211.827 174.33 212.456 174.133 213.07 173.939C213.302 173.248 213.623 172.589 214.027 171.982C215.815 169.3 218.738 168.108 220.556 169.3C222.374 170.492 222.398 173.612 220.66 176.279L231.388 190.949C233.727 189.03 236.484 188.437 238.394 189.707C240.993 191.435 241.031 195.947 238.481 199.782C238.379 199.934 238.263 200.059 238.156 200.205L245.308 209.977C245.329 210.006 245.355 210.042 245.373 210.072C245.554 210.345 245.679 210.65 245.742 210.972C245.805 211.293 245.803 211.623 245.738 211.944C245.673 212.265 245.546 212.569 245.363 212.841C245.18 213.112 244.946 213.345 244.673 213.526C244.4 213.706 244.095 213.832 243.773 213.894C243.452 213.957 243.122 213.956 242.801 213.891C242.48 213.826 242.175 213.698 241.904 213.515C241.633 213.333 241.4 213.098 241.219 212.825L234.869 203.245C232.86 204.41 230.727 204.633 229.162 203.59C226.677 201.94 226.558 197.756 228.772 194.054L218.488 178.538C216.971 179.569 215.296 179.831 214.095 179.035C213.424 178.562 212.967 177.844 212.823 177.036C212.566 177.104 212.313 177.179 212.057 177.25L206.326 178.815L198.993 180.79C198.768 181.67 198.397 182.505 197.896 183.261C196.108 185.943 193.188 187.135 191.367 185.928C189.546 184.721 189.519 181.559 191.304 178.874C191.57 178.485 191.87 178.119 192.198 177.781L183.219 157.478C182.138 158.214 180.943 158.405 180.087 157.836C178.773 156.977 178.752 154.727 180.025 152.814Z" fill="white"/>
<path d="M248.326 153.914H262.24C262.876 153.914 263.499 153.728 264.032 153.38C264.565 153.031 264.985 152.536 265.241 151.953C265.322 151.774 265.366 151.58 265.369 151.384C265.366 151.004 265.213 150.64 264.943 150.372C264.674 150.105 264.309 149.954 263.929 149.953H249.128C249.834 151.13 249.482 152.757 248.326 153.914Z" fill="#D7E8F0"/>
<path d="M239.33 152.486C239.33 152.865 239.482 153.228 239.75 153.496C240.018 153.763 240.381 153.914 240.76 153.914H248.326C249.482 152.757 249.834 151.13 249.14 149.953H242.459C241.823 149.953 241.2 150.138 240.668 150.484C240.135 150.832 239.714 151.326 239.458 151.908C239.377 152.09 239.333 152.287 239.33 152.486Z" fill="#3FBDF1"/>
<path d="M242.81 153.914C242.85 153.99 242.896 154.063 242.948 154.131C243.94 155.487 246.091 155.621 247.766 154.393C247.964 154.247 248.151 154.087 248.326 153.914C249.483 152.757 249.834 151.13 249.14 149.953C249.101 149.878 249.055 149.806 249.003 149.739C248.019 148.374 245.868 148.249 244.193 149.467C243.992 149.616 243.802 149.778 243.624 149.953C242.477 151.112 242.125 152.73 242.81 153.914Z" fill="white"/>
<path d="M235.831 161.218C235.834 161.598 235.987 161.961 236.257 162.228C236.526 162.496 236.891 162.646 237.27 162.646H251.872C251.166 161.454 251.518 159.845 252.677 158.688H238.969C238.332 158.688 237.71 158.874 237.177 159.222C236.644 159.571 236.224 160.066 235.968 160.649C235.885 160.828 235.838 161.022 235.831 161.218Z" fill="#3FBDF1"/>
<path d="M251.87 162.646H258.724C259.359 162.647 259.981 162.462 260.514 162.116C261.047 161.769 261.467 161.275 261.724 160.694C261.807 160.512 261.851 160.315 261.853 160.116C261.853 159.928 261.816 159.742 261.745 159.569C261.673 159.396 261.568 159.238 261.435 159.106C261.303 158.973 261.145 158.868 260.972 158.796C260.799 158.725 260.613 158.688 260.425 158.688H252.674C251.512 159.845 251.163 161.463 251.87 162.646Z" fill="#D7E8F0"/>
<path d="M251.87 162.645C251.9 162.723 251.943 162.797 251.995 162.863C252.981 164.228 255.133 164.353 256.804 163.134C257.007 162.987 257.198 162.824 257.374 162.645C258.521 161.489 258.864 159.871 258.187 158.688C258.149 158.611 258.104 158.539 258.053 158.47C257.058 157.115 254.906 156.98 253.234 158.208C253.035 158.353 252.848 158.513 252.674 158.688C251.512 159.844 251.163 161.462 251.87 162.645Z" fill="white"/>
<path d="M247.006 171.318H255.747C256.383 171.318 257.005 171.133 257.538 170.786C258.07 170.439 258.491 169.945 258.748 169.363C258.83 169.184 258.874 168.99 258.876 168.794C258.874 168.413 258.722 168.048 258.452 167.779C258.183 167.51 257.817 167.358 257.436 167.357H247.82C248.505 168.54 248.154 170.159 247.006 171.318Z" fill="#3FBDF1"/>
<path d="M232.839 169.896C232.841 170.274 232.992 170.636 233.26 170.903C233.529 171.169 233.892 171.318 234.27 171.318H247.006C248.154 170.159 248.496 168.54 247.82 167.357H235.968C235.332 167.357 234.709 167.543 234.176 167.891C233.643 168.24 233.223 168.735 232.967 169.318C232.886 169.5 232.842 169.697 232.839 169.896Z" fill="#D7E8F0"/>
<path d="M241.49 171.317C241.53 171.392 241.575 171.464 241.627 171.532C242.611 172.896 244.762 173.022 246.437 171.803C246.638 171.654 246.828 171.492 247.006 171.317C248.154 170.158 248.496 168.54 247.82 167.357C247.78 167.28 247.735 167.207 247.683 167.139C246.69 165.783 244.539 165.667 242.864 166.877C242.666 167.023 242.479 167.183 242.304 167.357C241.148 168.513 240.784 170.14 241.49 171.317Z" fill="white"/>
<path d="M190.5 212.217H199.24C199.876 212.218 200.498 212.033 201.031 211.686C201.564 211.338 201.984 210.844 202.241 210.262C202.341 210.045 202.383 209.805 202.366 209.567C202.348 209.328 202.27 209.098 202.139 208.897C202.008 208.697 201.828 208.533 201.617 208.421C201.405 208.309 201.169 208.252 200.93 208.257H191.316C191.998 209.44 191.647 211.058 190.5 212.217Z" fill="#3FBDF1"/>
<path d="M155.8 210.797C155.801 210.984 155.838 211.169 155.91 211.342C155.982 211.514 156.087 211.671 156.22 211.803C156.352 211.935 156.509 212.04 156.682 212.111C156.855 212.182 157.041 212.219 157.228 212.218H190.499C191.647 211.059 191.989 209.441 191.313 208.258H158.929C158.293 208.258 157.67 208.443 157.137 208.792C156.604 209.14 156.184 209.635 155.928 210.219C155.846 210.4 155.803 210.597 155.8 210.797Z" fill="#D7E8F0"/>
<path d="M184.983 212.217C185.023 212.293 185.069 212.365 185.121 212.432C186.104 213.8 188.256 213.922 189.93 212.703C190.131 212.555 190.321 212.392 190.499 212.217C191.647 211.058 191.989 209.44 191.313 208.257C191.274 208.18 191.228 208.108 191.176 208.039C190.181 206.684 188.029 206.567 186.357 207.777C186.159 207.923 185.972 208.084 185.797 208.257C184.641 209.413 184.289 211.04 184.983 212.217Z" fill="white"/>
<path d="M28.3695 255.142C27.2597 254.704 26.1865 254.179 25.16 253.571C18.2673 249.444 13.7764 240.188 15.1442 232.22C15.8267 228.265 18.4014 225.509 21.7151 223.429C24.0306 221.992 26.5219 220.818 28.59 219.045C35.4739 213.165 29.9668 204.02 33.7782 196.993C38.4121 188.47 45.8621 183.473 55.6783 183.798C60.3896 183.953 66.5076 185.034 70.3548 181.586C72.3752 179.798 72.7984 176.884 73.5642 174.452C74.4275 171.71 75.1475 168.925 75.7217 166.108C76.2376 163.438 77.2094 160.877 78.5945 158.536C80.0934 155.997 82.2077 153.877 84.7422 152.37C89.5102 149.62 96.1586 149.367 100.95 152.195C101.633 152.6 102.279 153.064 102.881 153.58C107.316 157.383 109.437 163.787 109.336 169.497" stroke="black" stroke-width="4.82" stroke-miterlimit="10"/>
<path d="M100.331 162.508C100.578 164.189 101.6 165.738 103.415 166.203C105.465 166.725 106.553 168.721 107.131 170.727C107.952 173.669 107.742 176.804 106.535 179.61C105.414 182.25 103.418 185.272 100.041 185.746C93.8639 186.64 90.7886 184.023 90.7886 184.023" stroke="black" stroke-width="4.82" stroke-miterlimit="10"/>
<path d="M95.1839 171.487C95.7698 171.487 96.2448 171.012 96.2448 170.426C96.2448 169.84 95.7698 169.365 95.1839 169.365C94.5981 169.365 94.123 169.84 94.123 170.426C94.123 171.012 94.5981 171.487 95.1839 171.487Z" fill="black"/>
<path d="M104.514 170.784C105.1 170.784 105.575 170.309 105.575 169.723C105.575 169.137 105.1 168.662 104.514 168.662C103.929 168.662 103.454 169.137 103.454 169.723C103.454 170.309 103.929 170.784 104.514 170.784Z" fill="black"/>
<path d="M92.7226 249.798C94.2662 250.746 93.0206 252.307 91.9001 252.835C89.975 253.729 87.4867 253.887 85.3888 254.137C69.4369 256.014 64.1116 277.911 54.0988 281.982C44.086 286.053 17.2153 289.027 30.3214 243.498C40.4117 208.459 64.7404 198.903 74.9111 195.13C76.006 194.728 77.0746 194.258 78.1116 193.723C83.9733 190.678 86.7179 187.418 87.5791 183.213C87.5791 183.213 87.5791 183.213 87.5791 183.195C88.3241 179.586 87.8235 176.272 87.0934 174.356C86.6747 173.344 86.3495 172.296 86.1219 171.224C85.5795 168.176 87.9337 168.605 94.5434 168.968C97.577 169.147 99.2935 167.776 100.033 166.03C100.105 165.879 100.164 165.721 100.208 165.559C100.519 164.571 100.556 163.516 100.316 162.508" stroke="black" stroke-width="4.82" stroke-miterlimit="10"/>
<path d="M99.7552 170.683C99.7552 170.683 100.87 174.757 100.756 175.359C100.643 175.961 99.2158 175.496 99.2158 175.496" stroke="black" stroke-width="4.82" stroke-miterlimit="10"/>
<path d="M98.9867 179.226C96.85 180.376 94.3796 179.652 93.4141 177.736" stroke="black" stroke-width="4.82" stroke-miterlimit="10"/>
<path d="M96.888 174.761C98.878 172.882 99.005 169.784 97.1714 167.842C95.3378 165.899 92.238 165.848 90.2477 167.727C88.2576 169.606 88.1307 172.703 89.9643 174.646C91.7979 176.588 94.8977 176.64 96.888 174.761Z" stroke="black" stroke-width="4.82" stroke-miterlimit="10"/>
<path d="M109.264 173.632C111.254 171.753 111.381 168.655 109.548 166.713C107.714 164.77 104.614 164.719 102.624 166.598C100.634 168.477 100.507 171.574 102.34 173.517C104.174 175.459 107.274 175.511 109.264 173.632Z" stroke="black" stroke-width="4.82" stroke-miterlimit="10"/>
<path d="M106.046 166.716C106.883 166.711 107.691 167.026 108.304 167.597C108.916 168.168 109.287 168.952 109.339 169.788C109.392 170.699 109.09 171.594 108.497 172.286C107.903 172.978 107.064 173.413 106.156 173.498C106.052 173.498 105.945 173.498 105.84 173.498C105.008 173.504 104.204 173.193 103.592 172.628C102.981 172.063 102.607 171.286 102.548 170.456C102.49 169.543 102.79 168.644 103.384 167.949C103.978 167.253 104.82 166.817 105.73 166.731C105.834 166.731 105.942 166.731 106.046 166.731V166.716ZM106.046 166.013C105.921 166.013 105.793 166.013 105.665 166.031C104.571 166.135 103.56 166.658 102.845 167.492C102.13 168.325 101.766 169.404 101.829 170.501C101.896 171.517 102.348 172.471 103.093 173.166C103.839 173.861 104.821 174.245 105.84 174.24C105.966 174.24 106.094 174.24 106.222 174.223C107.316 174.12 108.327 173.597 109.042 172.763C109.757 171.929 110.12 170.849 110.054 169.753C109.995 168.731 109.546 167.771 108.8 167.071C108.055 166.37 107.069 165.982 106.046 165.986V166.013Z" fill="white"/>
<path d="M98.4561 170.801L101.055 170.563" stroke="black" stroke-width="4.82" stroke-miterlimit="10"/>
<path d="M93.6732 167.75C94.5359 167.742 95.3691 168.065 96.0002 168.654C96.6314 169.242 97.0126 170.05 97.0644 170.912C97.1201 171.85 96.8096 172.773 96.1981 173.486C95.5866 174.199 94.7218 174.647 93.7864 174.735C93.6791 174.735 93.5689 174.735 93.4616 174.735C92.598 174.743 91.7645 174.419 91.133 173.83C90.5016 173.241 90.1201 172.432 90.0674 171.571C90.0122 170.633 90.323 169.711 90.9345 168.998C91.546 168.286 92.4105 167.838 93.3454 167.75C93.4541 167.739 93.5638 167.734 93.6732 167.735V167.75ZM93.6732 167.017C93.542 167.017 93.4109 167.023 93.2798 167.035C92.1528 167.14 91.1113 167.681 90.3776 168.543C89.6436 169.404 89.2759 170.519 89.3522 171.648C89.4204 172.69 89.8835 173.667 90.6473 174.379C91.4108 175.091 92.4174 175.485 93.4616 175.48C93.5897 175.48 93.7208 175.48 93.852 175.462C94.9736 175.357 96.0107 174.82 96.7435 173.964C97.4765 173.108 97.8478 172.001 97.7796 170.876C97.712 169.834 97.2495 168.858 96.4863 168.146C95.7231 167.433 94.7171 167.039 93.6732 167.044V167.017Z" fill="white"/>
<path d="M108.793 173.132C110.5 171.521 110.608 168.864 109.034 167.197C107.46 165.529 104.801 165.484 103.094 167.095C101.387 168.706 101.28 171.364 102.854 173.031C104.427 174.698 107.087 174.743 108.793 173.132Z" fill="#3FBDF1"/>
<path d="M97.3118 174.437C99.0333 172.809 99.1412 170.128 97.5526 168.447C95.9637 166.766 93.2802 166.723 91.5586 168.35C89.8368 169.977 89.7292 172.659 91.3178 174.34C92.9065 176.021 95.59 176.064 97.3118 174.437Z" fill="#3FBDF1"/>
<path d="M83.0613 199.04C81.7501 197.672 80.6117 195.66 79.8638 192.749" stroke="black" stroke-width="4.82" stroke-miterlimit="10"/>
<path d="M95.1841 199.005L96.6294 192.75L98.1998 186.009" stroke="black" stroke-width="4.82" stroke-miterlimit="10"/>
<path d="M101.092 223.91C101.647 221.185 100.144 218.577 97.7351 218.086C95.3257 217.595 92.9224 219.407 92.3669 222.132C91.8114 224.857 93.3142 227.465 95.7236 227.956C98.1329 228.447 100.536 226.636 101.092 223.91Z" fill="#D7E8F0"/>
<path d="M193.274 268.253L190.83 281.908C190.762 282.291 190.561 282.638 190.262 282.888C189.964 283.138 189.587 283.275 189.197 283.276H176.416C176.023 283.276 175.642 283.136 175.341 282.882C175.041 282.628 174.841 282.275 174.777 281.887L172.542 268.253H193.274Z" stroke="#CCDDE2" stroke-width="4.82" stroke-miterlimit="10"/>
<path d="M195.598 266.727C195.564 267.143 195.375 267.53 195.068 267.812C194.762 268.095 194.361 268.252 193.944 268.253H171.892C171.481 268.253 171.085 268.101 170.779 267.826C170.474 267.55 170.281 267.172 170.238 266.763C170.216 266.533 170.243 266.3 170.316 266.081C170.389 265.861 170.507 265.659 170.663 265.488C170.819 265.317 171.009 265.18 171.22 265.087C171.432 264.993 171.661 264.945 171.892 264.945H193.944C194.172 264.946 194.398 264.993 194.607 265.084C194.816 265.175 195.004 265.309 195.16 265.476C195.315 265.643 195.434 265.841 195.509 266.056C195.585 266.271 195.615 266.5 195.598 266.727Z" stroke="#CCDDE2" stroke-width="4.82" stroke-miterlimit="10"/>
<path d="M183.613 264.922C183.613 264.222 185.401 255.5 183.911 247.766C183.1 243.523 181.312 239.58 177.712 237.42" stroke="#CCDDE2" stroke-width="4.82" stroke-miterlimit="10"/>
<path d="M183.917 247.778C183.917 247.778 184.325 241.902 189.403 241.497" stroke="#CCDDE2" stroke-width="4.82" stroke-miterlimit="10"/>
<path d="M184.462 256.745C185.907 255.733 187.647 255.229 189.409 255.314" stroke="#CCDDE2" stroke-width="4.82" stroke-miterlimit="10"/>
<path d="M184.462 252.57C184.462 252.57 180.773 248.201 174.878 251.658" stroke="#CCDDE2" stroke-width="4.82" stroke-miterlimit="10"/>
<path d="M181.861 250.811C181.861 250.811 173.552 243.224 171.925 253.493C171.925 253.493 174.265 255.016 177.718 253.493C181.172 251.971 181.861 250.811 181.861 250.811Z" stroke="#CCDDE2" stroke-width="4.82" stroke-miterlimit="10"/>
<path d="M185.743 243.284C185.743 243.284 185.445 239.869 189.403 238.752C193.36 237.634 195.604 242.31 195.604 242.31C195.604 242.31 192.55 245.686 185.743 243.284Z" stroke="#CCDDE2" stroke-width="4.82" stroke-miterlimit="10"/>
<path d="M186.661 255.311C186.661 255.311 186.524 251.858 191.131 252.57C195.738 253.282 196.495 257.213 196.495 257.213C196.495 257.213 188.95 259.978 186.661 255.675" stroke="#CCDDE2" stroke-width="4.82" stroke-miterlimit="10"/>
<path d="M181.11 240.626C181.11 240.871 177.647 240.328 177.426 240.251C175.749 239.75 174.557 238.588 173.773 237.05C173.532 236.574 172.134 233.9 172.53 233.436C172.542 233.436 180.773 230.783 181.11 240.626Z" stroke="#CCDDE2" stroke-width="4.82" stroke-miterlimit="10"/>
<path d="M262.347 241.552C259.748 249.302 255.446 256.371 249.757 262.239C238.996 273.498 222.823 281.562 202.375 283.448V241.552H262.347Z" stroke="#CCDDE2" stroke-width="4.82" stroke-miterlimit="10"/>
<path d="M249.757 262.24C238.996 273.498 222.823 281.562 202.375 283.448V262.24H249.757Z" stroke="#CCDDE2" stroke-width="4.82" stroke-miterlimit="10"/>
<path d="M243.531 252.309C243.531 250.637 242.177 249.283 240.505 249.283C238.834 249.283 237.479 250.637 237.479 252.309C237.479 253.98 238.834 255.335 240.505 255.335C242.177 255.335 243.531 253.98 243.531 252.309Z" stroke="#CCDDE2" stroke-width="4.82" stroke-miterlimit="10"/>
</svg>
